<?xml version="1.0" encoding="UTF-8"?>
<svg version="1.1" xmlns="http://www.w3.org/2000/svg" width="48" height="48">
<path d="M0 0 C1.1149585 -0.00430527 1.1149585 -0.00430527 2.25244141 -0.00869751 C3.8225989 -0.01073726 5.39278186 -0.0052135 6.96289062 0.00732422 C9.36646332 0.02338047 11.76835461 0.00747398 14.171875 -0.01171875 C15.69792038 -0.0097363 17.22396471 -0.00589259 18.75 0 C19.46881348 -0.00607269 20.18762695 -0.01214539 20.92822266 -0.0184021 C23.73792009 0.02120735 25.87890248 0.10415498 28.32666016 1.55615234 C29.8232725 4.18620282 29.76375679 6.25674514 29.7734375 9.2734375 C29.77923828 10.99820312 29.77923828 10.99820312 29.78515625 12.7578125 C29.77355469 13.95921875 29.76195312 15.160625 29.75 16.3984375 C29.76160156 17.59984375 29.77320313 18.80125 29.78515625 20.0390625 C29.78128906 21.18890625 29.77742188 22.33875 29.7734375 23.5234375 C29.77005371 24.57789062 29.76666992 25.63234375 29.76318359 26.71875 C29.375 29.3984375 29.375 29.3984375 28.32666016 31.24072266 C25.28658342 33.04408066 22.1843116 32.82588881 18.75 32.796875 C17.6350415 32.80118027 17.6350415 32.80118027 16.49755859 32.80557251 C14.9274011 32.80761226 13.35721814 32.8020885 11.78710938 32.78955078 C9.38353668 32.77349453 6.98164539 32.78940102 4.578125 32.80859375 C3.05207962 32.8066113 1.52603529 32.80276759 0 32.796875 C-0.71881348 32.80294769 -1.43762695 32.80902039 -2.17822266 32.8152771 C-4.98792009 32.77566765 -7.12890248 32.69272002 -9.57666016 31.24072266 C-11.0732725 28.61067218 -11.01375679 26.54012986 -11.0234375 23.5234375 C-11.02730469 22.37359375 -11.03117188 21.22375 -11.03515625 20.0390625 C-11.02355469 18.83765625 -11.01195312 17.63625 -11 16.3984375 C-11.01160156 15.19703125 -11.02320313 13.995625 -11.03515625 12.7578125 C-11.03128906 11.60796875 -11.02742187 10.458125 -11.0234375 9.2734375 C-11.02005371 8.21898437 -11.01666992 7.16453125 -11.01318359 6.078125 C-10.625 3.3984375 -10.625 3.3984375 -9.57666016 1.55615234 C-6.53658342 -0.24720566 -3.4343116 -0.02901381 0 0 Z M-6.625 4.3984375 C-6.625 5.7184375 -6.625 7.0384375 -6.625 8.3984375 C-4.26220346 9.79928125 -1.88868775 11.16805849 0.5 12.5234375 C1.16515625 12.92175781 1.8303125 13.32007813 2.515625 13.73046875 C5.9220397 15.63405344 7.56154516 16.54485937 11.5 15.8359375 C14.44959034 14.36114233 17.37347383 12.88709852 20.25 11.2734375 C21.21679688 10.73460937 22.18359375 10.19578125 23.1796875 9.640625 C23.90414062 9.23070312 24.62859375 8.82078125 25.375 8.3984375 C25.375 7.0784375 25.375 5.7584375 25.375 4.3984375 C22.17587999 3.33206416 19.8612254 3.26922044 16.5 3.265625 C15.35015625 3.26433594 14.2003125 3.26304688 13.015625 3.26171875 C11.81421875 3.26558594 10.6128125 3.26945313 9.375 3.2734375 C7.57289062 3.26763672 7.57289062 3.26763672 5.734375 3.26171875 C4.58453125 3.26300781 3.4346875 3.26429687 2.25 3.265625 C1.19554687 3.26675293 0.14109375 3.26788086 -0.9453125 3.26904297 C-3.72724344 3.28246097 -3.72724344 3.28246097 -6.625 4.3984375 Z M-7.625 12.3984375 C-7.65201408 14.50253389 -7.67140223 16.60672928 -7.6875 18.7109375 C-7.69910156 19.88269531 -7.71070313 21.05445313 -7.72265625 22.26171875 C-7.77399898 25.42902945 -7.77399898 25.42902945 -6.625 28.3984375 C-3.42587999 29.46481084 -1.1112254 29.52765456 2.25 29.53125 C3.39984375 29.53253906 4.5496875 29.53382812 5.734375 29.53515625 C6.93578125 29.53128906 8.1371875 29.52742188 9.375 29.5234375 C11.17710938 29.52923828 11.17710938 29.52923828 13.015625 29.53515625 C14.16546875 29.53386719 15.3153125 29.53257813 16.5 29.53125 C17.55445312 29.53012207 18.60890625 29.52899414 19.6953125 29.52783203 C22.47724344 29.51441403 22.47724344 29.51441403 25.375 28.3984375 C26.51577657 24.97610778 26.47315117 22.31170533 26.4375 18.7109375 C26.42847656 17.53144531 26.41945312 16.35195313 26.41015625 15.13671875 C26.39855469 14.23308594 26.38695312 13.32945313 26.375 12.3984375 C25.43398438 12.90375 24.49296875 13.4090625 23.5234375 13.9296875 C22.26595981 14.58657883 21.00812831 15.24279317 19.75 15.8984375 C19.13253906 16.23230469 18.51507813 16.56617188 17.87890625 16.91015625 C13.83467451 18.99612841 10.90152152 20.05855522 6.375 19.3984375 C3.79484762 18.31554699 1.44472953 17.22032675 -1 15.8984375 C-1.64066406 15.56457031 -2.28132812 15.23070312 -2.94140625 14.88671875 C-4.50833671 14.06817299 -6.06750241 13.23479237 -7.625 12.3984375 Z " fill="#FFFFFF" transform="translate(14.625,7.6015625)"/>
</svg>
