<?xml version="1.0" encoding="UTF-8"?>
<svg version="1.1" xmlns="http://www.w3.org/2000/svg" width="300" height="300">
<path d="M0 0 C15.51 0 31.02 0 47 0 C47 0.66 47 1.32 47 2 C48.65 2 50.3 2 52 2 C52.33 2.99 52.66 3.98 53 5 C60.92 5 68.84 5 77 5 C77 5.99 77 6.98 77 8 C81.62 8 86.24 8 91 8 C91 8.66 91 9.32 91 10 C93.31 10 95.62 10 98 10 C98.33 10.99 98.66 11.98 99 13 C99.763125 12.938125 100.52625 12.87625 101.3125 12.8125 C104 13 104 13 105.8125 14.3125 C107 16 107 16 107 19 C107.99 19 108.98 19 110 19 C110 19.66 110 20.32 110 21 C114.29 21 118.58 21 123 21 C123 21.99 123 22.98 123 24 C129.27 24 135.54 24 142 24 C142 24.99 142 25.98 142 27 C143.19625 26.938125 144.3925 26.87625 145.625 26.8125 C149.73497595 26.79056063 152.4478261 27.86869566 156 30 C156 30.66 156 31.32 156 32 C157.65 32 159.3 32 161 32 C161 32.99 161 33.98 161 35 C162.98 35 164.96 35 167 35 C167 35.66 167 36.32 167 37 C170.96 37.495 170.96 37.495 175 38 C175 38.66 175 39.32 175 40 C176.65 40 178.3 40 180 40 C180 40.99 180 41.98 180 43 C181.98 43 183.96 43 186 43 C186 43.99 186 44.98 186 46 C186.66 46 187.32 46 188 46 C188 53.59 188 61.18 188 69 C187.34 69 186.68 69 186 69 C186 71.64 186 74.28 186 77 C185.01 77 184.02 77 183 77 C183 78.65 183 80.3 183 82 C182.01 82 181.02 82 180 82 C180 82.99 180 83.98 180 85 C179.34 85 178.68 85 178 85 C178 86.65 178 88.3 178 90 C177.01 90 176.02 90 175 90 C175 91.98 175 93.96 175 96 C174.01 96 173.02 96 172 96 C172 97.65 172 99.3 172 101 C171.34 101 170.68 101 170 101 C169.67 101.99 169.34 102.98 169 104 C165.7 104 162.4 104 159 104 C158.67 104.99 158.34 105.98 158 107 C157.34 107 156.68 107 156 107 C156 107.66 156 108.32 156 109 C155.01 109 154.02 109 153 109 C153 109.99 153 110.98 153 112 C152.34 112 151.68 112 151 112 C150.67 112.99 150.34 113.98 150 115 C147.03 115 144.06 115 141 115 C141 109.72 141 104.44 141 99 C140.34 99 139.68 99 139 99 C137.375 97.6875 137.375 97.6875 136 96 C136 95.01 136 94.02 136 93 C135.01 93 134.02 93 133 93 C133 92.34 133 91.68 133 91 C128.05 91 123.1 91 118 91 C118 91.66 118 92.32 118 93 C117.01 93 116.02 93 115 93 C115 93.99 115 94.98 115 96 C113.35 96 111.7 96 110 96 C109.67 96.99 109.34 97.98 109 99 C108.34 99 107.68 99 107 99 C107 99.66 107 100.32 107 101 C106.01 101 105.02 101 104 101 C104 101.99 104 102.98 104 104 C103.34 104 102.68 104 102 104 C101.67 104.99 101.34 105.98 101 107 C100.34 107 99.68 107 99 107 C99 107.66 99 108.32 99 109 C98.01 109 97.02 109 96 109 C96 109.99 96 110.98 96 112 C81.39816584 112.36453955 81.39816584 112.36453955 75 110 C73.66869885 109.65864073 72.33641852 109.32074044 71 109 C71 108.34 71 107.68 71 107 C65.72 107 60.44 107 55 107 C54.67 106.01 54.34 105.02 54 104 C48.06 104 42.12 104 36 104 C35.67 103.01 35.34 102.02 35 101 C21.14 101 7.28 101 -7 101 C-7 101.99 -7 102.98 -7 104 C-13.27 104 -19.54 104 -26 104 C-26 104.99 -26 105.98 -26 107 C-26.99 107 -27.98 107 -29 107 C-29 107.66 -29 108.32 -29 109 C-31.64 109.33 -34.28 109.66 -37 110 C-37 110.66 -37 111.32 -37 112 C-38.65 112 -40.3 112 -42 112 C-42 112.99 -42 113.98 -42 115 C-43.98 115 -45.96 115 -48 115 C-48 115.99 -48 116.98 -48 118 C-49.65 118 -51.3 118 -53 118 C-53 118.66 -53 119.32 -53 120 C-54.65 120 -56.3 120 -58 120 C-58.495 121.485 -58.495 121.485 -59 123 C-60.65 123 -62.3 123 -64 123 C-64 123.99 -64 124.98 -64 126 C-64.99 126 -65.98 126 -67 126 C-67 126.66 -67 127.32 -67 128 C-68.65 128.33 -70.3 128.66 -72 129 C-72 129.66 -72 130.32 -72 131 C-72.99 131 -73.98 131 -75 131 C-75 131.99 -75 132.98 -75 134 C-75.66 134 -76.32 134 -77 134 C-77.33 134.99 -77.66 135.98 -78 137 C-78.66 137 -79.32 137 -80 137 C-80 137.66 -80 138.32 -80 139 C-80.99 139 -81.98 139 -83 139 C-83 139.99 -83 140.98 -83 142 C-83.99 142 -84.98 142 -86 142 C-86 142.99 -86 143.98 -86 145 C-86.66 145 -87.32 145 -88 145 C-88 145.66 -88 146.32 -88 147 C-88.99 147 -89.98 147 -91 147 C-91 147.99 -91 148.98 -91 150 C-91.99 150 -92.98 150 -94 150 C-94 150.99 -94 151.98 -94 153 C-94.66 153 -95.32 153 -96 153 C-96 154.65 -96 156.3 -96 158 C-96.99 158 -97.98 158 -99 158 C-99 159.98 -99 161.96 -99 164 C-101.97 164 -104.94 164 -108 164 C-108.33 163.01 -108.66 162.02 -109 161 C-109.66 161 -110.32 161 -111 161 C-111 155.39 -111 149.78 -111 144 C-110.34 144 -109.68 144 -109 144 C-109 142.35 -109 140.7 -109 139 C-108.01 138.67 -107.02 138.34 -106 138 C-106 133.71 -106 129.42 -106 125 C-104.515 124.505 -104.515 124.505 -103 124 C-103 120.7 -103 117.4 -103 114 C-102.34 114 -101.68 114 -101 114 C-100.67 112.02 -100.34 110.04 -100 108 C-99.34 108 -98.68 108 -98 108 C-98 105.69 -98 103.38 -98 101 C-96.515 100.505 -96.515 100.505 -95 100 C-95 98.35 -95 96.7 -95 95 C-94.01 95 -93.02 95 -92 95 C-92 93.02 -92 91.04 -92 89 C-91.34 89 -90.68 89 -90 89 C-89.505 87.515 -89.505 87.515 -89 86 C-88.34 86 -87.68 86 -87 86 C-87 84.35 -87 82.7 -87 81 C-86.01 81 -85.02 81 -84 81 C-84 80.01 -84 79.02 -84 78 C-83.01 78 -82.02 78 -81 78 C-81 77.34 -81 76.68 -81 76 C-80.34 76 -79.68 76 -79 76 C-79 75.01 -79 74.02 -79 73 C-78.01 73 -77.02 73 -76 73 C-76 72.01 -76 71.02 -76 70 C-75.01 70 -74.02 70 -73 70 C-73 69.34 -73 68.68 -73 68 C-71.625 66.375 -71.625 66.375 -70 65 C-69.34 65 -68.68 65 -68 65 C-68 64.01 -68 63.02 -68 62 C-67.01 62 -66.02 62 -65 62 C-65 61.01 -65 60.02 -65 59 C-63.35 59 -61.7 59 -60 59 C-60 58.34 -60 57.68 -60 57 C-57.03 56.505 -57.03 56.505 -54 56 C-54 55.34 -54 54.68 -54 54 C-53.01 54 -52.02 54 -51 54 C-51 53.01 -51 52.02 -51 51 C-49.35 51 -47.7 51 -46 51 C-45.67 50.01 -45.34 49.02 -45 48 C-44.34 48 -43.68 48 -43 48 C-43 47.34 -43 46.68 -43 46 C-40.36 46 -37.72 46 -35 46 C-35 45.01 -35 44.02 -35 43 C-33.35 43 -31.7 43 -30 43 C-30 42.01 -30 41.02 -30 40 C-28.02 40 -26.04 40 -24 40 C-24 39.34 -24 38.68 -24 38 C-23.34 38 -22.68 38 -22 38 C-22 37.01 -22 36.02 -22 35 C-20.02 35 -18.04 35 -16 35 C-16 34.01 -16 33.02 -16 32 C-15.34 32 -14.68 32 -14 32 C-13.505 30.515 -13.505 30.515 -13 29 C-12.34 29 -11.68 29 -11 29 C-11 28.34 -11 27.68 -11 27 C-10.01 27 -9.02 27 -8 27 C-8 25.02 -8 23.04 -8 21 C-7.34 21 -6.68 21 -6 21 C-6.04125 19.9275 -6.0825 18.855 -6.125 17.75 C-6.00373359 14.11200778 -5.61745319 13.04461777 -4 10 C-3.61250787 7.67504723 -3.27017161 5.34148732 -3 3 C-2.01 2.67 -1.02 2.34 0 2 C0 1.34 0 0.68 0 0 Z " fill="#010101" transform="translate(112,31)"/>
<path d="M0 0 C14.52 0 29.04 0 44 0 C44 0.66 44 1.32 44 2 C45.25296875 1.98839844 46.5059375 1.97679687 47.796875 1.96484375 C49.44791517 1.95546284 51.09895696 1.94636296 52.75 1.9375 C53.575 1.92912109 54.4 1.92074219 55.25 1.91210938 C56.04921875 1.90888672 56.8484375 1.90566406 57.671875 1.90234375 C58.4050293 1.89710693 59.13818359 1.89187012 59.89355469 1.88647461 C62.0461849 2.0024891 63.9314135 2.40926729 66 3 C66 3.66 66 4.32 66 5 C69.3 5 72.6 5 76 5 C76.33 5.99 76.66 6.98 77 8 C78.65 8 80.3 8 82 8 C83.36952673 10.73905345 83.12621361 12.97087332 83 16 C82.67 16.66 82.34 17.32 82 18 C67.81 18 53.62 18 39 18 C39 18.66 39 19.32 39 20 C35.37 20 31.74 20 28 20 C28 20.99 28 21.98 28 23 C25.36 23 22.72 23 20 23 C19.505 24.485 19.505 24.485 19 26 C16.69 26 14.38 26 12 26 C12 26.66 12 27.32 12 28 C10.02 28 8.04 28 6 28 C6 28.99 6 29.98 6 31 C5.34 31 4.68 31 4 31 C4 31.99 4 32.98 4 34 C2.02 34 0.04 34 -2 34 C-2 34.66 -2 35.32 -2 36 C-2.66 36 -3.32 36 -4 36 C-4.33 36.99 -4.66 37.98 -5 39 C-5.66 39 -6.32 39 -7 39 C-7 39.99 -7 40.98 -7 42 C-7.99 42 -8.98 42 -10 42 C-11.41377341 44.63904371 -12.37240135 47.07120629 -13 50 C-13.66 50 -14.32 50 -15 50 C-15 50.99 -15 51.98 -15 53 C-15.99 53 -16.98 53 -18 53 C-18 54.65 -18 56.3 -18 58 C-18.99 58 -19.98 58 -21 58 C-21 60.64 -21 63.28 -21 66 C-21.66 66 -22.32 66 -23 66 C-23 67.65 -23 69.3 -23 71 C-24.485 71.495 -24.485 71.495 -26 72 C-26 76.95 -26 81.9 -26 87 C-24.515 87.495 -24.515 87.495 -23 88 C-23 90.31 -23 92.62 -23 95 C-22.34 95 -21.68 95 -21 95 C-21 96.65 -21 98.3 -21 100 C-19.515 100.495 -19.515 100.495 -18 101 C-17.814375 102.7015625 -17.814375 102.7015625 -17.625 104.4375 C-17.315625 106.2009375 -17.315625 106.2009375 -17 108 C-16.34 108.33 -15.68 108.66 -15 109 C-15 109.66 -15 110.32 -15 111 C-14.34 111 -13.68 111 -13 111 C-13 111.99 -13 112.98 -13 114 C-12.01 114 -11.02 114 -10 114 C-10 114.99 -10 115.98 -10 117 C-9.01 117 -8.02 117 -7 117 C-7 119.97 -7 122.94 -7 126 C-7.99 126 -8.98 126 -10 126 C-10 126.99 -10 127.98 -10 129 C-13.63 129 -17.26 129 -21 129 C-21 129.66 -21 130.32 -21 131 C-22.65 131.33 -24.3 131.66 -26 132 C-26 132.66 -26 133.32 -26 134 C-28.97 134 -31.94 134 -35 134 C-35 133.34 -35 132.68 -35 132 C-36.98 131.67 -38.96 131.34 -41 131 C-41 130.34 -41 129.68 -41 129 C-44.3 129 -47.6 129 -51 129 C-51.33 128.01 -51.66 127.02 -52 126 C-53.65 126 -55.3 126 -57 126 C-57 125.01 -57 124.02 -57 123 C-58.98 123 -60.96 123 -63 123 C-63 122.34 -63 121.68 -63 121 C-64.65 120.67 -66.3 120.34 -68 120 C-68 119.34 -68 118.68 -68 118 C-69.65 118 -71.3 118 -73 118 C-73 117.01 -73 116.02 -73 115 C-73.99 115 -74.98 115 -76 115 C-76 114.01 -76 113.02 -76 112 C-76.99 112 -77.98 112 -79 112 C-79 111.34 -79 110.68 -79 110 C-79.99 109.67 -80.98 109.34 -82 109 C-82 108.34 -82 107.68 -82 107 C-82.66 107 -83.32 107 -84 107 C-85.07525194 104.34771188 -86.09456151 101.71631546 -87 99 C-87.99 99 -88.98 99 -90 99 C-90 97.02 -90 95.04 -90 93 C-90.99 92.67 -91.98 92.34 -93 92 C-93 90.68 -93 89.36 -93 88 C-93.66 88 -94.32 88 -95 88 C-95.07411371 82.50076251 -95.12858464 77.00181521 -95.16479492 71.50219727 C-95.17988873 69.63105201 -95.20036589 67.75994217 -95.22631836 65.88891602 C-95.26267593 63.20059474 -95.27972015 60.51274087 -95.29296875 57.82421875 C-95.30845261 56.98662521 -95.32393646 56.14903168 -95.33988953 55.28605652 C-95.34159036 49.42691049 -95.34159036 49.42691049 -93.60371399 47.25495911 C-92 46 -92 46 -90 46 C-90 45.01 -90 44.02 -90 43 C-89.01 43 -88.02 43 -87 43 C-87 41.35 -87 39.7 -87 38 C-86.01 38 -85.02 38 -84 38 C-84 37.01 -84 36.02 -84 35 C-83.34 35 -82.68 35 -82 35 C-82 34.34 -82 33.68 -82 33 C-81.01 33 -80.02 33 -79 33 C-79 32.01 -79 31.02 -79 30 C-78.01 30 -77.02 30 -76 30 C-76 29.01 -76 28.02 -76 27 C-74.35 27 -72.7 27 -71 27 C-71 26.01 -71 25.02 -71 24 C-70.01 24 -69.02 24 -68 24 C-68 23.34 -68 22.68 -68 22 C-67.01 22 -66.02 22 -65 22 C-65 21.01 -65 20.02 -65 19 C-63.35 19 -61.7 19 -60 19 C-60 18.01 -60 17.02 -60 16 C-58.35 16 -56.7 16 -55 16 C-54.67 15.01 -54.34 14.02 -54 13 C-52.35 13 -50.7 13 -49 13 C-49 12.34 -49 11.68 -49 11 C-47.35 11 -45.7 11 -44 11 C-43.67 10.01 -43.34 9.02 -43 8 C-39.7 8 -36.4 8 -33 8 C-33 7.01 -33 6.02 -33 5 C-28.38 5 -23.76 5 -19 5 C-19 4.34 -19 3.68 -19 3 C-15.23699626 1.74566542 -11.72789091 1.89304578 -7.8125 1.9375 C-7.06291016 1.94201172 -6.31332031 1.94652344 -5.54101562 1.95117188 C-3.69397617 1.96293646 -1.84697787 1.98087135 0 2 C0 1.34 0 0.68 0 0 Z " fill="#EC1E23" transform="translate(115,142)"/>
<path d="M0 0 C10.89 0 21.78 0 33 0 C33.495 1.485 33.495 1.485 34 3 C34.99 3 35.98 3 37 3 C37.99 6.96 37.99 6.96 39 11 C39.99 11 40.98 11 42 11 C42 11.99 42 12.98 42 14 C50.58 14 59.16 14 68 14 C68 13.01 68 12.02 68 11 C68.99 11 69.98 11 71 11 C71 10.34 71 9.68 71 9 C72.375 7.375 72.375 7.375 74 6 C74.66 6 75.32 6 76 6 C76 5.01 76 4.02 76 3 C76.99 3 77.98 3 79 3 C79 2.01 79 1.02 79 0 C80.98 0 82.96 0 85 0 C85.495 1.485 85.495 1.485 86 3 C86.66 3 87.32 3 88 3 C88 10.26 88 17.52 88 25 C88.99 25 89.98 25 91 25 C91 26.65 91 28.3 91 30 C92.485 30.495 92.485 30.495 94 31 C94 34.63 94 38.26 94 42 C93.01 42 92.02 42 91 42 C91 42.99 91 43.98 91 45 C90.01 45 89.02 45 88 45 C88 45.99 88 46.98 88 48 C87.34 48 86.68 48 86 48 C86 48.66 86 49.32 86 50 C84.02 50.33 82.04 50.66 80 51 C80 51.66 80 52.32 80 53 C79.01 53 78.02 53 77 53 C77 53.99 77 54.98 77 56 C76.34 56 75.68 56 75 56 C74.67 56.99 74.34 57.98 74 59 C72.35 59 70.7 59 69 59 C69 59.66 69 60.32 69 61 C67.35 61 65.7 61 64 61 C64 61.99 64 62.98 64 64 C62.02 64 60.04 64 58 64 C58 64.99 58 65.98 58 67 C56.35 67 54.7 67 53 67 C53 67.66 53 68.32 53 69 C44.42857143 70.28571429 44.42857143 70.28571429 41 69 C41 68.34 41 67.68 41 67 C39.515 66.505 39.515 66.505 38 66 C38 65.34 38 64.68 38 64 C37.34 64 36.68 64 36 64 C34.375 62.625 34.375 62.625 33 61 C33 60.34 33 59.68 33 59 C30.69 59 28.38 59 26 59 C25.67 58.01 25.34 57.02 25 56 C21.7 56 18.4 56 15 56 C14.67 56.99 14.34 57.98 14 59 C11.69 59 9.38 59 7 59 C7 59.66 7 60.32 7 61 C5.02 61 3.04 61 1 61 C1 61.99 1 62.98 1 64 C0.34 64 -0.32 64 -1 64 C-1.495 65.485 -1.495 65.485 -2 67 C-2.66 67 -3.32 67 -4 67 C-4 67.66 -4 68.32 -4 69 C-4.99 69 -5.98 69 -7 69 C-7 69.99 -7 70.98 -7 72 C-7.66 72 -8.32 72 -9 72 C-9.33 72.99 -9.66 73.98 -10 75 C-13.63 75 -17.26 75 -21 75 C-21 74.01 -21 73.02 -21 72 C-21.99 72 -22.98 72 -24 72 C-24 71.34 -24 70.68 -24 70 C-25.98 69.67 -27.96 69.34 -30 69 C-30 67.35 -30 65.7 -30 64 C-30.66 64 -31.32 64 -32 64 C-32.309375 63.195625 -32.61875 62.39125 -32.9375 61.5625 C-33.76335345 59.10919595 -33.76335345 59.10919595 -35 58 C-35.08855161 55.3337397 -35.11524673 52.69352886 -35.09765625 50.02734375 C-35.0962413 49.22970108 -35.09482635 48.43205841 -35.09336853 47.61024475 C-35.08775316 45.05262565 -35.07519812 42.49509282 -35.0625 39.9375 C-35.05748698 38.20768355 -35.05292373 36.47786574 -35.04882812 34.74804688 C-35.03777875 30.49866447 -35.02050386 26.24934688 -35 22 C-34.34 22 -33.68 22 -33 22 C-32.67 20.35 -32.34 18.7 -32 17 C-31.34 17 -30.68 17 -30 17 C-30 16.01 -30 15.02 -30 14 C-29.01 14 -28.02 14 -27 14 C-27 13.01 -27 12.02 -27 11 C-26.01 11 -25.02 11 -24 11 C-24 10.34 -24 9.68 -24 9 C-21.29120665 7.64560332 -18.99066732 7.93498549 -16 8 C-16 7.34 -16 6.68 -16 6 C-15.01 6 -14.02 6 -13 6 C-13 5.01 -13 4.02 -13 3 C-8.71 3 -4.42 3 0 3 C0 2.01 0 1.02 0 0 Z " fill="#030101" transform="translate(158,166)"/>
<path d="M0 0 C3.31248187 -0.02888146 6.62493167 -0.04675799 9.9375 -0.0625 C10.88302734 -0.07087891 11.82855469 -0.07925781 12.80273438 -0.08789062 C14.15141602 -0.09272461 14.15141602 -0.09272461 15.52734375 -0.09765625 C16.77632446 -0.10551147 16.77632446 -0.10551147 18.05053711 -0.11352539 C20 0 20 0 21 1 C21.09919077 2.60163916 21.12969898 4.20779918 21.125 5.8125 C21.12886719 7.12154297 21.12886719 7.12154297 21.1328125 8.45703125 C21.01114834 10.78654215 20.65514709 12.76938015 20 15 C19.34 15 18.68 15 18 15 C18 16.65 18 18.3 18 20 C17.01 20 16.02 20 15 20 C15 20.99 15 21.98 15 23 C13.35 23 11.7 23 10 23 C10 23.66 10 24.32 10 25 C6.32589215 26.17571451 2.83070817 26.07366746 -1 26 C-1 26.66 -1 27.32 -1 28 C-10.57 28 -20.14 28 -30 28 C-30.33 27.34 -30.66 26.68 -31 26 C-33.02463255 25.34786708 -33.02463255 25.34786708 -35 25 C-35 24.34 -35 23.68 -35 23 C-36.65 23 -38.3 23 -40 23 C-40.33 22.34 -40.66 21.68 -41 21 C-43.52733235 20.34444881 -43.52733235 20.34444881 -46 20 C-46 19.01 -46 18.02 -46 17 C-46.99 17 -47.98 17 -49 17 C-49 16.34 -49 15.68 -49 15 C-50.65 14.67 -52.3 14.34 -54 14 C-54 13.34 -54 12.68 -54 12 C-54.99 12 -55.98 12 -57 12 C-57 9.69 -57 7.38 -57 5 C-46.11 5 -35.22 5 -24 5 C-23.67 4.01 -23.34 3.02 -23 2 C-15.41 2 -7.82 2 0 2 C0 1.34 0 0.68 0 0 Z " fill="#EC2025" transform="translate(82,39)"/>
<path d="M0 0 C6.27 0 12.54 0 19 0 C19 0.66 19 1.32 19 2 C19.66 2 20.32 2 21 2 C21 2.99 21 3.98 21 5 C21.99 5 22.98 5 24 5 C24 5.99 24 6.98 24 8 C24.99 8 25.98 8 27 8 C27 8.99 27 9.98 27 11 C24.83125748 10.49396008 23.00032373 10.00016187 21 9 C21 8.01 21 7.02 21 6 C20.01 6 19.02 6 18 6 C18 5.34 18 4.68 18 4 C13.05 4 8.1 4 3 4 C3 4.66 3 5.32 3 6 C2.01 6 1.02 6 0 6 C0 6.99 0 7.98 0 9 C-1.65 9 -3.3 9 -5 9 C-5.33 9.99 -5.66 10.98 -6 12 C-6.66 12 -7.32 12 -8 12 C-8 12.66 -8 13.32 -8 14 C-8.99 14 -9.98 14 -11 14 C-11 14.99 -11 15.98 -11 17 C-11.66 17 -12.32 17 -13 17 C-13.33 17.99 -13.66 18.98 -14 20 C-14.66 20 -15.32 20 -16 20 C-16 20.66 -16 21.32 -16 22 C-16.99 22 -17.98 22 -19 22 C-19 22.99 -19 23.98 -19 25 C-33.60183416 25.36453955 -33.60183416 25.36453955 -40 23 C-41.33130115 22.65864073 -42.66358148 22.32074044 -44 22 C-44 21.34 -44 20.68 -44 20 C-49.28 20 -54.56 20 -60 20 C-60.495 18.515 -60.495 18.515 -61 17 C-66.94 17 -72.88 17 -79 17 C-79.495 15.515 -79.495 15.515 -80 14 C-93.86 14 -107.72 14 -122 14 C-122 14.99 -122 15.98 -122 17 C-128.27 17 -134.54 17 -141 17 C-141 17.99 -141 18.98 -141 20 C-141.99 20 -142.98 20 -144 20 C-144 20.66 -144 21.32 -144 22 C-147.96 22.495 -147.96 22.495 -152 23 C-152 23.66 -152 24.32 -152 25 C-153.65 25 -155.3 25 -157 25 C-157 25.99 -157 26.98 -157 28 C-158.98 28 -160.96 28 -163 28 C-163 28.99 -163 29.98 -163 31 C-164.65 31 -166.3 31 -168 31 C-168 31.66 -168 32.32 -168 33 C-169.65 33 -171.3 33 -173 33 C-173.33 33.99 -173.66 34.98 -174 36 C-174.99 36 -175.98 36 -177 36 C-177 34.68 -177 33.36 -177 32 C-176.01 32 -175.02 32 -174 32 C-174 30.35 -174 28.7 -174 27 C-173.34 27 -172.68 27 -172 27 C-172 26.01 -172 25.02 -172 24 C-170.02 24 -168.04 24 -166 24 C-166 23.34 -166 22.68 -166 22 C-162.37 22 -158.74 22 -155 22 C-155 21.01 -155 20.02 -155 19 C-152.36 19 -149.72 19 -147 19 C-147 18.34 -147 17.68 -147 17 C-146.01 17 -145.02 17 -144 17 C-144 16.01 -144 15.02 -144 14 C-139.71 14 -135.42 14 -131 14 C-131 13.01 -131 12.02 -131 11 C-111.2 11 -91.4 11 -71 11 C-71 11.66 -71 12.32 -71 13 C-65.72 13 -60.44 13 -55 13 C-55 14.32 -55 15.64 -55 17 C-52.36 17 -49.72 17 -47 17 C-47 17.66 -47 18.32 -47 19 C-44.03 19 -41.06 19 -38 19 C-38 19.99 -38 20.98 -38 22 C-33.71 22 -29.42 22 -25 22 C-25 21.01 -25 20.02 -25 19 C-24.01 19 -23.02 19 -22 19 C-22 18.01 -22 17.02 -22 16 C-20.35 16 -18.7 16 -17 16 C-17 14.35 -17 12.7 -17 11 C-16.01 11 -15.02 11 -14 11 C-14 10.01 -14 9.02 -14 8 C-13.01 8 -12.02 8 -11 8 C-11 7.01 -11 6.02 -11 5 C-9.35 5 -7.7 5 -6 5 C-6 4.34 -6 3.68 -6 3 C-4.02 3 -2.04 3 0 3 C0 2.01 0 1.02 0 0 Z " fill="#930001" transform="translate(227,118)"/>
<path d="M0 0 C0.99 0.33 1.98 0.66 3 1 C3 4.63 3 8.26 3 12 C2.01 12 1.02 12 0 12 C0 12.99 0 13.98 0 15 C-0.99 15 -1.98 15 -3 15 C-3 15.99 -3 16.98 -3 18 C-3.66 18 -4.32 18 -5 18 C-5 18.66 -5 19.32 -5 20 C-6.98 20.33 -8.96 20.66 -11 21 C-11 21.66 -11 22.32 -11 23 C-11.99 23 -12.98 23 -14 23 C-14 23.99 -14 24.98 -14 26 C-14.66 26 -15.32 26 -16 26 C-16.495 27.485 -16.495 27.485 -17 29 C-18.65 29 -20.3 29 -22 29 C-22 29.66 -22 30.32 -22 31 C-23.65 31 -25.3 31 -27 31 C-27 31.99 -27 32.98 -27 34 C-28.98 34 -30.96 34 -33 34 C-33 34.99 -33 35.98 -33 37 C-34.65 37 -36.3 37 -38 37 C-38 37.66 -38 38.32 -38 39 C-46.57142857 40.28571429 -46.57142857 40.28571429 -50 39 C-50 38.34 -50 37.68 -50 37 C-50.99 36.67 -51.98 36.34 -53 36 C-53 35.34 -53 34.68 -53 34 C-53.66 34 -54.32 34 -55 34 C-56.625 32.625 -56.625 32.625 -58 31 C-58 30.34 -58 29.68 -58 29 C-60.31 29 -62.62 29 -65 29 C-65.33 28.01 -65.66 27.02 -66 26 C-69.3 26 -72.6 26 -76 26 C-76.33 26.99 -76.66 27.98 -77 29 C-79.31 29 -81.62 29 -84 29 C-84 29.66 -84 30.32 -84 31 C-85.98 31 -87.96 31 -90 31 C-90 29.02 -90 27.04 -90 25 C-88.35 25 -86.7 25 -85 25 C-85 24.01 -85 23.02 -85 22 C-77.74 22 -70.48 22 -63 22 C-63 23.98 -63 25.96 -63 28 C-60.36 28 -57.72 28 -55 28 C-55 28.99 -55 29.98 -55 31 C-54.01 31 -53.02 31 -52 31 C-52 31.66 -52 32.32 -52 33 C-51.01 33 -50.02 33 -49 33 C-49 33.99 -49 34.98 -49 36 C-46.36 36 -43.72 36 -41 36 C-41 35.01 -41 34.02 -41 33 C-39.35 33 -37.7 33 -36 33 C-36 32.34 -36 31.68 -36 31 C-35.01 31 -34.02 31 -33 31 C-33 30.01 -33 29.02 -33 28 C-31.35 28 -29.7 28 -28 28 C-28 27.01 -28 26.02 -28 25 C-27.01 25 -26.02 25 -25 25 C-25 24.01 -25 23.02 -25 22 C-23.35 22 -21.7 22 -20 22 C-20 21.34 -20 20.68 -20 20 C-17.03 20 -14.06 20 -11 20 C-11 19.01 -11 18.02 -11 17 C-9.35 17 -7.7 17 -6 17 C-6 16.01 -6 15.02 -6 14 C-5.34 14 -4.68 14 -4 14 C-4 13.34 -4 12.68 -4 12 C-3.01 12 -2.02 12 -1 12 C-1 10.02 -1 8.04 -1 6 C-0.01 6 0.98 6 2 6 C2 5.34 2 4.68 2 4 C1.34 4 0.68 4 0 4 C0 2.68 0 1.36 0 0 Z " fill="#D80C0D" transform="translate(249,196)"/>
<path d="M0 0 C10.89 0 21.78 0 33 0 C33.495 1.485 33.495 1.485 34 3 C34.99 3 35.98 3 37 3 C37 3.99 37 4.98 37 6 C35.68 6 34.36 6 33 6 C33 5.01 33 4.02 33 3 C32.34 3 31.68 3 31 3 C31 2.34 31 1.68 31 1 C26.38 1 21.76 1 17 1 C17 1.99 17 2.98 17 4 C10.73 4 4.46 4 -2 4 C-2 4.66 -2 5.32 -2 6 C-5.63 6.33 -9.26 6.66 -13 7 C-13 7.66 -13 8.32 -13 9 C-14.65 9 -16.3 9 -18 9 C-18 9.99 -18 10.98 -18 12 C-19.98 12 -21.96 12 -24 12 C-24 12.99 -24 13.98 -24 15 C-24.66 15 -25.32 15 -26 15 C-26 15.66 -26 16.32 -26 17 C-26.99 17 -27.98 17 -29 17 C-29 18.98 -29 20.96 -29 23 C-29.66 23 -30.32 23 -31 23 C-31.33 34.55 -31.66 46.1 -32 58 C-31.01 58 -30.02 58 -29 58 C-29 59.65 -29 61.3 -29 63 C-28.01 63 -27.02 63 -26 63 C-26 64.98 -26 66.96 -26 69 C-27.32 69 -28.64 69 -30 69 C-30 67.35 -30 65.7 -30 64 C-30.66 64 -31.32 64 -32 64 C-32.309375 63.195625 -32.61875 62.39125 -32.9375 61.5625 C-33.76335345 59.10919595 -33.76335345 59.10919595 -35 58 C-35.08855161 55.3337397 -35.11524673 52.69352886 -35.09765625 50.02734375 C-35.0962413 49.22970108 -35.09482635 48.43205841 -35.09336853 47.61024475 C-35.08775316 45.05262565 -35.07519812 42.49509282 -35.0625 39.9375 C-35.05748698 38.20768355 -35.05292373 36.47786574 -35.04882812 34.74804688 C-35.03777875 30.49866447 -35.02050386 26.24934688 -35 22 C-34.34 22 -33.68 22 -33 22 C-32.67 20.35 -32.34 18.7 -32 17 C-31.34 17 -30.68 17 -30 17 C-30 16.01 -30 15.02 -30 14 C-29.01 14 -28.02 14 -27 14 C-27 13.01 -27 12.02 -27 11 C-26.01 11 -25.02 11 -24 11 C-24 10.34 -24 9.68 -24 9 C-21.29120665 7.64560332 -18.99066732 7.93498549 -16 8 C-16 7.34 -16 6.68 -16 6 C-15.01 6 -14.02 6 -13 6 C-13 5.01 -13 4.02 -13 3 C-8.71 3 -4.42 3 0 3 C0 2.01 0 1.02 0 0 Z " fill="#544A4B" transform="translate(158,166)"/>
<path d="M0 0 C15.51 0 31.02 0 47 0 C47 0.99 47 1.98 47 3 C33.47 3 19.94 3 6 3 C6 3.66 6 4.32 6 5 C3.36 5.33 0.72 5.66 -2 6 C-2 11.28 -2 16.56 -2 22 C-2.99 22 -3.98 22 -5 22 C-5 23.65 -5 25.3 -5 27 C-5.66 27 -6.32 27 -7 27 C-7 27.99 -7 28.98 -7 30 C-7.99 30 -8.98 30 -10 30 C-10 31.65 -10 33.3 -10 35 C-12.475 35.495 -12.475 35.495 -15 36 C-15 36.66 -15 37.32 -15 38 C-16.98 38 -18.96 38 -21 38 C-21 38.99 -21 39.98 -21 41 C-21.99 41 -22.98 41 -24 41 C-24 41.99 -24 42.98 -24 44 C-25.65 44 -27.3 44 -29 44 C-29 44.66 -29 45.32 -29 46 C-30.98 46 -32.96 46 -35 46 C-35 45.01 -35 44.02 -35 43 C-33.35 43 -31.7 43 -30 43 C-30 42.01 -30 41.02 -30 40 C-28.02 40 -26.04 40 -24 40 C-24 39.34 -24 38.68 -24 38 C-23.34 38 -22.68 38 -22 38 C-22 37.01 -22 36.02 -22 35 C-20.02 35 -18.04 35 -16 35 C-16 34.01 -16 33.02 -16 32 C-15.34 32 -14.68 32 -14 32 C-13.67 31.01 -13.34 30.02 -13 29 C-12.34 29 -11.68 29 -11 29 C-11 28.34 -11 27.68 -11 27 C-10.01 27 -9.02 27 -8 27 C-8 25.02 -8 23.04 -8 21 C-7.34 21 -6.68 21 -6 21 C-6.04125 19.9275 -6.0825 18.855 -6.125 17.75 C-6.00373359 14.11200778 -5.61745319 13.04461777 -4 10 C-3.61250787 7.67504723 -3.27017161 5.34148732 -3 3 C-2.01 2.67 -1.02 2.34 0 2 C0 1.34 0 0.68 0 0 Z " fill="#565454" transform="translate(112,31)"/>
<path d="M0 0 C0.99 0 1.98 0 3 0 C3 1.32 3 2.64 3 4 C2.01 4 1.02 4 0 4 C0 4.66 0 5.32 0 6 C-1.65 6.33 -3.3 6.66 -5 7 C-5 7.66 -5 8.32 -5 9 C-5.99 9 -6.98 9 -8 9 C-8 9.99 -8 10.98 -8 12 C-8.66 12 -9.32 12 -10 12 C-10.33 12.99 -10.66 13.98 -11 15 C-11.66 15 -12.32 15 -13 15 C-13 15.66 -13 16.32 -13 17 C-13.99 17 -14.98 17 -16 17 C-16 17.99 -16 18.98 -16 20 C-16.99 20 -17.98 20 -19 20 C-19 20.99 -19 21.98 -19 23 C-19.66 23 -20.32 23 -21 23 C-21 23.66 -21 24.32 -21 25 C-21.99 25 -22.98 25 -24 25 C-24 25.99 -24 26.98 -24 28 C-24.99 28 -25.98 28 -27 28 C-27 28.99 -27 29.98 -27 31 C-27.66 31 -28.32 31 -29 31 C-29 32.65 -29 34.3 -29 36 C-29.99 36 -30.98 36 -32 36 C-32 37.98 -32 39.96 -32 42 C-34.97 42 -37.94 42 -41 42 C-41 41.67 -41 41.34 -41 41 C-39.35 41 -37.7 41 -36 41 C-35.67 38.36 -35.34 35.72 -35 33 C-34.34 33 -33.68 33 -33 33 C-33 32.01 -33 31.02 -33 30 C-32.01 30 -31.02 30 -30 30 C-30 28.35 -30 26.7 -30 25 C-29.01 25 -28.02 25 -27 25 C-27 24.01 -27 23.02 -27 22 C-26.34 22 -25.68 22 -25 22 C-25 21.01 -25 20.02 -25 19 C-24.01 19 -23.02 19 -22 19 C-22 17.35 -22 15.7 -22 14 C-21.01 14 -20.02 14 -19 14 C-19 12.35 -19 10.7 -19 9 C-17.35 8.67 -15.7 8.34 -14 8 C-14 7.34 -14 6.68 -14 6 C-13.01 6 -12.02 6 -11 6 C-11 5.01 -11 4.02 -11 3 C-9.02 3 -7.04 3 -5 3 C-5 2.34 -5 1.68 -5 1 C-4.34 1 -3.68 1 -3 1 C-3 1.66 -3 2.32 -3 3 C-2.01 3 -1.02 3 0 3 C0 2.01 0 1.02 0 0 Z " fill="#E44448" transform="translate(45,153)"/>
<path d="M0 0 C6.27 0 12.54 0 19 0 C19 0.66 19 1.32 19 2 C19.66 2 20.32 2 21 2 C21 2.99 21 3.98 21 5 C21.99 5 22.98 5 24 5 C24 5.99 24 6.98 24 8 C24.99 8 25.98 8 27 8 C27 8.99 27 9.98 27 11 C24.83125748 10.49396008 23.00032373 10.00016187 21 9 C21 8.01 21 7.02 21 6 C20.01 6 19.02 6 18 6 C18 5.34 18 4.68 18 4 C13.05 4 8.1 4 3 4 C3 4.66 3 5.32 3 6 C2.01 6 1.02 6 0 6 C0 6.99 0 7.98 0 9 C-1.65 9 -3.3 9 -5 9 C-5.33 9.99 -5.66 10.98 -6 12 C-6.66 12 -7.32 12 -8 12 C-8 12.66 -8 13.32 -8 14 C-8.99 14 -9.98 14 -11 14 C-11 14.99 -11 15.98 -11 17 C-11.66 17 -12.32 17 -13 17 C-13.33 17.99 -13.66 18.98 -14 20 C-14.66 20 -15.32 20 -16 20 C-16 20.66 -16 21.32 -16 22 C-16.99 22 -17.98 22 -19 22 C-19 22.99 -19 23.98 -19 25 C-19.99 25 -20.98 25 -22 25 C-22 22.03 -22 19.06 -22 16 C-20.35 16 -18.7 16 -17 16 C-17 14.35 -17 12.7 -17 11 C-16.01 11 -15.02 11 -14 11 C-14 10.01 -14 9.02 -14 8 C-13.01 8 -12.02 8 -11 8 C-11 7.01 -11 6.02 -11 5 C-9.35 5 -7.7 5 -6 5 C-6 4.34 -6 3.68 -6 3 C-4.02 3 -2.04 3 0 3 C0 2.01 0 1.02 0 0 Z " fill="#951215" transform="translate(227,118)"/>
<path d="M0 0 C1.98 0 3.96 0 6 0 C6 0.99 6 1.98 6 3 C5.34 3 4.68 3 4 3 C4 4.65 4 6.3 4 8 C3.01 8 2.02 8 1 8 C1 9.98 1 11.96 1 14 C0.01 14 -0.98 14 -2 14 C-2 15.65 -2 17.3 -2 19 C-2.66 19 -3.32 19 -4 19 C-4.33 19.99 -4.66 20.98 -5 22 C-8.3 22 -11.6 22 -15 22 C-15.33 22.99 -15.66 23.98 -16 25 C-16.66 25 -17.32 25 -18 25 C-18 25.66 -18 26.32 -18 27 C-18.99 27 -19.98 27 -21 27 C-21 27.99 -21 28.98 -21 30 C-21.66 30 -22.32 30 -23 30 C-23 30.66 -23 31.32 -23 32 C-24.32 32 -25.64 32 -27 32 C-27 31.34 -27 30.68 -27 30 C-26.01 30 -25.02 30 -24 30 C-24 28.02 -24 26.04 -24 24 C-22.35 24 -20.7 24 -19 24 C-19 22.02 -19 20.04 -19 18 C-16.03 18 -13.06 18 -10 18 C-10 17.34 -10 16.68 -10 16 C-9.34 16 -8.68 16 -8 16 C-8 15.01 -8 14.02 -8 13 C-7.01 13 -6.02 13 -5 13 C-5 11.35 -5 9.7 -5 8 C-4.01 8 -3.02 8 -2 8 C-2 7.01 -2 6.02 -2 5 C-1.34 5 -0.68 5 0 5 C0 3.35 0 1.7 0 0 Z " fill="#460000" transform="translate(286,113)"/>
<path d="M0 0 C4.62 0 9.24 0 14 0 C13.01 0.33 12.02 0.66 11 1 C11 1.66 11 2.32 11 3 C8.36 3.33 5.72 3.66 3 4 C3 4.66 3 5.32 3 6 C1.35 6 -0.3 6 -2 6 C-2 6.99 -2 7.98 -2 9 C-3.98 9 -5.96 9 -8 9 C-8 9.99 -8 10.98 -8 12 C-9.65 12 -11.3 12 -13 12 C-13 12.66 -13 13.32 -13 14 C-14.65 14 -16.3 14 -18 14 C-18.33 14.99 -18.66 15.98 -19 17 C-19.99 17 -20.98 17 -22 17 C-22 15.68 -22 14.36 -22 13 C-21.01 13 -20.02 13 -19 13 C-19 11.35 -19 9.7 -19 8 C-18.34 8 -17.68 8 -17 8 C-17 7.01 -17 6.02 -17 5 C-15.02 5 -13.04 5 -11 5 C-11 4.34 -11 3.68 -11 3 C-7.37 3 -3.74 3 0 3 C0 2.01 0 1.02 0 0 Z " fill="#D6292B" transform="translate(72,137)"/>
<path d="M0 0 C12.54 0 25.08 0 38 0 C38 0.99 38 1.98 38 3 C28.43 3 18.86 3 9 3 C9 3.99 9 4.98 9 6 C2.73 6 -3.54 6 -10 6 C-10 6.66 -10 7.32 -10 8 C-11.98 8 -13.96 8 -16 8 C-16 7.34 -16 6.68 -16 6 C-15.01 6 -14.02 6 -13 6 C-13 5.01 -13 4.02 -13 3 C-8.71 3 -4.42 3 0 3 C0 2.01 0 1.02 0 0 Z " fill="#BE1117" transform="translate(96,129)"/>
<path d="M0 0 C1.32 0 2.64 0 4 0 C4 0.99 4 1.98 4 3 C3.01 3 2.02 3 1 3 C1 3.99 1 4.98 1 6 C-0.65 6 -2.3 6 -4 6 C-4 6.66 -4 7.32 -4 8 C-4.99 8 -5.98 8 -7 8 C-7 8.99 -7 9.98 -7 11 C-7.99 11 -8.98 11 -10 11 C-10 11.99 -10 12.98 -10 14 C-10.99 14 -11.98 14 -13 14 C-13 14.99 -13 15.98 -13 17 C-13.66 17 -14.32 17 -15 17 C-15 17.66 -15 18.32 -15 19 C-15.99 19 -16.98 19 -18 19 C-18 20.98 -18 22.96 -18 25 C-19.65 25 -21.3 25 -23 25 C-23 26.65 -23 28.3 -23 30 C-23.99 30 -24.98 30 -26 30 C-26 31.65 -26 33.3 -26 35 C-26.99 35 -27.98 35 -29 35 C-29 35.99 -29 36.98 -29 38 C-29.99 38 -30.98 38 -32 38 C-32 36.02 -32 34.04 -32 32 C-31.34 32 -30.68 32 -30 32 C-29.67 31.01 -29.34 30.02 -29 29 C-28.34 29 -27.68 29 -27 29 C-27 27.35 -27 25.7 -27 24 C-26.01 24 -25.02 24 -24 24 C-24 23.01 -24 22.02 -24 21 C-23.01 21 -22.02 21 -21 21 C-21 20.34 -21 19.68 -21 19 C-20.34 19 -19.68 19 -19 19 C-19 18.01 -19 17.02 -19 16 C-18.01 16 -17.02 16 -16 16 C-16 15.01 -16 14.02 -16 13 C-15.01 13 -14.02 13 -13 13 C-13 12.34 -13 11.68 -13 11 C-11.625 9.375 -11.625 9.375 -10 8 C-9.34 8 -8.68 8 -8 8 C-8 7.01 -8 6.02 -8 5 C-7.01 5 -6.02 5 -5 5 C-5 4.01 -5 3.02 -5 2 C-3.35 2 -1.7 2 0 2 C0 1.34 0 0.68 0 0 Z " fill="#C2C2C2" transform="translate(52,88)"/>
<path d="M0 0 C0 3.96 0 7.92 0 12 C-0.66 12 -1.32 12 -2 12 C-1.979375 13.258125 -1.95875 14.51625 -1.9375 15.8125 C-1.89113917 18.64051087 -2.08307039 20.24921116 -3 23 C-3.66 23 -4.32 23 -5 23 C-5 26.63 -5 30.26 -5 34 C-5.99 34 -6.98 34 -8 34 C-8 38.95 -8 43.9 -8 49 C-8.99 48.67 -9.98 48.34 -11 48 C-11 42.39 -11 36.78 -11 31 C-10.34 31 -9.68 31 -9 31 C-9 29.35 -9 27.7 -9 26 C-8.01 25.67 -7.02 25.34 -6 25 C-6 20.71 -6 16.42 -6 12 C-5.01 11.67 -4.02 11.34 -3 11 C-3 7.7 -3 4.4 -3 1 C-1 0 -1 0 0 0 Z " fill="#626262" transform="translate(12,144)"/>
<path d="M0 0 C1.98 0 3.96 0 6 0 C6.33 0.99 6.66 1.98 7 3 C7.66 3 8.32 3 9 3 C9 10.26 9 17.52 9 25 C9.99 25 10.98 25 12 25 C12 25.99 12 26.98 12 28 C10.68 28 9.36 28 8 28 C8 27.34 8 26.68 8 26 C7.34 26 6.68 26 6 26 C6 18.74 6 11.48 6 4 C4.35 4 2.7 4 1 4 C0.67 4.99 0.34 5.98 0 7 C-0.66 7 -1.32 7 -2 7 C-2 7.66 -2 8.32 -2 9 C-2.99 9 -3.98 9 -5 9 C-5 9.99 -5 10.98 -5 12 C-5.99 12 -6.98 12 -8 12 C-8 12.66 -8 13.32 -8 14 C-8.99 14 -9.98 14 -11 14 C-11 13.01 -11 12.02 -11 11 C-10.01 11 -9.02 11 -8 11 C-8 10.34 -8 9.68 -8 9 C-6.625 7.375 -6.625 7.375 -5 6 C-4.34 6 -3.68 6 -3 6 C-3 5.01 -3 4.02 -3 3 C-2.01 3 -1.02 3 0 3 C0 2.01 0 1.02 0 0 Z " fill="#6A0205" transform="translate(237,166)"/>
<path d="M0 0 C7.26 0 14.52 0 22 0 C22 0.99 22 1.98 22 3 C18.98509443 4.00496852 16.95818308 4.10335303 13.8125 4.0625 C12.91144531 4.05347656 12.01039063 4.04445312 11.08203125 4.03515625 C10.39496094 4.02355469 9.70789063 4.01195312 9 4 C8.67 4.99 8.34 5.98 8 7 C5.69 7 3.38 7 1 7 C1 7.66 1 8.32 1 9 C-0.98 9 -2.96 9 -5 9 C-5 7.02 -5 5.04 -5 3 C-3.35 3 -1.7 3 0 3 C0 2.01 0 1.02 0 0 Z " fill="#500000" transform="translate(164,218)"/>
<path d="M0 0 C0.99 0 1.98 0 3 0 C3 10.89 3 21.78 3 33 C3.99 33 4.98 33 6 33 C6 34.65 6 36.3 6 38 C6.99 38 7.98 38 9 38 C9 39.98 9 41.96 9 44 C7.68 44 6.36 44 5 44 C5 42.35 5 40.7 5 39 C4.34 39 3.68 39 3 39 C2.690625 38.195625 2.38125 37.39125 2.0625 36.5625 C1.23664655 34.10919595 1.23664655 34.10919595 0 33 C-0.08843793 30.55169574 -0.11528752 28.13179401 -0.09765625 25.68359375 C-0.0962413 24.95253922 -0.09482635 24.22148468 -0.09336853 23.46827698 C-0.08775408 21.12464368 -0.07519922 18.78110461 -0.0625 16.4375 C-0.05748686 14.85221492 -0.05292363 13.26692834 -0.04882812 11.68164062 C-0.03777997 7.7877239 -0.02050572 3.89387795 0 0 Z " fill="#2C2C2C" transform="translate(123,191)"/>
<path d="M0 0 C1.98 0 3.96 0 6 0 C6 0.99 6 1.98 6 3 C4.35 3 2.7 3 1 3 C0.67 3.99 0.34 4.98 0 6 C-0.66 6 -1.32 6 -2 6 C-2 6.66 -2 7.32 -2 8 C-2.99 8 -3.98 8 -5 8 C-5 8.99 -5 9.98 -5 11 C-5.66 11 -6.32 11 -7 11 C-7.33 11.99 -7.66 12.98 -8 14 C-8.66 14 -9.32 14 -10 14 C-10 14.66 -10 15.32 -10 16 C-10.99 16 -11.98 16 -13 16 C-13 16.99 -13 17.98 -13 19 C-13.99 19 -14.98 19 -16 19 C-16 16.03 -16 13.06 -16 10 C-14.35 10 -12.7 10 -11 10 C-11 8.35 -11 6.7 -11 5 C-10.01 5 -9.02 5 -8 5 C-8 4.01 -8 3.02 -8 2 C-5.36 2 -2.72 2 0 2 C0 1.34 0 0.68 0 0 Z " fill="#DA3C41" transform="translate(221,124)"/>
<path d="M0 0 C15.51 0 31.02 0 47 0 C47 0.99 47 1.98 47 3 C31.49 3 15.98 3 0 3 C0 2.01 0 1.02 0 0 Z " fill="#DDDDDD" transform="translate(112,31)"/>
<path d="M0 0 C14.52 0 29.04 0 44 0 C44 0.99 44 1.98 44 3 C29.48 3 14.96 3 0 3 C0 2.01 0 1.02 0 0 Z " fill="#EA4A4C" transform="translate(115,142)"/>
<path d="M0 0 C0.33 0.99 0.66 1.98 1 3 C8.92 3 16.84 3 25 3 C25 3.99 25 4.98 25 6 C19.39 6 13.78 6 8 6 C8 5.34 8 4.68 8 4 C-1.9 4 -11.8 4 -22 4 C-22 3.01 -22 2.02 -22 1 C-19.27093526 0.83150207 -16.54176829 0.6651397 -13.8125 0.5 C-13.04357422 0.45230469 -12.27464844 0.40460937 -11.48242188 0.35546875 C-7.648496 0.12510411 -3.84309823 -0.0616128 0 0 Z " fill="#353535" transform="translate(164,33)"/>
<path d="M0 0 C0.99 0 1.98 0 3 0 C3 0.99 3 1.98 3 3 C2.34 3 1.68 3 1 3 C1 3.99 1 4.98 1 6 C-0.98 6 -2.96 6 -5 6 C-5 6.66 -5 7.32 -5 8 C-5.66 8 -6.32 8 -7 8 C-7.33 8.99 -7.66 9.98 -8 11 C-8.66 11 -9.32 11 -10 11 C-10 11.99 -10 12.98 -10 14 C-10.99 14 -11.98 14 -13 14 C-14.41377341 16.63904371 -15.37240135 19.07120629 -16 22 C-16.66 22 -17.32 22 -18 22 C-18 22.99 -18 23.98 -18 25 C-18.99 25 -19.98 25 -21 25 C-21 26.65 -21 28.3 -21 30 C-21.99 30 -22.98 30 -24 30 C-24 28.02 -24 26.04 -24 24 C-23.34 24 -22.68 24 -22 24 C-22 23.01 -22 22.02 -22 21 C-21.01 21 -20.02 21 -19 21 C-19 19.35 -19 17.7 -19 16 C-18.01 16 -17.02 16 -16 16 C-16 15.01 -16 14.02 -16 13 C-15.01 13 -14.02 13 -13 13 C-13 12.01 -13 11.02 -13 10 C-12.34 10 -11.68 10 -11 10 C-11 9.34 -11 8.68 -11 8 C-10.01 8 -9.02 8 -8 8 C-8 7.01 -8 6.02 -8 5 C-7.01 5 -6.02 5 -5 5 C-5 4.34 -5 3.68 -5 3 C-3.35 2.67 -1.7 2.34 0 2 C0 1.34 0 0.68 0 0 Z " fill="#F07C7D" transform="translate(118,170)"/>
<path d="M0 0 C3.63 0 7.26 0 11 0 C11 0.99 11 1.98 11 3 C12.19625 2.938125 13.3925 2.87625 14.625 2.8125 C18.73497595 2.79056063 21.4478261 3.86869566 25 6 C25 6.66 25 7.32 25 8 C26.65 8 28.3 8 30 8 C30 8.99 30 9.98 30 11 C31.98 11 33.96 11 36 11 C36 11.99 36 12.98 36 14 C34.02 14 32.04 14 30 14 C30 13.34 30 12.68 30 12 C27.03 11.505 27.03 11.505 24 11 C24 10.34 24 9.68 24 9 C22.35 9 20.7 9 19 9 C19 8.01 19 7.02 19 6 C16.36 6 13.72 6 11 6 C11 5.34 11 4.68 11 4 C7.37 3.67 3.74 3.34 0 3 C0 2.01 0 1.02 0 0 Z " fill="#999999" transform="translate(243,55)"/>
<path d="M0 0 C4.29 0.33 8.58 0.66 13 1 C13 1.66 13 2.32 13 3 C15.97 3 18.94 3 22 3 C22 3.99 22 4.98 22 6 C26.29 6 30.58 6 35 6 C35 5.01 35 4.02 35 3 C35.99 3 36.98 3 38 3 C38 4.98 38 6.96 38 9 C31.56480384 9.20946389 26.10070838 9.11657229 20 7 C18.66869885 6.65864073 17.33641852 6.32074044 16 6 C16 5.34 16 4.68 16 4 C10.72 4 5.44 4 0 4 C0 2.68 0 1.36 0 0 Z " fill="#AA0404" transform="translate(167,134)"/>
<path d="M0 0 C3.63 0 7.26 0 11 0 C11 0.66 11 1.32 11 2 C14.3 2 17.6 2 21 2 C21.33 2.99 21.66 3.98 22 5 C23.65 5 25.3 5 27 5 C28.35439668 7.70879335 28.06501451 10.00933268 28 13 C26.68 13.33 25.36 13.66 24 14 C24 12.02 24 10.04 24 8 C23.34 8 22.68 8 22 8 C22 7.34 22 6.68 22 6 C20.02 6 18.04 6 16 6 C15.67 6.99 15.34 7.98 15 9 C14.34 8.67 13.68 8.34 13 8 C13 6.35 13 4.7 13 3 C8.71 3 4.42 3 0 3 C0 2.01 0 1.02 0 0 Z " fill="#E93236" transform="translate(170,145)"/>
<path d="M0 0 C0.99 0.33 1.98 0.66 3 1 C3 4.63 3 8.26 3 12 C2.01 12 1.02 12 0 12 C0 12.99 0 13.98 0 15 C-0.99 15 -1.98 15 -3 15 C-3 15.99 -3 16.98 -3 18 C-3.66 18 -4.32 18 -5 18 C-5 18.66 -5 19.32 -5 20 C-6.98 20.33 -8.96 20.66 -11 21 C-11 21.66 -11 22.32 -11 23 C-11.99 23 -12.98 23 -14 23 C-14 23.99 -14 24.98 -14 26 C-14.66 26 -15.32 26 -16 26 C-16.33 26.99 -16.66 27.98 -17 29 C-18.32 28.67 -19.64 28.34 -21 28 C-20.505 26.515 -20.505 26.515 -20 25 C-19.01 25 -18.02 25 -17 25 C-17 24.01 -17 23.02 -17 22 C-16.01 22 -15.02 22 -14 22 C-14 21.34 -14 20.68 -14 20 C-13.01 20 -12.02 20 -11 20 C-11 19.01 -11 18.02 -11 17 C-9.35 17 -7.7 17 -6 17 C-6 16.01 -6 15.02 -6 14 C-5.34 14 -4.68 14 -4 14 C-4 13.34 -4 12.68 -4 12 C-3.01 12 -2.02 12 -1 12 C-1 10.02 -1 8.04 -1 6 C-0.01 6 0.98 6 2 6 C2 5.34 2 4.68 2 4 C1.34 4 0.68 4 0 4 C0 2.68 0 1.36 0 0 Z " fill="#F1A8A8" transform="translate(249,196)"/>
<path d="M0 0 C1.98 0 3.96 0 6 0 C6 0.99 6 1.98 6 3 C5.34 3 4.68 3 4 3 C4 4.65 4 6.3 4 8 C3.01 8 2.02 8 1 8 C1 9.98 1 11.96 1 14 C0.01 14 -0.98 14 -2 14 C-2 15.65 -2 17.3 -2 19 C-2.66 19 -3.32 19 -4 19 C-4.33 19.99 -4.66 20.98 -5 22 C-5.99 22 -6.98 22 -8 22 C-8 21.01 -8 20.02 -8 19 C-7.01 19 -6.02 19 -5 19 C-5 15.37 -5 11.74 -5 8 C-4.01 8 -3.02 8 -2 8 C-2 7.01 -2 6.02 -2 5 C-1.34 5 -0.68 5 0 5 C0 3.35 0 1.7 0 0 Z " fill="#A31012" transform="translate(286,113)"/>
<path d="M0 0 C11.55 0 23.1 0 35 0 C35 0.99 35 1.98 35 3 C23.45 3 11.9 3 0 3 C0 2.01 0 1.02 0 0 Z " fill="#3B0000" transform="translate(105,126)"/>
<path d="M0 0 C0.99 0 1.98 0 3 0 C3 0.66 3 1.32 3 2 C3.66 2 4.32 2 5 2 C5 2.99 5 3.98 5 5 C5.99 5 6.98 5 8 5 C8 5.99 8 6.98 8 8 C8.99 8 9.98 8 11 8 C11 10.97 11 13.94 11 17 C10.01 17 9.02 17 8 17 C8 17.99 8 18.98 8 20 C4.37 20 0.74 20 -3 20 C-3 20.66 -3 21.32 -3 22 C-3.99 22 -4.98 22 -6 22 C-6 21.01 -6 20.02 -6 19 C-3.36 19 -0.72 19 2 19 C2 18.01 2 17.02 2 16 C3.98 16 5.96 16 8 16 C8 14.35 8 12.7 8 11 C7.01 11 6.02 11 5 11 C4.67 9.35 4.34 7.7 4 6 C3.34 6 2.68 6 2 6 C2 4.68 2 3.36 2 2 C1.34 2 0.68 2 0 2 C0 1.34 0 0.68 0 0 Z " fill="#E46869" transform="translate(97,251)"/>
<path d="M0 0 C0.99 0 1.98 0 3 0 C3 2.64 3 5.28 3 8 C3.66 8 4.32 8 5 8 C5 6.02 5 4.04 5 2 C6.98 2 8.96 2 11 2 C11 2.99 11 3.98 11 5 C10.01 5 9.02 5 8 5 C8 5.99 8 6.98 8 8 C7.34 8 6.68 8 6 8 C5.67 10.64 5.34 13.28 5 16 C3.02 16 1.04 16 -1 16 C-0.67 10.72 -0.34 5.44 0 0 Z " fill="#6C0205" transform="translate(4,178)"/>
<path d="M0 0 C3 0 3 0 4.6875 1.3125 C6 3 6 3 6 6 C6.99 6 7.98 6 9 6 C9 6.66 9 7.32 9 8 C13.29 8 17.58 8 22 8 C22 9.32 22 10.64 22 12 C20.02 12 18.04 12 16 12 C16 11.01 16 10.02 16 9 C10.72 9 5.44 9 0 9 C0 6.03 0 3.06 0 0 Z " fill="#620C0C" transform="translate(213,44)"/>
<path d="M0 0 C0.99 0 1.98 0 3 0 C3 1.32 3 2.64 3 4 C2.01 4 1.02 4 0 4 C0 4.66 0 5.32 0 6 C-1.65 6.33 -3.3 6.66 -5 7 C-5 7.66 -5 8.32 -5 9 C-5.99 9 -6.98 9 -8 9 C-8 9.99 -8 10.98 -8 12 C-8.66 12 -9.32 12 -10 12 C-10.33 12.99 -10.66 13.98 -11 15 C-11.66 15 -12.32 15 -13 15 C-13 15.66 -13 16.32 -13 17 C-13.99 17 -14.98 17 -16 17 C-16 16.01 -16 15.02 -16 14 C-15.34 14 -14.68 14 -14 14 C-14 13.01 -14 12.02 -14 11 C-13.01 11 -12.02 11 -11 11 C-11 10.01 -11 9.02 -11 8 C-10.01 8 -9.02 8 -8 8 C-8 6.35 -8 4.7 -8 3 C-7.01 3 -6.02 3 -5 3 C-5 2.34 -5 1.68 -5 1 C-4.34 1 -3.68 1 -3 1 C-3 1.66 -3 2.32 -3 3 C-2.01 3 -1.02 3 0 3 C0 2.01 0 1.02 0 0 Z " fill="#F29B9B" transform="translate(45,153)"/>
<path d="M0 0 C0.99 0 1.98 0 3 0 C3 0.66 3 1.32 3 2 C4.98 2 6.96 2 9 2 C9 2.99 9 3.98 9 5 C9.99 5 10.98 5 12 5 C12 5.99 12 6.98 12 8 C13.65 8 15.3 8 17 8 C17 8.66 17 9.32 17 10 C17.99 10 18.98 10 20 10 C20 10.99 20 11.98 20 13 C21.65 13 23.3 13 25 13 C25 13.99 25 14.98 25 16 C24.01 16 23.02 16 22 16 C22 15.34 22 14.68 22 14 C20.35 14 18.7 14 17 14 C16.67 13.34 16.34 12.68 16 12 C13.47266765 11.34444881 13.47266765 11.34444881 11 11 C11 10.01 11 9.02 11 8 C10.01 8 9.02 8 8 8 C8 7.34 8 6.68 8 6 C6.35 5.67 4.7 5.34 3 5 C3 4.34 3 3.68 3 3 C2.01 3 1.02 3 0 3 C0 2.01 0 1.02 0 0 Z " fill="#E48789" transform="translate(25,48)"/>
<path d="M0 0 C0.99 0 1.98 0 3 0 C3 0.66 3 1.32 3 2 C3.99 2 4.98 2 6 2 C6 2.99 6 3.98 6 5 C12.93 5 19.86 5 27 5 C27 5.99 27 6.98 27 8 C20.07 8 13.14 8 6 8 C6 7.34 6 6.68 6 6 C5.01 6 4.02 6 3 6 C3 5.01 3 4.02 3 3 C2.01 3 1.02 3 0 3 C0 2.01 0 1.02 0 0 Z " fill="#9A9A9A" transform="translate(194,175)"/>
<path d="M0 0 C0.99 0 1.98 0 3 0 C4.11165232 4.4378561 4.11527763 8.76956386 4.0625 13.3125 C4.05798828 14.05306641 4.05347656 14.79363281 4.04882812 15.55664062 C4.03712175 17.37112899 4.01918898 19.18557534 4 21 C2.68 21.33 1.36 21.66 0 22 C0 14.74 0 7.48 0 0 Z " fill="#E50C0D" transform="translate(85,208)"/>
<path d="M0 0 C0.99 0 1.98 0 3 0 C3 1.65 3 3.3 3 5 C2.01 5 1.02 5 0 5 C0 5.99 0 6.98 0 8 C-0.99 8 -1.98 8 -3 8 C-3 8.99 -3 9.98 -3 11 C-3.66 11 -4.32 11 -5 11 C-5 11.99 -5 12.98 -5 14 C-5.99 14 -6.98 14 -8 14 C-8 14.66 -8 15.32 -8 16 C-8.99 16 -9.98 16 -11 16 C-11 14.35 -11 12.7 -11 11 C-10.01 11 -9.02 11 -8 11 C-8 9.35 -8 7.7 -8 6 C-6.35 5.67 -4.7 5.34 -3 5 C-3 4.34 -3 3.68 -3 3 C-2.01 3 -1.02 3 0 3 C0 2.01 0 1.02 0 0 Z " fill="#A31113" transform="translate(34,156)"/>
<path d="M0 0 C2.97 0 5.94 0 9 0 C9 0.66 9 1.32 9 2 C7.02 2 5.04 2 3 2 C3 3.32 3 4.64 3 6 C-1.29 6 -5.58 6 -10 6 C-10 6.66 -10 7.32 -10 8 C-11.98 8 -13.96 8 -16 8 C-16 7.34 -16 6.68 -16 6 C-15.01 6 -14.02 6 -13 6 C-13 5.01 -13 4.02 -13 3 C-8.71 3 -4.42 3 0 3 C0 2.01 0 1.02 0 0 Z " fill="#960A0D" transform="translate(96,129)"/>
<path d="M0 0 C0.99 0 1.98 0 3 0 C3 0.99 3 1.98 3 3 C1.35 3 -0.3 3 -2 3 C-2 4.65 -2 6.3 -2 8 C-2.99 8 -3.98 8 -5 8 C-5 9.65 -5 11.3 -5 13 C-5.99 13 -6.98 13 -8 13 C-8 13.99 -8 14.98 -8 16 C-8.99 16 -9.98 16 -11 16 C-11 14.02 -11 12.04 -11 10 C-10.34 10 -9.68 10 -9 10 C-8.67 9.01 -8.34 8.02 -8 7 C-7.34 7 -6.68 7 -6 7 C-6 5.35 -6 3.7 -6 2 C-4.02 2 -2.04 2 0 2 C0 1.34 0 0.68 0 0 Z " fill="#989696" transform="translate(31,110)"/>
<path d="M0 0 C0.99 0 1.98 0 3 0 C3 1.98 3 3.96 3 6 C2.34 6 1.68 6 1 6 C1 6.99 1 7.98 1 9 C0.01 9 -0.98 9 -2 9 C-2 9.66 -2 10.32 -2 11 C-2.99 11 -3.98 11 -5 11 C-5 13.97 -5 16.94 -5 20 C-5.99 20 -6.98 20 -8 20 C-8.08131463 18.56344146 -8.13933559 17.1255517 -8.1875 15.6875 C-8.22230469 14.88699219 -8.25710937 14.08648437 -8.29296875 13.26171875 C-8 11 -8 11 -6.61328125 9.20703125 C-5 8 -5 8 -3 8 C-3 7.01 -3 6.02 -3 5 C-2.01 5 -1.02 5 0 5 C0 3.35 0 1.7 0 0 Z " fill="#ED9497" transform="translate(28,180)"/>
<path d="M0 0 C0.99 0 1.98 0 3 0 C3 0.99 3 1.98 3 3 C2.01 3 1.02 3 0 3 C0 3.99 0 4.98 0 6 C-1.65 6 -3.3 6 -5 6 C-5 6.66 -5 7.32 -5 8 C-6.65 8.33 -8.3 8.66 -10 9 C-10 9.66 -10 10.32 -10 11 C-11.98 11 -13.96 11 -16 11 C-16 10.01 -16 9.02 -16 8 C-14.35 8 -12.7 8 -11 8 C-11 7.01 -11 6.02 -11 5 C-9.35 5 -7.7 5 -6 5 C-5.67 4.01 -5.34 3.02 -5 2 C-3.35 2 -1.7 2 0 2 C0 1.34 0 0.68 0 0 Z " fill="#ED7A7C" transform="translate(66,153)"/>
<path d="M0 0 C3.63 0 7.26 0 11 0 C11 0.66 11 1.32 11 2 C11.66 2 12.32 2 13 2 C13 2.99 13 3.98 13 5 C13.99 5 14.98 5 16 5 C16 5.99 16 6.98 16 8 C16.99 8 17.98 8 19 8 C19 8.99 19 9.98 19 11 C16.83125748 10.49396008 15.00032373 10.00016187 13 9 C13 8.01 13 7.02 13 6 C12.01 6 11.02 6 10 6 C10 5.34 10 4.68 10 4 C6.7 3.67 3.4 3.34 0 3 C0 2.01 0 1.02 0 0 Z " fill="#870C14" transform="translate(235,118)"/>
<path d="M0 0 C1.98 0 3.96 0 6 0 C6 0.99 6 1.98 6 3 C5.01 3 4.02 3 3 3 C3 3.99 3 4.98 3 6 C1.02 6 -0.96 6 -3 6 C-3 6.66 -3 7.32 -3 8 C-4.65 8.33 -6.3 8.66 -8 9 C-8 9.66 -8 10.32 -8 11 C-8.99 11 -9.98 11 -11 11 C-11 10.01 -11 9.02 -11 8 C-10.01 8 -9.02 8 -8 8 C-8 7.01 -8 6.02 -8 5 C-6.35 5 -4.7 5 -3 5 C-2.67 4.01 -2.34 3.02 -2 2 C-1.34 2 -0.68 2 0 2 C0 1.34 0 0.68 0 0 Z " fill="#858585" transform="translate(69,77)"/>
<path d="M0 0 C7.26 0 14.52 0 22 0 C21.67 0.99 21.34 1.98 21 3 C14.07 3 7.14 3 0 3 C0 2.01 0 1.02 0 0 Z " fill="#EB090B" transform="translate(45,45)"/>
<path d="M0 0 C0.33 1.32 0.66 2.64 1 4 C0.01 4 -0.98 4 -2 4 C-2 4.99 -2 5.98 -2 7 C-2.66 7 -3.32 7 -4 7 C-4 7.66 -4 8.32 -4 9 C-4.99 9 -5.98 9 -7 9 C-7 10.98 -7 12.96 -7 15 C-7.66 15 -8.32 15 -9 15 C-9 15.66 -9 16.32 -9 17 C-10.32 17 -11.64 17 -13 17 C-13 16.01 -13 15.02 -13 14 C-12.34 14 -11.68 14 -11 14 C-10.67 12.35 -10.34 10.7 -10 9 C-9.34 9 -8.68 9 -8 9 C-8 8.01 -8 7.02 -8 6 C-7.01 6 -6.02 6 -5 6 C-5 5.01 -5 4.02 -5 3 C-4.01 3 -3.02 3 -2 3 C-2 2.34 -2 1.68 -2 1 C-1.34 0.67 -0.68 0.34 0 0 Z " fill="#C1C1C1" transform="translate(136,174)"/>
<path d="M0 0 C5.61 0 11.22 0 17 0 C17 0.99 17 1.98 17 3 C13.37 3 9.74 3 6 3 C6 3.99 6 4.98 6 6 C5.01 6 4.02 6 3 6 C3 5.34 3 4.68 3 4 C2.01 4 1.02 4 0 4 C0 2.68 0 1.36 0 0 Z " fill="#ED3F42" transform="translate(25,44)"/>
<path d="M0 0 C4.62 0 9.24 0 14 0 C14 0.99 14 1.98 14 3 C2.45 3 -9.1 3 -21 3 C-21 2.67 -21 2.34 -21 2 C-14.07 2 -7.14 2 0 2 C0 1.34 0 0.68 0 0 Z " fill="#B85E5F" transform="translate(82,39)"/>
<path d="M0 0 C1.32 0 2.64 0 4 0 C4 0.99 4 1.98 4 3 C3.01 3 2.02 3 1 3 C1 3.99 1 4.98 1 6 C0.01 6 -0.98 6 -2 6 C-2 6.99 -2 7.98 -2 9 C-3.65 9 -5.3 9 -7 9 C-7 9.66 -7 10.32 -7 11 C-8.98 11 -10.96 11 -13 11 C-13 10.01 -13 9.02 -13 8 C-11.35 8 -9.7 8 -8 8 C-8 7.01 -8 6.02 -8 5 C-6.02 5 -4.04 5 -2 5 C-2 4.34 -2 3.68 -2 3 C-1.34 3 -0.68 3 0 3 C0 2.01 0 1.02 0 0 Z " fill="#C6C4C4" transform="translate(90,66)"/>
<path d="M0 0 C1.98 0 3.96 0 6 0 C6 0.66 6 1.32 6 2 C5.01 2 4.02 2 3 2 C3 2.99 3 3.98 3 5 C2.01 5 1.02 5 0 5 C-0.33 6.32 -0.66 7.64 -1 9 C-3.31 8.67 -5.62 8.34 -8 8 C-8 7.01 -8 6.02 -8 5 C-7.01 5 -6.02 5 -5 5 C-5 4.01 -5 3.02 -5 2 C-3.35 2 -1.7 2 0 2 C0 1.34 0 0.68 0 0 Z " fill="#B5080C" transform="translate(229,216)"/>
<path d="M0 0 C0.99 0 1.98 0 3 0 C3 1.32 3 2.64 3 4 C2.34 4 1.68 4 1 4 C1 6.64 1 9.28 1 12 C0.01 12 -0.98 12 -2 12 C-2 13.65 -2 15.3 -2 17 C-2.99 17 -3.98 17 -5 17 C-5 15.02 -5 13.04 -5 11 C-4.34 11 -3.68 11 -3 11 C-2.67 8.36 -2.34 5.72 -2 3 C-1.34 3 -0.68 3 0 3 C0 2.01 0 1.02 0 0 Z " fill="#EC5153" transform="translate(297,96)"/>
<path d="M0 0 C3.63 0 7.26 0 11 0 C11 0.99 11 1.98 11 3 C13.64 3 16.28 3 19 3 C19 3.99 19 4.98 19 6 C16.36 6 13.72 6 11 6 C11 5.34 11 4.68 11 4 C7.37 3.67 3.74 3.34 0 3 C0 2.01 0 1.02 0 0 Z " fill="#B1B0B0" transform="translate(243,55)"/>
<path d="M0 0 C3.96 0 7.92 0 12 0 C12 0.66 12 1.32 12 2 C14.31 2 16.62 2 19 2 C19.33 3.32 19.66 4.64 20 6 C18.02 6 16.04 6 14 6 C14 5.01 14 4.02 14 3 C9.38 3 4.76 3 0 3 C0 2.01 0 1.02 0 0 Z " fill="#7F7C7C" transform="translate(191,39)"/>
<path d="M0 0 C1.32 0 2.64 0 4 0 C4 0.99 4 1.98 4 3 C2.02 3 0.04 3 -2 3 C-2 3.99 -2 4.98 -2 6 C-3.65 6 -5.3 6 -7 6 C-7 6.66 -7 7.32 -7 8 C-8.65 8 -10.3 8 -12 8 C-12.33 8.99 -12.66 9.98 -13 11 C-13.99 11 -14.98 11 -16 11 C-16 9.68 -16 8.36 -16 7 C-15.01 7 -14.02 7 -13 7 C-13 6.34 -13 5.68 -13 5 C-10.36 5 -7.72 5 -5 5 C-5 4.01 -5 3.02 -5 2 C-3.35 2 -1.7 2 0 2 C0 1.34 0 0.68 0 0 Z " fill="#E58788" transform="translate(66,143)"/>
<path d="M0 0 C3.63 0 7.26 0 11 0 C11 0.99 11 1.98 11 3 C8.36 3 5.72 3 3 3 C3 4.32 3 5.64 3 7 C0.36 6.67 -2.28 6.34 -5 6 C-5 5.01 -5 4.02 -5 3 C-3.35 3 -1.7 3 0 3 C0 2.01 0 1.02 0 0 Z " fill="#EC1114" transform="translate(88,267)"/>
<path d="M0 0 C4.29 0.33 8.58 0.66 13 1 C13 1.66 13 2.32 13 3 C14.98 3 16.96 3 19 3 C19 3.99 19 4.98 19 6 C18.01 6 17.02 6 16 6 C16 5.34 16 4.68 16 4 C10.72 4 5.44 4 0 4 C0 2.68 0 1.36 0 0 Z " fill="#BF5050" transform="translate(167,134)"/>
<path d="M0 0 C0.99 0 1.98 0 3 0 C3 0.99 3 1.98 3 3 C5.64 3 8.28 3 11 3 C11 3.99 11 4.98 11 6 C11.99 6 12.98 6 14 6 C14 6.66 14 7.32 14 8 C14.99 8 15.98 8 17 8 C17 8.99 17 9.98 17 11 C17.66 11 18.32 11 19 11 C19 11.99 19 12.98 19 14 C18.01 14 17.02 14 16 14 C16 13.34 16 12.68 16 12 C15.01 11.67 14.02 11.34 13 11 C13 10.34 13 9.68 13 9 C12.34 9 11.68 9 11 9 C9.375 7.625 9.375 7.625 8 6 C8 5.34 8 4.68 8 4 C5.69 4 3.38 4 1 4 C0.67 2.68 0.34 1.36 0 0 Z " fill="#AB7F81" transform="translate(183,221)"/>
<path d="M0 0 C6.27 0 12.54 0 19 0 C19 0.99 19 1.98 19 3 C12.73 3 6.46 3 0 3 C0 2.01 0 1.02 0 0 Z " fill="#EB0303" transform="translate(72,42)"/>
<path d="M0 0 C2.69082872 0.17635452 5.32851446 0.61835921 8 1 C8 1.66 8 2.32 8 3 C5.36 3.33 2.72 3.66 0 4 C0 8.29 0 12.58 0 17 C-0.99 17 -1.98 17 -3 17 C-4.09824224 13.04632793 -3.88032243 11.55172015 -2 8 C-1.64456573 5.66993089 -1.3086247 3.33672984 -1 1 C-0.67 0.67 -0.34 0.34 0 0 Z " fill="#6F7070" transform="translate(110,33)"/>
<path d="M0 0 C1.65 0 3.3 0 5 0 C5 0.99 5 1.98 5 3 C4.01 3 3.02 3 2 3 C2 3.66 2 4.32 2 5 C1.34 5 0.68 5 0 5 C0 5.99 0 6.98 0 8 C-1.65 8 -3.3 8 -5 8 C-5 8.99 -5 9.98 -5 11 C-5.99 11 -6.98 11 -8 11 C-8 10.01 -8 9.02 -8 8 C-7.34 8 -6.68 8 -6 8 C-5.67 6.35 -5.34 4.7 -5 3 C-3.35 3 -1.7 3 0 3 C0 2.01 0 1.02 0 0 Z " fill="#AC1718" transform="translate(243,205)"/>
<path d="M0 0 C0.99 0 1.98 0 3 0 C3 0.99 3 1.98 3 3 C2.34 3 1.68 3 1 3 C0.67 5.64 0.34 8.28 0 11 C-0.66 11 -1.32 11 -2 11 C-2 12.98 -2 14.96 -2 17 C-2.99 17 -3.98 17 -5 17 C-5 14.36 -5 11.72 -5 9 C-4.34 9 -3.68 9 -3 9 C-2.67 7.02 -2.34 5.04 -2 3 C-1.34 3 -0.68 3 0 3 C0 2.01 0 1.02 0 0 Z " fill="#6C0204" transform="translate(294,96)"/>
<path d="M0 0 C3.63 0 7.26 0 11 0 C11 0.66 11 1.32 11 2 C14.3 2 17.6 2 21 2 C21.33 2.99 21.66 3.98 22 5 C20.02 5 18.04 5 16 5 C16 4.34 16 3.68 16 3 C10.72 3 5.44 3 0 3 C0 2.01 0 1.02 0 0 Z " fill="#DD6E71" transform="translate(170,145)"/>
<path d="M0 0 C0.99 0 1.98 0 3 0 C3 0.66 3 1.32 3 2 C5.97 2.495 5.97 2.495 9 3 C9 3.66 9 4.32 9 5 C9.66 5 10.32 5 11 5 C11 5.99 11 6.98 11 8 C12.98 8 14.96 8 17 8 C17 8.99 17 9.98 17 11 C15.68 11 14.36 11 13 11 C13 10.34 13 9.68 13 9 C11.35 8.67 9.7 8.34 8 8 C8 7.34 8 6.68 8 6 C6.35 6 4.7 6 3 6 C3 5.01 3 4.02 3 3 C2.01 3 1.02 3 0 3 C0 2.01 0 1.02 0 0 Z " fill="#E5817E" transform="translate(39,254)"/>
<path d="M0 0 C1.98 0 3.96 0 6 0 C6 0.99 6 1.98 6 3 C3.36 3 0.72 3 -2 3 C-2.33 3.99 -2.66 4.98 -3 6 C-5.31 6 -7.62 6 -10 6 C-10 6.66 -10 7.32 -10 8 C-10.99 8 -11.98 8 -13 8 C-13 7.01 -13 6.02 -13 5 C-11.35 5 -9.7 5 -8 5 C-8 4.01 -8 3.02 -8 2 C-5.36 2 -2.72 2 0 2 C0 1.34 0 0.68 0 0 Z " fill="#E37C7C" transform="translate(137,162)"/>
<path d="M0 0 C0.99 0 1.98 0 3 0 C3 0.99 3 1.98 3 3 C4.98 3 6.96 3 9 3 C9 3.99 9 4.98 9 6 C9.66 6 10.32 6 11 6 C11 7.98 11 9.96 11 12 C10.01 12 9.02 12 8 12 C8 11.01 8 10.02 8 9 C7.34 9 6.68 9 6 9 C6 8.01 6 7.02 6 6 C5.01 6 4.02 6 3 6 C3 5.34 3 4.68 3 4 C2.01 4 1.02 4 0 4 C0 2.68 0 1.36 0 0 Z " fill="#B6B6B6" transform="translate(289,71)"/>
<path d="M0 0 C0.99 0 1.98 0 3 0 C3 1.65 3 3.3 3 5 C3.99 5 4.98 5 6 5 C6 5.99 6 6.98 6 8 C6.66 8 7.32 8 8 8 C8.33 9.65 8.66 11.3 9 13 C9.66 13 10.32 13 11 13 C11 14.32 11 15.64 11 17 C10.01 16.67 9.02 16.34 8 16 C8 15.34 8 14.68 8 14 C7.01 14 6.02 14 5 14 C5 12.02 5 10.04 5 8 C4.01 7.67 3.02 7.34 2 7 C2 5.68 2 4.36 2 3 C1.34 3 0.68 3 0 3 C0 2.01 0 1.02 0 0 Z " fill="#ED8487" transform="translate(20,227)"/>
<path d="M0 0 C0.99 0 1.98 0 3 0 C3 0.99 3 1.98 3 3 C3.99 3 4.98 3 6 3 C6 4.65 6 6.3 6 8 C6.99 8 7.98 8 9 8 C9 9.98 9 11.96 9 14 C7.68 14 6.36 14 5 14 C5 12.35 5 10.7 5 9 C4.34 9 3.68 9 3 9 C1.76078698 6.02588876 0.69941596 3.14737182 0 0 Z " fill="#B6B6B6" transform="translate(123,221)"/>
<path d="M0 0 C0.99 0 1.98 0 3 0 C3 1.32 3 2.64 3 4 C2.34 4 1.68 4 1 4 C0.67 4.99 0.34 5.98 0 7 C-0.66 7 -1.32 7 -2 7 C-2 7.66 -2 8.32 -2 9 C-2.99 9 -3.98 9 -5 9 C-5 9.99 -5 10.98 -5 12 C-5.99 12 -6.98 12 -8 12 C-8 12.66 -8 13.32 -8 14 C-8.99 14 -9.98 14 -11 14 C-11 13.01 -11 12.02 -11 11 C-10.01 11 -9.02 11 -8 11 C-8 10.34 -8 9.68 -8 9 C-6.625 7.375 -6.625 7.375 -5 6 C-4.34 6 -3.68 6 -3 6 C-3 5.01 -3 4.02 -3 3 C-2.01 3 -1.02 3 0 3 C0 2.01 0 1.02 0 0 Z " fill="#9C9C9C" transform="translate(237,166)"/>
<path d="M0 0 C0.99 0 1.98 0 3 0 C3 5.94 3 11.88 3 18 C2.01 17.67 1.02 17.34 0 17 C0 11.39 0 5.78 0 0 Z " fill="#DBDBDB" transform="translate(1,175)"/>
<path d="M0 0 C0.99 0 1.98 0 3 0 C3 0.99 3 1.98 3 3 C2.01 3 1.02 3 0 3 C0 4.65 0 6.3 0 8 C-2.64 8 -5.28 8 -8 8 C-8 7.01 -8 6.02 -8 5 C-7.34 5 -6.68 5 -6 5 C-6 4.01 -6 3.02 -6 2 C-4.02 2 -2.04 2 0 2 C0 1.34 0 0.68 0 0 Z " fill="#920F11" transform="translate(61,140)"/>
<path d="M0 0 C5.61 0 11.22 0 17 0 C17 0.99 17 1.98 17 3 C11.72 3 6.44 3 1 3 C0.67 2.01 0.34 1.02 0 0 Z " fill="#CA5757" transform="translate(147,132)"/>
<path d="M0 0 C1.98 0 3.96 0 6 0 C6 0.99 6 1.98 6 3 C5.34 3 4.68 3 4 3 C3.67 3.99 3.34 4.98 3 6 C-0.63 6 -4.26 6 -8 6 C-8 5.01 -8 4.02 -8 3 C-7.01 3 -6.02 3 -5 3 C-5 3.66 -5 4.32 -5 5 C-4.34 5 -3.68 5 -3 5 C-3 4.34 -3 3.68 -3 3 C-2.01 3 -1.02 3 0 3 C0 2.01 0 1.02 0 0 Z " fill="#DB6B6F" transform="translate(145,235)"/>
<path d="M0 0 C0.33 0 0.66 0 1 0 C1 1.65 1 3.3 1 5 C0.01 5 -0.98 5 -2 5 C-2 6.98 -2 8.96 -2 11 C-4.97 11 -7.94 11 -11 11 C-11 10.67 -11 10.34 -11 10 C-9.35 10 -7.7 10 -6 10 C-5.67 7.36 -5.34 4.72 -5 2 C-3.35 2 -1.7 2 0 2 C0 1.34 0 0.68 0 0 Z " fill="#E27D80" transform="translate(15,184)"/>
<path d="M0 0 C1.98 0 3.96 0 6 0 C6 0.66 6 1.32 6 2 C5.01 2 4.02 2 3 2 C3 3.32 3 4.64 3 6 C1.35 5.67 -0.3 5.34 -2 5 C-2 5.99 -2 6.98 -2 8 C-2.99 8 -3.98 8 -5 8 C-5 7.34 -5 6.68 -5 6 C-5.66 6 -6.32 6 -7 6 C-7.33 6.66 -7.66 7.32 -8 8 C-8 7.01 -8 6.02 -8 5 C-7.01 5 -6.02 5 -5 5 C-5 4.34 -5 3.68 -5 3 C-3.35 2.67 -1.7 2.34 0 2 C0 1.34 0 0.68 0 0 Z " fill="#C80305" transform="translate(47,148)"/>
<path d="M0 0 C1.98 0 3.96 0 6 0 C6 0.99 6 1.98 6 3 C1.38 3 -3.24 3 -8 3 C-8 3.99 -8 4.98 -8 6 C-9.65 6 -11.3 6 -13 6 C-13.33 4.68 -13.66 3.36 -14 2 C-9.38 2 -4.76 2 0 2 C0 1.34 0 0.68 0 0 Z " fill="#D5696A" transform="translate(96,145)"/>
<path d="M0 0 C1.32 0 2.64 0 4 0 C3.67 1.32 3.34 2.64 3 4 C2.34 4 1.68 4 1 4 C1 4.66 1 5.32 1 6 C0.01 6 -0.98 6 -2 6 C-2 6.99 -2 7.98 -2 9 C-2.66 9 -3.32 9 -4 9 C-4 9.66 -4 10.32 -4 11 C-5.32 11 -6.64 11 -8 11 C-8 10.34 -8 9.68 -8 9 C-7.01 9 -6.02 9 -5 9 C-5 7.02 -5 5.04 -5 3 C-3.35 3 -1.7 3 0 3 C0 2.01 0 1.02 0 0 Z " fill="#BA0307" transform="translate(267,134)"/>
<path d="M0 0 C0.99 0 1.98 0 3 0 C3 0.66 3 1.32 3 2 C5.64 2 8.28 2 11 2 C11 2.99 11 3.98 11 5 C13.64 5 16.28 5 19 5 C19 5.99 19 6.98 19 8 C18.01 8 17.02 8 16 8 C16 7.34 16 6.68 16 6 C12.7 6 9.4 6 6 6 C5.67 5.01 5.34 4.02 5 3 C3.35 3 1.7 3 0 3 C0 2.01 0 1.02 0 0 Z " fill="#D96B6A" transform="translate(58,265)"/>
<path d="M0 0 C1.32 0.33 2.64 0.66 4 1 C4 3.31 4 5.62 4 8 C4.66 8 5.32 8 6 8 C6 9.65 6 11.3 6 13 C6.99 13.33 7.98 13.66 9 14 C9 14.99 9 15.98 9 17 C7.68 17 6.36 17 5 17 C5 16.01 5 15.02 5 14 C4.34 14 3.68 14 3 14 C3 10.37 3 6.74 3 3 C2.01 3 1.02 3 0 3 C0 2.01 0 1.02 0 0 Z " fill="#E66769" transform="translate(88,229)"/>
<path d="M0 0 C3.63 0 7.26 0 11 0 C11 0.99 11 1.98 11 3 C5.39 3 -0.22 3 -6 3 C-6 3.66 -6 4.32 -6 5 C-6.99 5 -7.98 5 -9 5 C-9 4.01 -9 3.02 -9 2 C-6.03 2 -3.06 2 0 2 C0 1.34 0 0.68 0 0 Z " fill="#ED3C40" transform="translate(143,159)"/>
<path d="M0 0 C1.65 0 3.3 0 5 0 C5 0.66 5 1.32 5 2 C10.28 2 15.56 2 21 2 C21 2.99 21 3.98 21 5 C18.36 5.33 15.72 5.66 13 6 C13 5.01 13 4.02 13 3 C12.22914063 3.01160156 11.45828125 3.02320313 10.6640625 3.03515625 C9.15972656 3.04869141 9.15972656 3.04869141 7.625 3.0625 C6.62726563 3.07410156 5.62953125 3.08570313 4.6015625 3.09765625 C2 3 2 3 0 2 C0 1.34 0 0.68 0 0 Z " fill="#390304" transform="translate(151,129)"/>
<path d="M0 0 C0.99 0 1.98 0 3 0 C3 0.66 3 1.32 3 2 C3.66 2 4.32 2 5 2 C5 2.99 5 3.98 5 5 C5.99 5 6.98 5 8 5 C8 5.99 8 6.98 8 8 C8.99 8 9.98 8 11 8 C11 8.99 11 9.98 11 11 C9.02 11 7.04 11 5 11 C4.67 9.35 4.34 7.7 4 6 C3.34 6 2.68 6 2 6 C2 4.68 2 3.36 2 2 C1.34 2 0.68 2 0 2 C0 1.34 0 0.68 0 0 Z " fill="#F0A3A3" transform="translate(97,251)"/>
<path d="M0 0 C1.98 0 3.96 0 6 0 C6 0.99 6 1.98 6 3 C4.35 3 2.7 3 1 3 C0.67 3.99 0.34 4.98 0 6 C-0.66 6 -1.32 6 -2 6 C-2 6.66 -2 7.32 -2 8 C-2.99 8 -3.98 8 -5 8 C-5 6.02 -5 4.04 -5 2 C-3.35 2 -1.7 2 0 2 C0 1.34 0 0.68 0 0 Z " fill="#EA565A" transform="translate(221,124)"/>
<path d="M0 0 C0.99 0 1.98 0 3 0 C3 1.32 3 2.64 3 4 C2.34 4 1.68 4 1 4 C1 5.65 1 7.3 1 9 C0.01 9 -0.98 9 -2 9 C-2 9.99 -2 10.98 -2 12 C-2.99 12 -3.98 12 -5 12 C-5 10.68 -5 9.36 -5 8 C-4.34 8 -3.68 8 -3 8 C-3 6.35 -3 4.7 -3 3 C-2.01 3 -1.02 3 0 3 C0 2.01 0 1.02 0 0 Z " fill="#EC8280" transform="translate(99,50)"/>
<path d="M0 0 C0.66 0 1.32 0 2 0 C2 1.32 2 2.64 2 4 C1.34 4 0.68 4 0 4 C0 4.66 0 5.32 0 6 C-0.99 6 -1.98 6 -3 6 C-3 6.99 -3 7.98 -3 9 C-3.66 9 -4.32 9 -5 9 C-5.33 9.99 -5.66 10.98 -6 12 C-7.32 11.67 -8.64 11.34 -10 11 C-9.67 10.01 -9.34 9.02 -9 8 C-8.01 8 -7.02 8 -6 8 C-6 7.01 -6 6.02 -6 5 C-5.01 5 -4.02 5 -3 5 C-3 4.34 -3 3.68 -3 3 C-2.01 3 -1.02 3 0 3 C0 2.01 0 1.02 0 0 Z " fill="#E5A3A4" transform="translate(238,213)"/>
<path d="M0 0 C1.98 0 3.96 0 6 0 C6 0.99 6 1.98 6 3 C4.02 3.33 2.04 3.66 0 4 C0 4.66 0 5.32 0 6 C-1.65 6 -3.3 6 -5 6 C-5 6.99 -5 7.98 -5 9 C-5.99 9 -6.98 9 -8 9 C-8 7.68 -8 6.36 -8 5 C-6.35 5 -4.7 5 -3 5 C-3 4.34 -3 3.68 -3 3 C-2.01 3 -1.02 3 0 3 C0 2.01 0 1.02 0 0 Z " fill="#7C7C7C" transform="translate(145,169)"/>
<path d="M0 0 C0.33 0.66 0.66 1.32 1 2 C1.66 2 2.32 2 3 2 C3 5.63 3 9.26 3 13 C4.98 13 6.96 13 9 13 C9 13.33 9 13.66 9 14 C6.03 14 3.06 14 0 14 C0 9.38 0 4.76 0 0 Z " fill="#4E4343" transform="translate(253,132)"/>
<path d="M0 0 C1.98 0 3.96 0 6 0 C6 0.99 6 1.98 6 3 C5.34 3 4.68 3 4 3 C3.67 3.99 3.34 4.98 3 6 C2.34 6 1.68 6 1 6 C1 6.66 1 7.32 1 8 C0.01 8 -0.98 8 -2 8 C-2 6.02 -2 4.04 -2 2 C-1.34 2 -0.68 2 0 2 C0 1.34 0 0.68 0 0 Z " fill="#EE777B" transform="translate(153,227)"/>
<path d="M0 0 C1.98 0 3.96 0 6 0 C5.67 1.32 5.34 2.64 5 4 C2.69 4 0.38 4 -2 4 C-2 4.66 -2 5.32 -2 6 C-3.98 6 -5.96 6 -8 6 C-8 5.01 -8 4.02 -8 3 C-5.36 3 -2.72 3 0 3 C0 2.01 0 1.02 0 0 Z " fill="#DB5B5C" transform="translate(167,221)"/>
<path d="M0 0 C0.99 0 1.98 0 3 0 C3 1.32 3 2.64 3 4 C2.34 4 1.68 4 1 4 C1 4.66 1 5.32 1 6 C0.01 6 -0.98 6 -2 6 C-2 6.99 -2 7.98 -2 9 C-2.99 9 -3.98 9 -5 9 C-5 9.66 -5 10.32 -5 11 C-5.99 11 -6.98 11 -8 11 C-8 10.01 -8 9.02 -8 8 C-7.34 8 -6.68 8 -6 8 C-6 7.34 -6 6.68 -6 6 C-5.01 6 -4.02 6 -3 6 C-3 5.01 -3 4.02 -3 3 C-2.01 3 -1.02 3 0 3 C0 2.01 0 1.02 0 0 Z " fill="#EEB2B2" transform="translate(39,169)"/>
<path d="M0 0 C5.28 0 10.56 0 16 0 C16 0.99 16 1.98 16 3 C10.55306686 3.09688221 5.36095333 3.12862175 0 2 C0 1.34 0 0.68 0 0 Z " fill="#97090B" transform="translate(167,219)"/>
<path d="M0 0 C4.62 0 9.24 0 14 0 C14 0.99 14 1.98 14 3 C9.38 3 4.76 3 0 3 C0 2.01 0 1.02 0 0 Z " fill="#838484" transform="translate(158,166)"/>
<path d="M0 0 C0.99 0 1.98 0 3 0 C3 1.32 3 2.64 3 4 C2.01 4 1.02 4 0 4 C0 4.66 0 5.32 0 6 C-3.28696233 6.79953138 -4.71023192 7.09658936 -8 6 C-8 5.01 -8 4.02 -8 3 C-7.01 3 -6.02 3 -5 3 C-5 2.34 -5 1.68 -5 1 C-4.34 1 -3.68 1 -3 1 C-3 1.66 -3 2.32 -3 3 C-2.01 3 -1.02 3 0 3 C0 2.01 0 1.02 0 0 Z " fill="#EC2B30" transform="translate(45,153)"/>
<path d="M0 0 C4.62 0 9.24 0 14 0 C14 0.99 14 1.98 14 3 C9.38 3 4.76 3 0 3 C0 2.01 0 1.02 0 0 Z " fill="#383838" transform="translate(142,34)"/>
<path d="M0 0 C1.32 0 2.64 0 4 0 C4 0.99 4 1.98 4 3 C3.01 3 2.02 3 1 3 C1 4.65 1 6.3 1 8 C0.34 8 -0.32 8 -1 8 C-1.33 8.99 -1.66 9.98 -2 11 C-2.99 11 -3.98 11 -5 11 C-5 10.01 -5 9.02 -5 8 C-4.01 8 -3.02 8 -2 8 C-2 6.02 -2 4.04 -2 2 C-1.34 2 -0.68 2 0 2 C0 1.34 0 0.68 0 0 Z " fill="#ED5352" transform="translate(283,124)"/>
<path d="M0 0 C0.99 0 1.98 0 3 0 C3 1.98 3 3.96 3 6 C2.34 6 1.68 6 1 6 C1 7.65 1 9.3 1 11 C-0.32 11 -1.64 11 -3 11 C-3 9.35 -3 7.7 -3 6 C-2.01 5.67 -1.02 5.34 0 5 C0 3.35 0 1.7 0 0 Z " fill="#969696" transform="translate(17,126)"/>
<path d="M0 0 C0.99 0 1.98 0 3 0 C3 0.66 3 1.32 3 2 C7.29 2 11.58 2 16 2 C16 3.32 16 4.64 16 6 C14.02 6 12.04 6 10 6 C10 5.01 10 4.02 10 3 C6.7 3 3.4 3 0 3 C0 2.01 0 1.02 0 0 Z " fill="#575553" transform="translate(219,50)"/>
<path d="M0 0 C4.29 0 8.58 0 13 0 C13 0.99 13 1.98 13 3 C8.71 3 4.42 3 0 3 C0 2.01 0 1.02 0 0 Z " fill="#282828" transform="translate(208,183)"/>
<path d="M0 0 C1.65 0 3.3 0 5 0 C5 0.99 5 1.98 5 3 C4.34 3 3.68 3 3 3 C3 3.99 3 4.98 3 6 C2.01 6 1.02 6 0 6 C0 6.66 0 7.32 0 8 C-0.99 8 -1.98 8 -3 8 C-3 6.35 -3 4.7 -3 3 C-2.01 3 -1.02 3 0 3 C0 2.01 0 1.02 0 0 Z " fill="#D82E33" transform="translate(26,164)"/>
<path d="M0 0 C0.99 0 1.98 0 3 0 C3 4.29 3 8.58 3 13 C2.01 13 1.02 13 0 13 C0 8.71 0 4.42 0 0 Z " fill="#860505" transform="translate(297,83)"/>
<path d="M0 0 C0.66 0 1.32 0 2 0 C2 2.97 2 5.94 2 9 C0.35 9 -1.3 9 -3 9 C-3.33 7.02 -3.66 5.04 -4 3 C-2.68 3 -1.36 3 0 3 C0 2.01 0 1.02 0 0 Z " fill="#2C0303" transform="translate(211,44)"/>
<path d="M0 0 C3.63 0 7.26 0 11 0 C11 2 11 2 9.8125 3.625 C7.44439338 5.42149467 5.90102749 5.23521845 3 5 C3 4.01 3 3.02 3 2 C2.01 2 1.02 2 0 2 C0 1.34 0 0.68 0 0 Z " fill="#EC1319" transform="translate(31,48)"/>
<path d="M0 0 C1.65 0 3.3 0 5 0 C5 0.66 5 1.32 5 2 C4.34 2 3.68 2 3 2 C3 3.98 3 5.96 3 8 C1.02 8 -0.96 8 -3 8 C-3 7.01 -3 6.02 -3 5 C-2.01 5 -1.02 5 0 5 C0 3.35 0 1.7 0 0 Z " fill="#860508" transform="translate(148,227)"/>
<path d="M0 0 C2.64 0 5.28 0 8 0 C8 0.99 8 1.98 8 3 C10.64 3 13.28 3 16 3 C16 3.33 16 3.66 16 4 C13.89590361 4.02701408 11.79170822 4.04640223 9.6875 4.0625 C8.51574219 4.07410156 7.34398437 4.08570312 6.13671875 4.09765625 C3 4 3 4 0 3 C0 2.01 0 1.02 0 0 Z " fill="#AF0204" transform="translate(227,118)"/>
<path d="M0 0 C1.99954746 -0.04254356 4.00041636 -0.04080783 6 0 C7 1 7 1 7.09765625 3.28515625 C7.08605469 4.20167969 7.07445313 5.11820313 7.0625 6.0625 C7.05347656 6.98160156 7.04445313 7.90070312 7.03515625 8.84765625 C7.02355469 9.55792969 7.01195313 10.26820312 7 11 C6.67 11 6.34 11 6 11 C6 9.35 6 7.7 6 6 C5.01 6 4.02 6 3 6 C3 5.01 3 4.02 3 3 C2.01 3 1.02 3 0 3 C0 2.01 0 1.02 0 0 Z " fill="#F0171A" transform="translate(96,39)"/>
<path d="M0 0 C0.99 0 1.98 0 3 0 C3 0.66 3 1.32 3 2 C3.99 2 4.98 2 6 2 C6 2.99 6 3.98 6 5 C7.65 5 9.3 5 11 5 C11 5.99 11 6.98 11 8 C9.35 8 7.7 8 6 8 C6 7.34 6 6.68 6 6 C5.01 6 4.02 6 3 6 C3 5.01 3 4.02 3 3 C2.01 3 1.02 3 0 3 C0 2.01 0 1.02 0 0 Z " fill="#434343" transform="translate(194,175)"/>
<path d="M0 0 C1.98 0 3.96 0 6 0 C6 0.66 6 1.32 6 2 C6.66 2 7.32 2 8 2 C8 3.98 8 5.96 8 8 C7.01 8 6.02 8 5 8 C5 6.35 5 4.7 5 3 C3.35 3 1.7 3 0 3 C0 2.01 0 1.02 0 0 Z " fill="#EB0E12" transform="translate(186,151)"/>
<path d="M0 0 C5.61 0 11.22 0 17 0 C17 0.99 17 1.98 17 3 C14.03 3 11.06 3 8 3 C8 2.34 8 1.68 8 1 C5.36 1 2.72 1 0 1 C0 0.67 0 0.34 0 0 Z " fill="#540809" transform="translate(172,134)"/>
<path d="M0 0 C2.64 0 5.28 0 8 0 C8 0.99 8 1.98 8 3 C6.02 3 4.04 3 2 3 C2 3.66 2 4.32 2 5 C0.35 5 -1.3 5 -3 5 C-3 4.34 -3 3.68 -3 3 C-2.01 3 -1.02 3 0 3 C0 2.01 0 1.02 0 0 Z " fill="#D31518" transform="translate(64,140)"/>
<path d="M0 0 C3.63 0 7.26 0 11 0 C11 0.99 11 1.98 11 3 C7.37 3 3.74 3 0 3 C0 2.01 0 1.02 0 0 Z " fill="#EE363B" transform="translate(172,156)"/>
<path d="M0 0 C3.63 0 7.26 0 11 0 C11 0.99 11 1.98 11 3 C7.37 3 3.74 3 0 3 C0 2.01 0 1.02 0 0 Z " fill="#F16B6D" transform="translate(148,142)"/>
<path d="M0 0 C0.99 0 1.98 0 3 0 C3 1.98 3 3.96 3 6 C2.01 6 1.02 6 0 6 C0 6.66 0 7.32 0 8 C-0.99 8 -1.98 8 -3 8 C-3 6.35 -3 4.7 -3 3 C-2.01 3 -1.02 3 0 3 C0 2.01 0 1.02 0 0 Z " fill="#C92528" transform="translate(213,126)"/>
<path d="M0 0 C3.63 0 7.26 0 11 0 C11 0.99 11 1.98 11 3 C7.37 3 3.74 3 0 3 C0 2.01 0 1.02 0 0 Z " fill="#140000" transform="translate(232,115)"/>
<path d="M0 0 C0.99 0 1.98 0 3 0 C3 0.66 3 1.32 3 2 C3.99 2 4.98 2 6 2 C6 2.99 6 3.98 6 5 C7.65 5 9.3 5 11 5 C11 5.99 11 6.98 11 8 C10.01 8 9.02 8 8 8 C8 7.34 8 6.68 8 6 C7.236875 6.061875 6.47375 6.12375 5.6875 6.1875 C3 6 3 6 1.1875 4.6875 C0 3 0 3 0 0 Z " fill="#EA8283" transform="translate(39,56)"/>
<path d="M0 0 C0.99 0 1.98 0 3 0 C3 2.97 3 5.94 3 9 C2.01 9 1.02 9 0 9 C-0.87890625 2.84765625 -0.87890625 2.84765625 -1 1 C-0.67 0.67 -0.34 0.34 0 0 Z " fill="#959595" transform="translate(4,169)"/>
<path d="M0 0 C1.98 0 3.96 0 6 0 C6 0.99 6 1.98 6 3 C4.35 3 2.7 3 1 3 C0.67 3.99 0.34 4.98 0 6 C-1.32 6 -2.64 6 -4 6 C-4 5.01 -4 4.02 -4 3 C-2.68 3 -1.36 3 0 3 C0 2.01 0 1.02 0 0 Z " fill="#EB1317" transform="translate(66,156)"/>
<path d="M0 0 C0.99 0 1.98 0 3 0 C3 0.66 3 1.32 3 2 C3.99 2 4.98 2 6 2 C6 2.99 6 3.98 6 5 C6.66 5 7.32 5 8 5 C8 5.99 8 6.98 8 8 C7.01 8 6.02 8 5 8 C5 7.34 5 6.68 5 6 C4.01 5.67 3.02 5.34 2 5 C2 4.34 2 3.68 2 3 C1.34 3 0.68 3 0 3 C0 2.01 0 1.02 0 0 Z " fill="#EB9D9D" transform="translate(31,246)"/>
<path d="M0 0 C0.99 0 1.98 0 3 0 C3 0.99 3 1.98 3 3 C2.34 3 1.68 3 1 3 C0.67 3.99 0.34 4.98 0 6 C-0.66 6 -1.32 6 -2 6 C-2 6.66 -2 7.32 -2 8 C-2.99 8 -3.98 8 -5 8 C-5 7.01 -5 6.02 -5 5 C-4.34 5 -3.68 5 -3 5 C-3 4.01 -3 3.02 -3 2 C-2.01 2 -1.02 2 0 2 C0 1.34 0 0.68 0 0 Z " fill="#EFAAAC" transform="translate(213,132)"/>
<path d="M0 0 C1.98 0 3.96 0 6 0 C6 5.28 6 10.56 6 16 C5.67 16 5.34 16 5 16 C5 12.37 5 8.74 5 5 C4.34 5 3.68 5 3 5 C2.87625 4.360625 2.7525 3.72125 2.625 3.0625 C2.315625 2.0415625 2.315625 2.0415625 2 1 C1.34 0.67 0.68 0.34 0 0 Z " fill="#231F1F" transform="translate(251,129)"/>
<path d="M0 0 C0.99 0 1.98 0 3 0 C3 0.66 3 1.32 3 2 C3.99 2 4.98 2 6 2 C6 2.99 6 3.98 6 5 C6.99 5 7.98 5 9 5 C9 5.99 9 6.98 9 8 C6.83125748 7.49396008 5.00032373 7.00016187 3 6 C3 5.01 3 4.02 3 3 C2.01 3 1.02 3 0 3 C0 2.01 0 1.02 0 0 Z " fill="#907171" transform="translate(245,121)"/>
<path d="M0 0 C5.61 0 11.22 0 17 0 C17 0.33 17 0.66 17 1 C12.71 1 8.42 1 4 1 C4 2.65 4 4.3 4 6 C3.67 5.34 3.34 4.68 3 4 C2.01 4 1.02 4 0 4 C0 2.68 0 1.36 0 0 Z " fill="#D85D5F" transform="translate(25,44)"/>
<path d="M0 0 C0 1.32 0 2.64 0 4 C-2.64 4 -5.28 4 -8 4 C-8 3.01 -8 2.02 -8 1 C-5.07175348 0.02391783 -3.04386724 -0.08226668 0 0 Z " fill="#787878" transform="translate(164,33)"/>
<path d="M0 0 C0.99 0 1.98 0 3 0 C3 2.64 3 5.28 3 8 C2.34 8 1.68 8 1 8 C1 9.98 1 11.96 1 14 C0.67 14 0.34 14 0 14 C0 9.38 0 4.76 0 0 Z " fill="#343434" transform="translate(4,178)"/>
<path d="M0 0 C0.99 0 1.98 0 3 0 C3 0.99 3 1.98 3 3 C2.34 3 1.68 3 1 3 C1 3.99 1 4.98 1 6 C-0.98 6 -2.96 6 -5 6 C-5 5.01 -5 4.02 -5 3 C-3.35 2.67 -1.7 2.34 0 2 C0 1.34 0 0.68 0 0 Z " fill="#E5817F" transform="translate(118,170)"/>
<path d="M0 0 C1.98 0 3.96 0 6 0 C6 0.99 6 1.98 6 3 C4.35 3 2.7 3 1 3 C1 3.99 1 4.98 1 6 C0.01 6 -0.98 6 -2 6 C-2 4.68 -2 3.36 -2 2 C-1.34 2 -0.68 2 0 2 C0 1.34 0 0.68 0 0 Z " fill="#F07274" transform="translate(221,224)"/>
<path d="M0 0 C0.99 0 1.98 0 3 0 C3 0.99 3 1.98 3 3 C2.34 3 1.68 3 1 3 C1 4.65 1 6.3 1 8 C-0.32 8 -1.64 8 -3 8 C-2.67 6.35 -2.34 4.7 -2 3 C-1.34 3 -0.68 3 0 3 C0 2.01 0 1.02 0 0 Z " fill="#E89798" transform="translate(91,205)"/>
<path d="M0 0 C0.99 0 1.98 0 3 0 C3 0.99 3 1.98 3 3 C2.01 3 1.02 3 0 3 C0 3.99 0 4.98 0 6 C-0.66 6 -1.32 6 -2 6 C-2 6.66 -2 7.32 -2 8 C-2.99 8 -3.98 8 -5 8 C-5 7.01 -5 6.02 -5 5 C-4.34 5 -3.68 5 -3 5 C-3 4.01 -3 3.02 -3 2 C-2.01 2 -1.02 2 0 2 C0 1.34 0 0.68 0 0 Z " fill="#EE9899" transform="translate(26,170)"/>
<path d="M0 0 C3.3 0 6.6 0 10 0 C10 0.99 10 1.98 10 3 C7.03 3 4.06 3 1 3 C0.67 2.01 0.34 1.02 0 0 Z " fill="#E4D2D3" transform="translate(79,273)"/>
<path d="M0 0 C0.99 0 1.98 0 3 0 C3 1.32 3 2.64 3 4 C2.34 4 1.68 4 1 4 C1 6.64 1 9.28 1 12 C0.01 12 -0.98 12 -2 12 C-2 10.68 -2 9.36 -2 8 C-1.34 8 -0.68 8 0 8 C0 5.36 0 2.72 0 0 Z " fill="#E37274" transform="translate(297,96)"/>
<path d="M0 0 C0.66 0.33 1.32 0.66 2 1 C2 3.64 2 6.28 2 9 C1.01 9 0.02 9 -1 9 C-1.80967438 6.08517222 -2.21845993 4.53886783 -1.0625 1.6875 C-0.711875 1.130625 -0.36125 0.57375 0 0 Z " fill="#A7A7A7" transform="translate(108,41)"/>
<path d="M0 0 C0.99 0 1.98 0 3 0 C3.125 7.75 3.125 7.75 2 10 C1.34 10 0.68 10 0 10 C0 6.7 0 3.4 0 0 Z " fill="#2C2C2C" transform="translate(110,37)"/>
<path d="M0 0 C0.99 0 1.98 0 3 0 C3 0.66 3 1.32 3 2 C4.65 2 6.3 2 8 2 C8 1.34 8 0.68 8 0 C8.99 0 9.98 0 11 0 C11 0.99 11 1.98 11 3 C10.01 3 9.02 3 8 3 C8 3.66 8 4.32 8 5 C7.34 5 6.68 5 6 5 C6 4.34 6 3.68 6 3 C4.02 3 2.04 3 0 3 C0 2.01 0 1.02 0 0 Z " fill="#7A0710" transform="translate(134,235)"/>
<path d="M0 0 C0.99 0.33 1.98 0.66 3 1 C3 4.3 3 7.6 3 11 C2.67 10.34 2.34 9.68 2 9 C1.01 9 0.02 9 -1 9 C-1 8.01 -1 7.02 -1 6 C-0.01 6 0.98 6 2 6 C2 5.34 2 4.68 2 4 C1.34 4 0.68 4 0 4 C0 2.68 0 1.36 0 0 Z " fill="#AB4347" transform="translate(249,196)"/>
<path d="M0 0 C3.63 0 7.26 0 11 0 C10.01 0.33 9.02 0.66 8 1 C8 1.66 8 2.32 8 3 C5.36 3 2.72 3 0 3 C0 2.01 0 1.02 0 0 Z " fill="#400205" transform="translate(72,134)"/>
<path d="M0 0 C0.99 0 1.98 0 3 0 C3 0.99 3 1.98 3 3 C2.34 3 1.68 3 1 3 C1 3.99 1 4.98 1 6 C0.01 6 -0.98 6 -2 6 C-2 6.66 -2 7.32 -2 8 C-2.99 8 -3.98 8 -5 8 C-5 7.01 -5 6.02 -5 5 C-4.01 5 -3.02 5 -2 5 C-2 4.34 -2 3.68 -2 3 C-1.34 3 -0.68 3 0 3 C0 2.01 0 1.02 0 0 Z " fill="#CCCCCC" transform="translate(33,104)"/>
<path d="M0 0 C0.66 0 1.32 0 2 0 C2 0.99 2 1.98 2 3 C0.35 3 -1.3 3 -3 3 C-3 3.66 -3 4.32 -3 5 C-4.98 5 -6.96 5 -9 5 C-9 4.01 -9 3.02 -9 2 C-6.03 2 -3.06 2 0 2 C0 1.34 0 0.68 0 0 Z " fill="#79787A" transform="translate(86,72)"/>
<path d="M0 0 C2.97 0 5.94 0 9 0 C9 0.99 9 1.98 9 3 C6.03 3 3.06 3 0 3 C0 2.01 0 1.02 0 0 Z " fill="#EF7E7F" transform="translate(52,64)"/>
<path d="M0 0 C2.97 0 5.94 0 9 0 C9 0.99 9 1.98 9 3 C6.03 3 3.06 3 0 3 C0 2.01 0 1.02 0 0 Z " fill="#8C8C8C" transform="translate(180,36)"/>
<path d="M0 0 C0.99 0 1.98 0 3 0 C3 1.32 3 2.64 3 4 C0.36 4 -2.28 4 -5 4 C-5 4.66 -5 5.32 -5 6 C-5.99 6 -6.98 6 -8 6 C-8 5.01 -8 4.02 -8 3 C-5.36 3 -2.72 3 0 3 C0 2.01 0 1.02 0 0 Z " fill="#E34A4C" transform="translate(99,267)"/>
<path d="M0 0 C1.32 0 2.64 0 4 0 C5.125 4.75 5.125 4.75 4 7 C4.66 7.33 5.32 7.66 6 8 C5.01 8 4.02 8 3 8 C3 7.01 3 6.02 3 5 C2.01 5 1.02 5 0 5 C0 3.35 0 1.7 0 0 Z " fill="#EF4346" transform="translate(93,246)"/>
<path d="M0 0 C0.99 0 1.98 0 3 0 C3 0.99 3 1.98 3 3 C5.64 3 8.28 3 11 3 C10.67 4.32 10.34 5.64 10 7 C9.34 6.67 8.68 6.34 8 6 C8 5.34 8 4.68 8 4 C5.69 4 3.38 4 1 4 C0.67 2.68 0.34 1.36 0 0 Z " fill="#B75556" transform="translate(183,221)"/>
<path d="M0 0 C1.98 0 3.96 0 6 0 C6 0.66 6 1.32 6 2 C3.36 2.33 0.72 2.66 -2 3 C-2 3.66 -2 4.32 -2 5 C-2.99 5 -3.98 5 -5 5 C-5 4.01 -5 3.02 -5 2 C-3.35 2 -1.7 2 0 2 C0 1.34 0 0.68 0 0 Z " fill="#8B090C" transform="translate(229,216)"/>
<path d="M0 0 C2.64 0 5.28 0 8 0 C8 0.99 8 1.98 8 3 C5.03 3 2.06 3 -1 3 C-0.67 2.01 -0.34 1.02 0 0 Z " fill="#EC7274" transform="translate(72,150)"/>
<path d="M0 0 C0.99 0 1.98 0 3 0 C3 0.99 3 1.98 3 3 C5.64 3 8.28 3 11 3 C11 3.99 11 4.98 11 6 C7.7 5.34 4.4 4.68 1 4 C0.67 2.68 0.34 1.36 0 0 Z " fill="#CC1C1F" transform="translate(186,137)"/>
<path d="M0 0 C0.66 0 1.32 0 2 0 C2 0.99 2 1.98 2 3 C1.34 3 0.68 3 0 3 C0 4.98 0 6.96 0 9 C-0.99 9 -1.98 9 -3 9 C-3 7.02 -3 5.04 -3 3 C-2.34 3 -1.68 3 -1 3 C-0.67 2.01 -0.34 1.02 0 0 Z " fill="#C5C5C5" transform="translate(23,117)"/>
<path d="M0 0 C4.95 0 9.9 0 15 0 C15 0.33 15 0.66 15 1 C11.7 1 8.4 1 5 1 C5 1.66 5 2.32 5 3 C3.35 3 1.7 3 0 3 C0 2.01 0 1.02 0 0 Z " fill="#5A5B5B" transform="translate(151,169)"/>
<path d="M0 0 C1.32 0 2.64 0 4 0 C4 0.99 4 1.98 4 3 C3.01 3 2.02 3 1 3 C1 3.99 1 4.98 1 6 C0.01 6 -0.98 6 -2 6 C-2 5.01 -2 4.02 -2 3 C-2.66 2.67 -3.32 2.34 -4 2 C-2.68 2 -1.36 2 0 2 C0 1.34 0 0.68 0 0 Z " fill="#909090" transform="translate(52,88)"/>
<path d="M0 0 C2.64 0 5.28 0 8 0 C8 0.99 8 1.98 8 3 C5.36 3 2.72 3 0 3 C0 2.01 0 1.02 0 0 Z " fill="#EC0E13" transform="translate(72,267)"/>
<path d="M0 0 C2.64 0 5.28 0 8 0 C8 0.99 8 1.98 8 3 C5.36 3 2.72 3 0 3 C0 2.01 0 1.02 0 0 Z " fill="#490F10" transform="translate(200,229)"/>
<path d="M0 0 C2.64 0 5.28 0 8 0 C8 0.99 8 1.98 8 3 C5.36 3 2.72 3 0 3 C0 2.01 0 1.02 0 0 Z " fill="#B10D0F" transform="translate(159,221)"/>
<path d="M0 0 C0.99 0 1.98 0 3 0 C3 2.64 3 5.28 3 8 C2.01 8 1.02 8 0 8 C0 5.36 0 2.72 0 0 Z " fill="#EC1115" transform="translate(23,221)"/>
<path d="M0 0 C2.64 0 5.28 0 8 0 C8 0.99 8 1.98 8 3 C5.36 3 2.72 3 0 3 C0 2.01 0 1.02 0 0 Z " fill="#8D8D8D" transform="translate(205,180)"/>
<path d="M0 0 C1.65 0 3.3 0 5 0 C5 0.99 5 1.98 5 3 C4.34 3 3.68 3 3 3 C3 3.99 3 4.98 3 6 C2.01 6 1.02 6 0 6 C0 4.02 0 2.04 0 0 Z " fill="#5D0105" transform="translate(15,172)"/>
<path d="M0 0 C0 1.98 0 3.96 0 6 C-1.32 6.33 -2.64 6.66 -4 7 C-4 5.02 -4 3.04 -4 1 C-1 0 -1 0 0 0 Z " fill="#F63A3C" transform="translate(198,152)"/>
<path d="M0 0 C2.64 0 5.28 0 8 0 C8 0.99 8 1.98 8 3 C5.36 3 2.72 3 0 3 C0 2.01 0 1.02 0 0 Z " fill="#EE4B4E" transform="translate(170,145)"/>
<path d="M0 0 C2.64 0 5.28 0 8 0 C8 0.99 8 1.98 8 3 C5.36 3 2.72 3 0 3 C0 2.01 0 1.02 0 0 Z " fill="#EC676B" transform="translate(115,142)"/>
<path d="M0 0 C2.64 0 5.28 0 8 0 C8 0.99 8 1.98 8 3 C5.36 3 2.72 3 0 3 C0 2.01 0 1.02 0 0 Z " fill="#700101" transform="translate(189,137)"/>
<path d="M0 0 C0.66 0 1.32 0 2 0 C2 0.66 2 1.32 2 2 C3.98 2 5.96 2 8 2 C8 2.99 8 3.98 8 5 C7.01 5 6.02 5 5 5 C5 4.34 5 3.68 5 3 C1.37 3 -2.26 3 -6 3 C-6 2.67 -6 2.34 -6 2 C-4.02 2 -2.04 2 0 2 C0 1.34 0 0.68 0 0 Z " fill="#A74346" transform="translate(178,135)"/>
<path d="M0 0 C2.64 0 5.28 0 8 0 C8 0.99 8 1.98 8 3 C5.36 3 2.72 3 0 3 C0 2.01 0 1.02 0 0 Z " fill="#A11F26" transform="translate(156,132)"/>
<path d="M0 0 C2.64 0 5.28 0 8 0 C8 0.99 8 1.98 8 3 C5.36 3 2.72 3 0 3 C0 2.01 0 1.02 0 0 Z " fill="#EA0000" transform="translate(64,64)"/>
<path d="M0 0 C0.99 0 1.98 0 3 0 C3 0.66 3 1.32 3 2 C5.64 2 8.28 2 11 2 C11 2.99 11 3.98 11 5 C10.01 5 9.02 5 8 5 C8 4.34 8 3.68 8 3 C5.36 3 2.72 3 0 3 C0 2.01 0 1.02 0 0 Z " fill="#E8555A" transform="translate(58,265)"/>
<path d="M0 0 C0.99 0 1.98 0 3 0 C3 0.66 3 1.32 3 2 C3.99 2.33 4.98 2.66 6 3 C6 3.99 6 4.98 6 6 C4.68 6 3.36 6 2 6 C2 5.01 2 4.02 2 3 C1.34 3 0.68 3 0 3 C0 2.01 0 1.02 0 0 Z " fill="#E87071" transform="translate(91,240)"/>
<path d="M0 0 C0.99 0 1.98 0 3 0 C3 1.98 3 3.96 3 6 C1.68 6 0.36 6 -1 6 C-1.042721 4.33388095 -1.04063832 2.66617115 -1 1 C-0.67 0.67 -0.34 0.34 0 0 Z " fill="#A5A5A5" transform="translate(129,229)"/>
<path d="M0 0 C0.99 0.33 1.98 0.66 3 1 C2.34 1 1.68 1 1 1 C1 3.64 1 6.28 1 9 C0.01 9 -0.98 9 -2 9 C-2 7.02 -2 5.04 -2 3 C-1.34 3 -0.68 3 0 3 C0 2.01 0 1.02 0 0 Z " fill="#F27B7C" transform="translate(96,191)"/>
<path d="M0 0 C1.32 0.33 2.64 0.66 4 1 C4 1.66 4 2.32 4 3 C4.66 3 5.32 3 6 3 C6 3.99 6 4.98 6 6 C5.01 6 4.02 6 3 6 C3 5.34 3 4.68 3 4 C2.01 4 1.02 4 0 4 C0 2.68 0 1.36 0 0 Z " fill="#716164" transform="translate(240,166)"/>
<path d="M0 0 C0.99 0 1.98 0 3 0 C3 0.99 3 1.98 3 3 C2.34 3 1.68 3 1 3 C0.67 3.99 0.34 4.98 0 6 C-0.99 6 -1.98 6 -3 6 C-3 4.68 -3 3.36 -3 2 C-2.01 2 -1.02 2 0 2 C0 1.34 0 0.68 0 0 Z " fill="#F0565A" transform="translate(53,148)"/>
<path d="M0 0 C1.32 0 2.64 0 4 0 C3.67 1.32 3.34 2.64 3 4 C2.34 4 1.68 4 1 4 C1 4.66 1 5.32 1 6 C0.01 6 -0.98 6 -2 6 C-2 5.01 -2 4.02 -2 3 C-1.34 3 -0.68 3 0 3 C0 2.01 0 1.02 0 0 Z " fill="#CA2627" transform="translate(267,134)"/>
<path d="M0 0 C2.64 0 5.28 0 8 0 C8 0.99 8 1.98 8 3 C5.69 3 3.38 3 1 3 C0.67 2.01 0.34 1.02 0 0 Z " fill="#9C040B" transform="translate(270,132)"/>
<path d="M0 0 C0.99 0 1.98 0 3 0 C3 0.66 3 1.32 3 2 C3.99 2 4.98 2 6 2 C6 3.32 6 4.64 6 6 C5.01 6 4.02 6 3 6 C3 5.01 3 4.02 3 3 C2.01 3 1.02 3 0 3 C0 2.01 0 1.02 0 0 Z " fill="#F0B7B7" transform="translate(39,254)"/>
<path d="M0 0 C0.66 0 1.32 0 2 0 C2 1.65 2 3.3 2 5 C1.34 5 0.68 5 0 5 C0 6.32 0 7.64 0 9 C-1.98 9 -3.96 9 -6 9 C-6 8.67 -6 8.34 -6 8 C-4.35 8 -2.7 8 -1 8 C-0.67 5.36 -0.34 2.72 0 0 Z " fill="#BD3134" transform="translate(10,186)"/>
<path d="M0 0 C1.98 0 3.96 0 6 0 C6 0.66 6 1.32 6 2 C5.01 2 4.02 2 3 2 C3 2.99 3 3.98 3 5 C2.01 5 1.02 5 0 5 C0 3.35 0 1.7 0 0 Z " fill="#EC1216" transform="translate(50,165)"/>
<path d="M0 0 C0.99 0 1.98 0 3 0 C3 1.32 3 2.64 3 4 C2.01 4 1.02 4 0 4 C0 4.66 0 5.32 0 6 C-0.99 6 -1.98 6 -3 6 C-3 5.01 -3 4.02 -3 3 C-2.01 3 -1.02 3 0 3 C0 2.01 0 1.02 0 0 Z " fill="#EE9090" transform="translate(45,153)"/>
<path d="M0 0 C2.97 0 5.94 0 9 0 C9 0.66 9 1.32 9 2 C4.545 2.495 4.545 2.495 0 3 C0 2.01 0 1.02 0 0 Z " fill="#6C0001" transform="translate(96,129)"/>
<path d="M0 0 C0.99 0 1.98 0 3 0 C3 0.99 3 1.98 3 3 C1.02 3 -0.96 3 -3 3 C-3 3.66 -3 4.32 -3 5 C-3.99 5 -4.98 5 -6 5 C-6 4.01 -6 3.02 -6 2 C-4.02 2 -2.04 2 0 2 C0 1.34 0 0.68 0 0 Z " fill="#330102" transform="translate(224,118)"/>
<path d="M0 0 C2.97 0 5.94 0 9 0 C9 0.99 9 1.98 9 3 C7.02 3 5.04 3 3 3 C3 2.34 3 1.68 3 1 C2.01 0.67 1.02 0.34 0 0 Z " fill="#7A7A7A" transform="translate(270,66)"/>
<path d="M0 0 C2.64 0.33 5.28 0.66 8 1 C8 1.66 8 2.32 8 3 C5.36 3 2.72 3 0 3 C0 2.01 0 1.02 0 0 Z " fill="#454545" transform="translate(246,58)"/>
<path d="M0 0 C0.99 0 1.98 0 3 0 C3 0.66 3 1.32 3 2 C3.66 2 4.32 2 5 2 C5 3.98 5 5.96 5 8 C4.67 7.34 4.34 6.68 4 6 C3.34 6 2.68 6 2 6 C2 4.68 2 3.36 2 2 C1.34 2 0.68 2 0 2 C0 1.34 0 0.68 0 0 Z " fill="#EB7A79" transform="translate(97,251)"/>
<path d="M0 0 C0.99 0 1.98 0 3 0 C3 0.99 3 1.98 3 3 C1.35 3 -0.3 3 -2 3 C-2 3.66 -2 4.32 -2 5 C-2.99 5 -3.98 5 -5 5 C-5 4.01 -5 3.02 -5 2 C-3.35 2 -1.7 2 0 2 C0 1.34 0 0.68 0 0 Z " fill="#E76C6A" transform="translate(213,230)"/>
<path d="M0 0 C1.98 0 3.96 0 6 0 C5.67 1.32 5.34 2.64 5 4 C3.35 3.67 1.7 3.34 0 3 C0 2.01 0 1.02 0 0 Z " fill="#E23537" transform="translate(167,221)"/>
<path d="M0 0 C0.66 0 1.32 0 2 0 C2 1.32 2 2.64 2 4 C1.34 4 0.68 4 0 4 C0 4.66 0 5.32 0 6 C-1.98 6 -3.96 6 -6 6 C-5.01 5.67 -4.02 5.34 -3 5 C-3 4.34 -3 3.68 -3 3 C-2.01 3 -1.02 3 0 3 C0 2.01 0 1.02 0 0 Z " fill="#EF5757" transform="translate(238,213)"/>
<path d="M0 0 C0.99 0 1.98 0 3 0 C3 0.66 3 1.32 3 2 C3.99 2 4.98 2 6 2 C6 2.99 6 3.98 6 5 C4.68 5 3.36 5 2 5 C2 4.34 2 3.68 2 3 C1.34 3 0.68 3 0 3 C0 2.01 0 1.02 0 0 Z " fill="#8C7A79" transform="translate(243,189)"/>
<path d="M0 0 C2.64 0 5.28 0 8 0 C7.01 0.495 7.01 0.495 6 1 C6 1.66 6 2.32 6 3 C4.02 3 2.04 3 0 3 C0 2.01 0 1.02 0 0 Z " fill="#494949" transform="translate(221,180)"/>
<path d="M0 0 C1.32 0 2.64 0 4 0 C4 0.99 4 1.98 4 3 C3.01 3 2.02 3 1 3 C1 3.66 1 4.32 1 5 C0.01 5 -0.98 5 -2 5 C-2 4.01 -2 3.02 -2 2 C-1.34 2 -0.68 2 0 2 C0 1.34 0 0.68 0 0 Z " fill="#E9A2A1" transform="translate(33,175)"/>
<path d="M0 0 C1.8871875 0.0309375 1.8871875 0.0309375 3.8125 0.0625 C3.8125 0.3925 3.8125 0.7225 3.8125 1.0625 C2.1625 1.0625 0.5125 1.0625 -1.1875 1.0625 C-1.1875 1.7225 -1.1875 2.3825 -1.1875 3.0625 C-3.1675 3.0625 -5.1475 3.0625 -7.1875 3.0625 C-7.1875 2.4025 -7.1875 1.7425 -7.1875 1.0625 C-4.43671116 0.14557039 -2.82801087 -0.04636083 0 0 Z " fill="#2A2B2B" transform="translate(152.1875,171.9375)"/>
<path d="M0 0 C1.98 0 3.96 0 6 0 C6 0.66 6 1.32 6 2 C6.66 2.33 7.32 2.66 8 3 C5.36 3 2.72 3 0 3 C0 2.01 0 1.02 0 0 Z " fill="#1D1C20" transform="translate(183,167)"/>
<path d="M0 0 C0.99 0 1.98 0 3 0 C3 1.32 3 2.64 3 4 C2.34 4 1.68 4 1 4 C1 4.66 1 5.32 1 6 C0.01 6 -0.98 6 -2 6 C-2 5.01 -2 4.02 -2 3 C-1.34 3 -0.68 3 0 3 C0 2.01 0 1.02 0 0 Z " fill="#BABABA" transform="translate(237,166)"/>
<path d="M0 0 C1.98 0 3.96 0 6 0 C6 0.99 6 1.98 6 3 C3.36 3 0.72 3 -2 3 C-1.34 2.67 -0.68 2.34 0 2 C0 1.34 0 0.68 0 0 Z " fill="#E17072" transform="translate(137,162)"/>
<path d="M0 0 C0.99 0 1.98 0 3 0 C3 1.65 3 3.3 3 5 C2.01 5 1.02 5 0 5 C0 4.34 0 3.68 0 3 C-0.66 3 -1.32 3 -2 3 C-2.33 3.66 -2.66 4.32 -3 5 C-3 4.01 -3 3.02 -3 2 C-2.01 2 -1.02 2 0 2 C0 1.34 0 0.68 0 0 Z " fill="#B20C0E" transform="translate(42,151)"/>
<path d="M0 0 C0.99 0 1.98 0 3 0 C3 0.99 3 1.98 3 3 C1.02 3 -0.96 3 -3 3 C-3 3.66 -3 4.32 -3 5 C-3.99 5 -4.98 5 -6 5 C-5.67 4.01 -5.34 3.02 -5 2 C-3.35 2 -1.7 2 0 2 C0 1.34 0 0.68 0 0 Z " fill="#EDA3AF" transform="translate(66,153)"/>
<path d="M0 0 C1.98 0 3.96 0 6 0 C6 0.99 6 1.98 6 3 C3.36 3 0.72 3 -2 3 C-1.34 2.67 -0.68 2.34 0 2 C0 1.34 0 0.68 0 0 Z " fill="#4D0000" transform="translate(66,137)"/>
<path d="M0 0 C1.98 0 3.96 0 6 0 C6 0.66 6 1.32 6 2 C6.66 2.33 7.32 2.66 8 3 C5.36 3 2.72 3 0 3 C0 2.01 0 1.02 0 0 Z " fill="#750706" transform="translate(145,129)"/>
<path d="M0 0 C1.32 0 2.64 0 4 0 C4 0.99 4 1.98 4 3 C3.01 3 2.02 3 1 3 C1 3.66 1 4.32 1 5 C0.01 5 -0.98 5 -2 5 C-2 4.01 -2 3.02 -2 2 C-1.34 2 -0.68 2 0 2 C0 1.34 0 0.68 0 0 Z " fill="#D73C3E" transform="translate(283,124)"/>
<path d="M0 0 C0.99 0 1.98 0 3 0 C3 0.99 3 1.98 3 3 C2.34 3 1.68 3 1 3 C1 4.65 1 6.3 1 8 C0.01 8 -0.98 8 -2 8 C-2 7.01 -2 6.02 -2 5 C-1.34 5 -0.68 5 0 5 C0 3.35 0 1.7 0 0 Z " fill="#E75F62" transform="translate(289,113)"/>
<path d="M0 0 C1.98 0 3.96 0 6 0 C6 0.99 6 1.98 6 3 C3.36 3 0.72 3 -2 3 C-1.34 2.67 -0.68 2.34 0 2 C0 1.34 0 0.68 0 0 Z " fill="#BDBDBD" transform="translate(69,77)"/>
<path d="M0 0 C2.97 0.495 2.97 0.495 6 1 C6 1.99 6 2.98 6 4 C4.02 4 2.04 4 0 4 C0 2.68 0 1.36 0 0 Z " fill="#BFBFBF" transform="translate(281,68)"/>
<path d="M0 0 C0.99 0 1.98 0 3 0 C3 0.99 3 1.98 3 3 C2.34 3 1.68 3 1 3 C1 3.99 1 4.98 1 6 C0.01 6 -0.98 6 -2 6 C-2 4.68 -2 3.36 -2 2 C-1.34 2 -0.68 2 0 2 C0 1.34 0 0.68 0 0 Z " fill="#E7A4A4" transform="translate(96,56)"/>
<path d="M0 0 C0.99 0 1.98 0 3 0 C3 0.66 3 1.32 3 2 C3.99 2 4.98 2 6 2 C6 3.32 6 4.64 6 6 C5.01 5.67 4.02 5.34 3 5 C3 4.34 3 3.68 3 3 C2.01 3 1.02 3 0 3 C0 2.01 0 1.02 0 0 Z " fill="#ECA9AA" transform="translate(25,48)"/>
<path d="M0 0 C1.65 0.33 3.3 0.66 5 1 C5 1.99 5 2.98 5 4 C3.02 4 1.04 4 -1 4 C-0.67 2.68 -0.34 1.36 0 0 Z " fill="#F25051" transform="translate(59,41)"/>
<path d="M0 0 C0.99 0 1.98 0 3 0 C3 1.65 3 3.3 3 5 C3.66 5 4.32 5 5 5 C5 5.99 5 6.98 5 8 C4.01 7.67 3.02 7.34 2 7 C2 5.68 2 4.36 2 3 C1.34 3 0.68 3 0 3 C0 2.01 0 1.02 0 0 Z " fill="#E69595" transform="translate(20,227)"/>
<path d="M0 0 C1.65 0 3.3 0 5 0 C5 0.99 5 1.98 5 3 C4.01 3 3.02 3 2 3 C2 3.66 2 4.32 2 5 C1.34 5 0.68 5 0 5 C0 3.35 0 1.7 0 0 Z " fill="#D32B31" transform="translate(243,205)"/>
<path d="M0 0 C0.66 0 1.32 0 2 0 C2 2.64 2 5.28 2 8 C0.68 7.67 -0.64 7.34 -2 7 C-1.34 4.69 -0.68 2.38 0 0 Z " fill="#0A0000" transform="translate(5,186)"/>
<path d="M0 0 C0.66 0 1.32 0 2 0 C2 1.98 2 3.96 2 6 C1.34 6 0.68 6 0 6 C-0.33 6.66 -0.66 7.32 -1 8 C-1.04241723 5.66705225 -1.04092937 3.33297433 -1 1 C-0.67 0.67 -0.34 0.34 0 0 Z " fill="#555656" transform="translate(7,161)"/>
<path d="M0 0 C2.64 0 5.28 0 8 0 C8 0.66 8 1.32 8 2 C5.36 2.33 2.72 2.66 0 3 C0 2.01 0 1.02 0 0 Z " fill="#640404" transform="translate(164,132)"/>
<path d="M0 0 C0.99 0 1.98 0 3 0 C2.67 0.99 2.34 1.98 2 3 C0.68 3 -0.64 3 -2 3 C-2 3.66 -2 4.32 -2 5 C-2.99 5 -3.98 5 -5 5 C-5 4.01 -5 3.02 -5 2 C-3.35 2 -1.7 2 0 2 C0 1.34 0 0.68 0 0 Z " fill="#3B393D" transform="translate(99,64)"/>
<path d="M0 0 C2.64 0 5.28 0 8 0 C8 0.99 8 1.98 8 3 C3.44615385 3.36923077 3.44615385 3.36923077 1.1875 1.5 C0.5996875 0.7575 0.5996875 0.7575 0 0 Z " fill="#3A3A3A" transform="translate(254,61)"/>
<path d="M0 0 C3 0 3 0 4.6875 1.3125 C6 3 6 3 6 6 C5.01 6 4.02 6 3 6 C3 5.01 3 4.02 3 3 C2.01 3 1.02 3 0 3 C0 2.01 0 1.02 0 0 Z " fill="#945A59" transform="translate(213,44)"/>
<path d="M0 0 C1.98 0 3.96 0 6 0 C6 0.99 6 1.98 6 3 C4.02 3 2.04 3 0 3 C0 2.01 0 1.02 0 0 Z " fill="#C91A1D" transform="translate(145,232)"/>
<path d="M0 0 C2.64 0 5.28 0 8 0 C7.01 0.33 6.02 0.66 5 1 C5 1.66 5 2.32 5 3 C3.35 3 1.7 3 0 3 C0 2.01 0 1.02 0 0 Z " fill="#530908" transform="translate(208,226)"/>
<path d="M0 0 C1.98 0 3.96 0 6 0 C6 0.99 6 1.98 6 3 C4.02 3 2.04 3 0 3 C0 2.01 0 1.02 0 0 Z " fill="#AD090E" transform="translate(153,224)"/>
<path d="M0 0 C0.99 0 1.98 0 3 0 C3 1.98 3 3.96 3 6 C2.01 6 1.02 6 0 6 C0 4.02 0 2.04 0 0 Z " fill="#1B1B1B" transform="translate(126,218)"/>
<path d="M0 0 C0.99 0 1.98 0 3 0 C3 1.98 3 3.96 3 6 C2.01 6 1.02 6 0 6 C0 4.02 0 2.04 0 0 Z " fill="#F0625F" transform="translate(20,194)"/>
<path d="M0 0 C0.99 0 1.98 0 3 0 C3 1.98 3 3.96 3 6 C2.01 6 1.02 6 0 6 C0 4.02 0 2.04 0 0 Z " fill="#616161" transform="translate(123,191)"/>
<path d="M0 0 C0.99 0 1.98 0 3 0 C3 0.99 3 1.98 3 3 C2.34 3 1.68 3 1 3 C1 3.99 1 4.98 1 6 C0.01 6 -0.98 6 -2 6 C-2 5.01 -2 4.02 -2 3 C-1.34 3 -0.68 3 0 3 C0 2.01 0 1.02 0 0 Z " fill="#E69D9E" transform="translate(99,189)"/>
<path d="M0 0 C0.99 0 1.98 0 3 0 C3 1.98 3 3.96 3 6 C2.01 6 1.02 6 0 6 C0 4.02 0 2.04 0 0 Z " fill="#3D0001" transform="translate(240,183)"/>
<path d="M0 0 C0.99 0 1.98 0 3 0 C3 1.98 3 3.96 3 6 C2.01 6 1.02 6 0 6 C0 4.02 0 2.04 0 0 Z " fill="#C72D32" transform="translate(243,183)"/>
<path d="M0 0 C0.99 0 1.98 0 3 0 C3 0.66 3 1.32 3 2 C3.99 2 4.98 2 6 2 C6 2.99 6 3.98 6 5 C5.01 5 4.02 5 3 5 C3 4.34 3 3.68 3 3 C2.01 3 1.02 3 0 3 C0 2.01 0 1.02 0 0 Z " fill="#685C5C" transform="translate(194,175)"/>
<path d="M0 0 C1.98 0 3.96 0 6 0 C6 0.99 6 1.98 6 3 C4.02 3 2.04 3 0 3 C0 2.01 0 1.02 0 0 Z " fill="#AAAAAA" transform="translate(145,169)"/>
<path d="M0 0 C0.99 0 1.98 0 3 0 C3 0.99 3 1.98 3 3 C2.01 3 1.02 3 0 3 C0 3.66 0 4.32 0 5 C-0.99 5 -1.98 5 -3 5 C-3 4.01 -3 3.02 -3 2 C-2.01 2 -1.02 2 0 2 C0 1.34 0 0.68 0 0 Z " fill="#E4888C" transform="translate(47,164)"/>
<path d="M0 0 C1.98 0 3.96 0 6 0 C6 0.99 6 1.98 6 3 C4.02 3 2.04 3 0 3 C0 2.01 0 1.02 0 0 Z " fill="#F26A70" transform="translate(148,159)"/>
<path d="M0 0 C0.66 0 1.32 0 2 0 C2 1.98 2 3.96 2 6 C1.01 6.33 0.02 6.66 -1 7 C-1.04254356 5.00045254 -1.04080783 2.99958364 -1 1 C-0.67 0.67 -0.34 0.34 0 0 Z " fill="#9C9C9C" transform="translate(7,155)"/>
<path d="M0 0 C1.98 0 3.96 0 6 0 C6 0.99 6 1.98 6 3 C4.02 3 2.04 3 0 3 C0 2.01 0 1.02 0 0 Z " fill="#EC151B" transform="translate(172,148)"/>
<path d="M0 0 C1.98 0 3.96 0 6 0 C6 0.99 6 1.98 6 3 C4.02 3 2.04 3 0 3 C0 2.01 0 1.02 0 0 Z " fill="#F56C6F" transform="translate(96,145)"/>
<path d="M0 0 C1.98 0 3.96 0 6 0 C6 0.99 6 1.98 6 3 C4.02 3 2.04 3 0 3 C0 2.01 0 1.02 0 0 Z " fill="#ED4F53" transform="translate(99,132)"/>
<path d="M0 0 C0.99 0 1.98 0 3 0 C3 1.98 3 3.96 3 6 C2.01 6 1.02 6 0 6 C0 4.02 0 2.04 0 0 Z " fill="#8A080D" transform="translate(278,126)"/>
<path d="M0 0 C1.98 0 3.96 0 6 0 C6 0.99 6 1.98 6 3 C4.02 3 2.04 3 0 3 C0 2.01 0 1.02 0 0 Z " fill="#180000" transform="translate(134,126)"/>
<path d="M0 0 C1.98 0 3.96 0 6 0 C6 0.99 6 1.98 6 3 C4.02 3 2.04 3 0 3 C0 2.01 0 1.02 0 0 Z " fill="#E13137" transform="translate(224,121)"/>
<path d="M0 0 C0.99 0 1.98 0 3 0 C3 1.98 3 3.96 3 6 C2.01 6 1.02 6 0 6 C0 4.02 0 2.04 0 0 Z " fill="#AC090E" transform="translate(289,107)"/>
<path d="M0 0 C0.99 0.33 1.98 0.66 3 1 C3 1.99 3 2.98 3 4 C2.34 4 1.68 4 1 4 C1 4.66 1 5.32 1 6 C0.01 6 -0.98 6 -2 6 C-2 5.01 -2 4.02 -2 3 C-1.34 3 -0.68 3 0 3 C0 2.01 0 1.02 0 0 Z " fill="#CACACA" transform="translate(47,90)"/>
<path d="M0 0 C1.98 0 3.96 0 6 0 C6 0.99 6 1.98 6 3 C4.02 3 2.04 3 0 3 C0 2.01 0 1.02 0 0 Z " fill="#EB0607" transform="translate(85,58)"/>
<path d="M0 0 C1.98 0 3.96 0 6 0 C6 0.99 6 1.98 6 3 C4.02 3 2.04 3 0 3 C0 2.01 0 1.02 0 0 Z " fill="#EA0607" transform="translate(47,58)"/>
<path d="M0 0 C1.98 0 3.96 0 6 0 C6 0.99 6 1.98 6 3 C4.02 3 2.04 3 0 3 C0 2.01 0 1.02 0 0 Z " fill="#484848" transform="translate(191,39)"/>
<path d="M0 0 C1.98 0 3.96 0 6 0 C6 0.99 6 1.98 6 3 C4.02 3 2.04 3 0 3 C0 2.01 0 1.02 0 0 Z " fill="#ED6A69" transform="translate(82,39)"/>
<path d="M0 0 C1.65 0 3.3 0 5 0 C5 0.66 5 1.32 5 2 C4.01 2 3.02 2 2 2 C1.67 3.32 1.34 4.64 1 6 C0.67 6 0.34 6 0 6 C0 4.02 0 2.04 0 0 Z " fill="#DC3036" transform="translate(227,219)"/>
<path d="M0 0 C0.99 0.33 1.98 0.66 3 1 C3 1.66 3 2.32 3 3 C2.01 3 1.02 3 0 3 C0 3.99 0 4.98 0 6 C-0.66 6 -1.32 6 -2 6 C-2 4.35 -2 2.7 -2 1 C-1.34 0.67 -0.68 0.34 0 0 Z " fill="#820508" transform="translate(248,199)"/>
<path d="M0 0 C0.99 0 1.98 0 3 0 C3 0.99 3 1.98 3 3 C2.34 3 1.68 3 1 3 C0.67 3.99 0.34 4.98 0 6 C-0.66 6 -1.32 6 -2 6 C-2 5.01 -2 4.02 -2 3 C-1.34 3 -0.68 3 0 3 C0 2.01 0 1.02 0 0 Z " fill="#F59696" transform="translate(110,175)"/>
<path d="M0 0 C0.66 0 1.32 0 2 0 C2 1.98 2 3.96 2 6 C1.01 6 0.02 6 -1 6 C-1.042721 4.33388095 -1.04063832 2.66617115 -1 1 C-0.67 0.67 -0.34 0.34 0 0 Z " fill="#9D9D9D" transform="translate(15,131)"/>
<path d="M0 0 C0.99 0 1.98 0 3 0 C2.67 0.99 2.34 1.98 2 3 C1.34 3 0.68 3 0 3 C0 3.66 0 4.32 0 5 C-0.99 5 -1.98 5 -3 5 C-3 4.01 -3 3.02 -3 2 C-2.01 2 -1.02 2 0 2 C0 1.34 0 0.68 0 0 Z " fill="#F9A7A9" transform="translate(219,127)"/>
<path d="M0 0 C1.98 0 3.96 0 6 0 C5.01 0.33 4.02 0.66 3 1 C3 1.99 3 2.98 3 4 C2.34 4 1.68 4 1 4 C0.67 4.66 0.34 5.32 0 6 C0 4.02 0 2.04 0 0 Z " fill="#A0A0A0" transform="translate(36,101)"/>
<path d="M0 0 C0.66 0 1.32 0 2 0 C2 0.99 2 1.98 2 3 C1.34 3 0.68 3 0 3 C0 3.99 0 4.98 0 6 C-0.99 6 -1.98 6 -3 6 C-3 5.01 -3 4.02 -3 3 C-2.34 3 -1.68 3 -1 3 C-0.67 2.01 -0.34 1.02 0 0 Z " fill="#878787" transform="translate(99,60)"/>
</svg>
