<?xml version="1.0" encoding="UTF-8"?>
<svg version="1.1" xmlns="http://www.w3.org/2000/svg" width="400" height="400">
<path d="M0 0 C132 0 264 0 400 0 C400 132 400 264 400 400 C268 400 136 400 0 400 C0 268 0 136 0 0 Z " fill="#FDFDFD" transform="translate(0,0)"/>
<path d="M0 0 C2.47473237 2.18562812 4.87038605 4.43449456 7.2578125 6.71484375 C8.05445313 7.42511719 8.85109375 8.13539062 9.671875 8.8671875 C32.52416744 30.08717334 44.09309818 62.42322789 45.47265625 93 C46.11694685 114.58254622 41.86514986 136.01550293 31.61328125 155.0546875 C30.10647777 157.51424585 30.10647777 157.51424585 30.2578125 159.71484375 C31.36256481 160.72025866 32.51954493 161.66848203 33.6953125 162.58984375 C47.68615901 174.60318545 54.35517101 191.14315143 58.2578125 208.71484375 C58.48339844 209.70484375 58.70898438 210.69484375 58.94140625 211.71484375 C59.90101515 216.37391043 60.34783185 220.78270919 60.3046875 225.54296875 C60.29791992 226.5165332 60.29115234 227.49009766 60.28417969 228.49316406 C60.27547852 229.22631836 60.26677734 229.95947266 60.2578125 230.71484375 C32.99552864 231.32337687 6.12730548 229.45625603 -14.7421875 209.71484375 C-14.7421875 209.05484375 -14.7421875 208.39484375 -14.7421875 207.71484375 C-20.34174887 209.90822032 -25.87009786 212.21269502 -31.3671875 214.65234375 C-56.99945792 225.63363097 -86.5337143 229.03865844 -113.7421875 221.71484375 C-114.44923828 221.52680176 -115.15628906 221.33875977 -115.88476562 221.14501953 C-148.49321666 212.11664443 -176.75705831 189.93687439 -193.7421875 160.71484375 C-210.31562131 130.66434731 -214.22467376 95.44994326 -205.1796875 62.40234375 C-199.10704248 41.53166163 -188.72027602 24.38958755 -173.7421875 8.71484375 C-173.09378906 7.99167969 -172.44539063 7.26851562 -171.77734375 6.5234375 C-156.30421128 -10.07825357 -135.29026709 -20.20812466 -113.7421875 -26.28515625 C-112.54078125 -26.62675781 -111.339375 -26.96835938 -110.1015625 -27.3203125 C-71.38705697 -36.32855783 -30.13815398 -25.11512832 0 0 Z " fill="#90C54A" transform="translate(270.7421875,95.28515625)"/>
<path d="M0 0 C10.13342847 8.63648038 18.40133688 20.45443444 19.68945312 34.09204102 C20.50847541 51.55828594 17.98782883 65.58416545 6.36962891 79.25390625 C-3.49350815 89.69210253 -16.35814188 96.0780119 -30.75537109 96.984375 C-47.39849842 97.21393538 -60.16635043 92.57602838 -72.31005859 81.06640625 C-82.55054196 70.51942955 -88.1742677 57.56238299 -88.90380859 42.78125 C-88.16808735 28.94969054 -83.16701827 14.63090396 -73.46240234 4.515625 C-52.91210375 -13.9173701 -22.44636956 -17.8940078 0 0 Z " fill="#FDFDFC" transform="translate(222.52880859375,150.21875)"/>
<path d="M0 0 C32.50793651 -0.82539683 32.50793651 -0.82539683 46 4 C47.67449219 4.5259375 47.67449219 4.5259375 49.3828125 5.0625 C68.33125154 11.51303244 80.76870631 24.98536886 89.765625 42.421875 C93.82989732 51.3304315 96.09054204 60.4429181 98 70 C98.19980469 70.928125 98.39960938 71.85625 98.60546875 72.8125 C99.19045853 77.53875408 99.07616208 82.24410104 99 87 C71.44949378 87.61496666 45.22714102 85.59076493 24 66 C7.73700502 47.72612465 -0.33504269 24.36674077 0 0 Z " fill="#018A5A" transform="translate(232,239)"/>
<path d="M0 0 C0.33 0 0.66 0 1 0 C1.04254356 1.99954746 1.04080783 4.00041636 1 6 C0.67 6.33 0.34 6.66 0 7 C-0.74703859 10.98781512 -0.74703859 10.98781512 -1 15 C-0.34 15.66 0.32 16.32 1 17 C0.278125 17.103125 -0.44375 17.20625 -1.1875 17.3125 C-4.27746686 18.06782523 -6.39558686 19.19137976 -9 21 C-9.33 21.66 -9.66 22.32 -10 23 C-9.01 23.33 -8.02 23.66 -7 24 C-7 25.32 -7 26.64 -7 28 C-4.69 28 -2.38 28 0 28 C0 28.66 0 29.32 0 30 C1.30453125 29.90460938 2.6090625 29.80921875 3.953125 29.7109375 C13.62529096 29.07334447 22.51208819 28.66659079 32 31 C32 31.66 32 32.32 32 33 C31.45939941 32.93433838 30.91879883 32.86867676 30.36181641 32.80102539 C22.38225929 31.91159471 14.3941879 31.67111487 6.375 31.4375 C4.97525068 31.39419373 3.57551096 31.35057613 2.17578125 31.30664062 C-1.21605254 31.20137682 -4.6080148 31.10026623 -8 31 C-7.505 39.415 -7.505 39.415 -7 48 C-7.33 48 -7.66 48 -8 48 C-8.144375 46.865625 -8.28875 45.73125 -8.4375 44.5625 C-8.61171478 41.19222799 -8.61171478 41.19222799 -10 40 C-10.20904433 38.37990641 -10.36785857 36.75317119 -10.5 35.125 C-10.74279416 32.15077151 -11.05025071 29.84924786 -12 27 C-17.21412064 28.94251553 -20.15741951 30.85405789 -24 35 C-27.30469907 37.97422916 -29.54794853 39.49119412 -34 40 C-34.33 38.68 -34.66 37.36 -35 36 C-34.10539063 35.59910156 -33.21078125 35.19820312 -32.2890625 34.78515625 C-17.17335215 27.77785942 -6.4746536 17.73441355 -0.62890625 1.8359375 C-0.42136719 1.23007813 -0.21382812 0.62421875 0 0 Z " fill="#97C35A" transform="translate(240,208)"/>
<path d="M0 0 C0.94314127 3.41610225 1.08065117 6.45134864 1 10 C0.34 10 -0.32 10 -1 10 C-3.13813915 29.18598074 -3.37969071 47.75824201 -2 67 C-1.34 67 -0.68 67 0 67 C0.21914062 67.90878906 0.43828125 68.81757813 0.6640625 69.75390625 C3.79385637 84.89108762 3.79385637 84.89108762 11 98 C11.04063832 99.66617115 11.042721 101.33388095 11 103 C-5.13506157 83.49124374 -7.68029998 50.81860777 -5.6875 26.7578125 C-4.75936946 17.55846617 -2.61705956 8.84210413 0 0 Z " fill="#9AC067" transform="translate(67,153)"/>
<path d="M0 0 C2.64752004 2.57784846 4.94432065 4.91648098 7 8 C-23.85919644 22.70046685 -56.89667454 31.29315619 -91 22 C-93.4375 20.8984375 -93.4375 20.8984375 -95 20 C-92.83281491 20.11566437 -90.66625284 20.24302241 -88.5 20.375 C-87.2934375 20.44460938 -86.086875 20.51421875 -84.84375 20.5859375 C-81 21 -81 21 -77.296875 22.0234375 C-71.84162348 23.47596442 -66.35908735 23.29094224 -60.75 23.25 C-59.67492187 23.25773437 -58.59984375 23.26546875 -57.4921875 23.2734375 C-55.94144531 23.26957031 -55.94144531 23.26957031 -54.359375 23.265625 C-53.42577148 23.26336914 -52.49216797 23.26111328 -51.53027344 23.25878906 C-48.88054094 22.98778207 -47.3136641 22.26011233 -45 21 C-42.45703125 20.83984375 -42.45703125 20.83984375 -39.8125 20.9375 C-38.20910693 20.9914942 -36.60417155 21.02045392 -35 21 C-34.505 20.505 -34.505 20.505 -34 20 C-32.329375 19.87625 -32.329375 19.87625 -30.625 19.75 C-25.80042266 19.22163516 -21.92862941 17.28143739 -17.59375 15.19140625 C-15 14 -15 14 -11.4375 13 C-6.64665926 11.60630088 -2.40195837 9.32054948 2 7 C1.34 4.69 0.68 2.38 0 0 Z " fill="#98C066" transform="translate(248,295)"/>
<path d="M0 0 C2.375 1.625 2.375 1.625 4 4 C4.61195145 7.6717087 4.48706506 9.28813568 2.375 12.375 C-0.71186432 14.48706506 -2.3282913 14.61195145 -6 14 C-8.375 12.375 -8.375 12.375 -10 10 C-10.61195145 6.3282913 -10.48706506 4.71186432 -8.375 1.625 C-5.28813568 -0.48706506 -3.6717087 -0.61195145 0 0 Z " fill="#9BC1B5" transform="translate(351,312)"/>
<path d="M0 0 C20.03405069 -0.50867707 37.33862042 -0.43350808 56 8 C52.2342563 9.22000336 50.68069967 8.46249375 47.140625 6.76171875 C43.63275221 5.51347934 40.05122072 5.47681418 36.35546875 5.30859375 C34 5 34 5 32 3 C28.89243985 2.62677573 28.89243985 2.62677573 25.2421875 2.5859375 C24.57913605 2.56657135 23.91608459 2.5472052 23.23294067 2.5272522 C21.11375823 2.46744046 18.9945215 2.42106612 16.875 2.375 C15.43877831 2.33682155 14.00257955 2.29776989 12.56640625 2.2578125 C9.04448064 2.16173875 5.52238392 2.07771358 2 2 C2.15210938 3.24394531 2.30421875 4.48789063 2.4609375 5.76953125 C2.54649902 6.46925049 2.63206055 7.16896973 2.72021484 7.88989258 C2.9773068 9.82885053 3.29814834 11.7590752 3.625 13.6875 C3.97861619 16.81110972 3.82030583 18.99221197 3 22 C2.67 22 2.34 22 2 22 C1.65765935 20.02237145 1.32664439 18.04278161 1 16.0625 C0.814375 14.96035156 0.62875 13.85820312 0.4375 12.72265625 C-0.06434441 8.45249804 -0.08770982 4.29229949 0 0 Z " fill="#138846" transform="translate(232,239)"/>
<path d="M0 0 C3.52670143 3.16644698 6.80888819 6.49739137 10 10 C9.34 10.33 8.68 10.66 8 11 C3.125 7.25 3.125 7.25 2 5 C0.02477154 3.95191959 -1.97481509 2.9479589 -4 2 C-4 1.01 -4 0.02 -4 -1 C-4.9075 -0.9175 -5.815 -0.835 -6.75 -0.75 C-10.79278821 -1.06098371 -11.25972623 -2.17668763 -14 -5 C-20.33641573 -7.43040603 -26.71310567 -7.43344455 -33.4375 -7.625 C-35.1071582 -7.68300781 -35.1071582 -7.68300781 -36.81054688 -7.7421875 C-39.54020476 -7.83590966 -42.26986563 -7.92162294 -45 -8 C-45.33 -7.34 -45.66 -6.68 -46 -6 C-48.31470912 -5.27129528 -50.6505947 -4.60760482 -53 -4 C-53.99 -3.67 -54.98 -3.34 -56 -3 C-56 -2.34 -56 -1.68 -56 -1 C-58.31 -0.67 -60.62 -0.34 -63 0 C-47.94030898 -17.1042186 -16.22457291 -11.35720104 0 0 Z " fill="#EEFCDC" transform="translate(221,149)"/>
<path d="M0 0 C0.33 0 0.66 0 1 0 C4.91424401 23.3397209 5.94961398 46.28681719 -2 69 C-3.54786998 65.00219011 -2.4461179 61.40136322 -1.5625 57.375 C-0.39846101 51.75466474 0.29132181 46.58666334 -0.08984375 40.8203125 C0 39 0 39 2 37 C2.90680106 29.17217322 1.5764061 21.31648118 0.4453125 13.58203125 C-0.12088376 9.02762799 -0.19395611 4.57951928 0 0 Z " fill="#9CC067" transform="translate(312,163)"/>
<path d="M0 0 C1.23556641 0.01740234 1.23556641 0.01740234 2.49609375 0.03515625 C3.32238281 0.04417969 4.14867187 0.05320313 5 0.0625 C5.63808594 0.07410156 6.27617187 0.08570313 6.93359375 0.09765625 C6.93359375 0.75765625 6.93359375 1.41765625 6.93359375 2.09765625 C8.238125 2.00226563 9.54265625 1.906875 10.88671875 1.80859375 C20.55888471 1.17100072 29.44568194 0.76424704 38.93359375 3.09765625 C38.93359375 3.75765625 38.93359375 4.41765625 38.93359375 5.09765625 C38.12269287 4.99916382 38.12269287 4.99916382 37.29541016 4.89868164 C29.31585304 4.00925096 21.32778165 3.76877112 13.30859375 3.53515625 C11.90884443 3.49184998 10.50910471 3.44823238 9.109375 3.40429688 C5.71754121 3.29903307 2.32557895 3.19792248 -1.06640625 3.09765625 C-0.73640625 8.70765625 -0.40640625 14.31765625 -0.06640625 20.09765625 C-0.39640625 20.09765625 -0.72640625 20.09765625 -1.06640625 20.09765625 C-1.21078125 18.96328125 -1.35515625 17.82890625 -1.50390625 16.66015625 C-1.67812103 13.28988424 -1.67812103 13.28988424 -3.06640625 12.09765625 C-3.16491796 10.26649742 -3.19613254 8.43145692 -3.19140625 6.59765625 C-3.19398438 5.59734375 -3.1965625 4.59703125 -3.19921875 3.56640625 C-3.01502055 0.14248679 -3.01502055 0.14248679 0 0 Z " fill="#72C463" transform="translate(233.06640625,235.90234375)"/>
<path d="M0 0 C0.33 0 0.66 0 1 0 C1.34689431 1.6012889 1.67651719 3.20631798 2 4.8125 C2.185625 5.70582031 2.37125 6.59914063 2.5625 7.51953125 C3.16992941 12.35184916 3.07811996 17.13648984 3 22 C-11.32485846 22.3197513 -25.03720629 22.54342801 -39 19 C-39 18.67 -39 18.34 -39 18 C-37.10448978 17.94558344 -35.2085208 17.90701965 -33.3125 17.875 C-32.25675781 17.85179687 -31.20101563 17.82859375 -30.11328125 17.8046875 C-27 18 -27 18 -24.65039062 18.98632812 C-21.77920562 20.08444531 -19.54342493 20.31139358 -16.48046875 20.4140625 C-15.45888672 20.45273437 -14.43730469 20.49140625 -13.38476562 20.53125 C-11.80211914 20.57765625 -11.80211914 20.57765625 -10.1875 20.625 C-9.11306641 20.66367187 -8.03863281 20.70234375 -6.93164062 20.7421875 C-4.28803461 20.83618238 -1.64404124 20.91916849 1 21 C0.505 10.605 0.505 10.605 0 0 Z " fill="#298061" transform="translate(328,304)"/>
<path d="M0 0 C2.31 0.66 4.62 1.32 7 2 C6.67 1.34 6.34 0.68 6 0 C7.65 0 9.3 0 11 0 C10.34 1.32 9.68 2.64 9 4 C20.86667354 4.22082273 32.29459515 4.20337033 44 2 C38.87946892 7.12053108 28.83076519 7.22164594 21.9375 7.375 C13.84086988 7.1850232 5.38691357 6.35241348 -1 1 C-0.67 0.67 -0.34 0.34 0 0 Z " fill="#F0FCDE" transform="translate(166,240)"/>
<path d="M0 0 C0.99 0.33 1.98 0.66 3 1 C3.91012719 9.71980625 4.15685903 18.38037575 4.13037109 27.13769531 C4.12497168 29.2611391 4.13037284 31.38437475 4.13671875 33.5078125 C4.14597682 47.28462195 4.14597682 47.28462195 3 53 C2.01 53.495 2.01 53.495 1 54 C1.0721875 53.12601563 1.144375 52.25203125 1.21875 51.3515625 C2.31199349 36.8660862 2.55139812 22.7563997 0.4375 8.35546875 C0.06679322 5.51228015 -0.08715095 2.85964057 0 0 Z " fill="#EDFCDA" transform="translate(313,163)"/>
<path d="M0 0 C0.66 0.66 1.32 1.32 2 2 C0.65808594 2.92619141 0.65808594 2.92619141 -0.7109375 3.87109375 C-11.42686905 11.34518089 -20.87125245 19.6417588 -30 29 C-30.66 28.34 -31.32 27.68 -32 27 C-30.625 25.5 -30.625 25.5 -29 24 C-28.34 24 -27.68 24 -27 24 C-27 23.34 -27 22.68 -27 22 C-26.34 22 -25.68 22 -25 22 C-25 21.34 -25 20.68 -25 20 C-24.34 20 -23.68 20 -23 20 C-22.67 19.01 -22.34 18.02 -22 17 C-20.0625 14.8125 -20.0625 14.8125 -18 13 C-17.34 13 -16.68 13 -16 13 C-16 12.34 -16 11.68 -16 11 C-15.34 11 -14.68 11 -14 11 C-13.67 10.01 -13.34 9.02 -13 8 C-11.25 7 -11.25 7 -9 6 C-5.34991527 4.14225278 -5.34991527 4.14225278 -3 1 C-2.01 0.67 -1.02 0.34 0 0 Z " fill="#EDFBDE" transform="translate(121,82)"/>
<path d="M0 0 C1.78347352 2.67521029 2.98376824 5.23605714 4.20800781 8.19213867 C8.00879318 17.34551578 12.73492113 25.62281056 18 34 C19.00424427 35.66411274 20.00601998 37.3297361 21 39 C20.01 39 19.02 39 18 39 C16.93360356 37.37501495 15.95289657 35.69403834 15 34 C13.49902832 31.9623906 11.95658789 29.96202769 10.40234375 27.96484375 C7.46741336 23.85267108 5 19.0952435 5 14 C4.34 14 3.68 14 3 14 C0.96006486 9.07015675 -0.40652968 5.42039575 0 0 Z " fill="#EFFBE0" transform="translate(67,233)"/>
<path d="M0 0 C1.05682983 0.10610596 1.05682983 0.10610596 2.13500977 0.21435547 C10.08564567 0.95217033 17.95579046 1.15124124 25.9375 1.125 C27.69610352 1.13080078 27.69610352 1.13080078 29.49023438 1.13671875 C37.36970227 1.12801696 45.15374363 0.71589038 53 0 C49.2780407 1.92515136 46.18884104 3.12253294 41.97509766 3.14526367 C41.17061188 3.15164352 40.3661261 3.15802338 39.53726196 3.16459656 C38.67160614 3.16570938 37.80595032 3.1668222 36.9140625 3.16796875 C36.02012787 3.17129715 35.12619324 3.17462555 34.20516968 3.17805481 C32.31386835 3.18311739 30.4225581 3.18546334 28.53125 3.18530273 C25.64307867 3.18748633 22.7552911 3.20564111 19.8671875 3.22460938 C18.02864714 3.22754404 16.19010496 3.22952835 14.3515625 3.23046875 C13.48995514 3.23765427 12.62834778 3.24483978 11.7406311 3.25224304 C7.37436372 3.23567477 3.97466771 3.04508457 0 1 C0 0.67 0 0.34 0 0 Z " fill="#EDFADA" transform="translate(162,318)"/>
<path d="M0 0 C0.9590625 0.13019531 1.918125 0.26039063 2.90625 0.39453125 C4.34484375 0.57048828 4.34484375 0.57048828 5.8125 0.75 C8.40625 1.20703125 8.40625 1.20703125 11.40625 2.20703125 C11.40625 6.16703125 11.40625 10.12703125 11.40625 14.20703125 C9.09625 15.52703125 6.78625 16.84703125 4.40625 18.20703125 C3.41625 17.54703125 2.42625 16.88703125 1.40625 16.20703125 C2.375625 15.91828125 3.345 15.62953125 4.34375 15.33203125 C7.51289203 14.56488443 7.51289203 14.56488443 8.40625 12.20703125 C8.78240126 8.07638499 8.78240126 8.07638499 7.28125 4.33203125 C4.52534116 2.67848594 2.55549548 2.81337557 -0.59375 3.20703125 C-2.53029948 4.22673443 -2.53029948 4.22673443 -3.59375 6.20703125 C-4.3206726 9.31542146 -4.3206726 9.31542146 -4.59375 12.20703125 C-5.25375 11.54703125 -5.91375 10.88703125 -6.59375 10.20703125 C-6.28152857 5.41963602 -5.47467514 0.43698461 0 0 Z " fill="#E3F8F2" transform="translate(345.59375,309.79296875)"/>
<path d="M0 0 C2.61553978 4.58730456 2.38409097 8.7656458 2.375 13.9375 C2.37338867 14.8773877 2.37177734 15.81727539 2.37011719 16.78564453 C2.18688405 27.24610078 -0.24489062 36.1617963 -6 45 C-6.6875 43.25 -6.6875 43.25 -7 41 C-6.54625 40.401875 -6.0925 39.80375 -5.625 39.1875 C-3.43748548 36.24276892 -3.34573255 33.59561853 -3 30 C-2.34 30 -1.68 30 -1 30 C-0.12313415 23.26815587 0.12387197 16.7214632 0.0625 9.9375 C0.05798828 8.97650391 0.05347656 8.01550781 0.04882812 7.02539062 C0.03717706 4.68352578 0.02082025 2.34179819 0 0 Z " fill="#EDFBDE" transform="translate(240,178)"/>
<path d="M0 0 C2.55340531 2.55340531 2.90143693 4.65718442 3.875 8.125 C5.05784895 12.1493545 6.27593016 15.85936899 8.25 19.5625 C10 23 10 23 10 27 C10.66 27 11.32 27 12 27 C12 27.66 12 28.32 12 29 C12.66 29 13.32 29 14 29 C15.0625 30.8125 15.0625 30.8125 16 33 C15.67 33.99 15.34 34.98 15 36 C7.27464953 26.28617175 0 12.64865494 0 0 Z " fill="#158943" transform="translate(235,261)"/>
<path d="M0 0 C1.31806641 0.00064453 2.63613281 0.00128906 3.99414062 0.00195312 C10.00796128 0.02927487 15.73781467 0.23991726 21.6875 1.1875 C21.0275 1.8475 20.3675 2.5075 19.6875 3.1875 C17.84622183 2.9879209 16.00557447 2.77368649 14.17480469 2.49365234 C9.24327472 1.88665013 4.27454707 2.00299279 -0.6875 2 C-2.32525391 1.98163086 -2.32525391 1.98163086 -3.99609375 1.96289062 C-5.03636719 1.96095703 -6.07664063 1.95902344 -7.1484375 1.95703125 C-8.09251465 1.95292236 -9.0365918 1.94881348 -10.00927734 1.94458008 C-12.50836135 1.96400166 -12.50836135 1.96400166 -14.3125 4.1875 C-17.3515625 4.1640625 -17.3515625 4.1640625 -20.9375 3.8125 C-22.12601563 3.70164062 -23.31453125 3.59078125 -24.5390625 3.4765625 C-25.45429688 3.38117188 -26.36953125 3.28578125 -27.3125 3.1875 C-27.3125 2.8575 -27.3125 2.5275 -27.3125 2.1875 C-18.15149644 0.29570507 -9.33605667 -0.0880323 0 0 Z " fill="#9BBF62" transform="translate(188.3125,65.8125)"/>
<path d="M0 0 C2.64 0 5.28 0 8 0 C3.65554729 8.43334938 -3.64894963 13.83210832 -12 18 C-12.66 18 -13.32 18 -14 18 C-14 17.34 -14 16.68 -14 16 C-13.21625 15.9175 -12.4325 15.835 -11.625 15.75 C-10.75875 15.5025 -9.8925 15.255 -9 15 C-8.3162955 13.67532254 -7.65035814 12.34136367 -7 11 C-5.35448038 10.28272222 -3.68577711 9.61674772 -2 9 C-0.03959519 7.87359395 -0.03959519 7.87359395 1 6 C0.76716851 2.85078091 0.76716851 2.85078091 0 0 Z " fill="#EDFCDB" transform="translate(224,224)"/>
<path d="M0 0 C0.66 0.33 1.32 0.66 2 1 C1.72285156 1.78503906 1.44570312 2.57007813 1.16015625 3.37890625 C-2.46306828 13.88754678 -3.13833393 22.91791553 -3 34 C-5.10448454 30.84327318 -5.25548261 30.0481891 -5.265625 26.4375 C-5.26820313 25.55835938 -5.27078125 24.67921875 -5.2734375 23.7734375 C-5.26570312 22.85820312 -5.25796875 21.94296875 -5.25 21 C-5.25773438 20.08476562 -5.26546875 19.16953125 -5.2734375 18.2265625 C-5.27085937 17.34742188 -5.26828125 16.46828125 -5.265625 15.5625 C-5.26336914 14.75941406 -5.26111328 13.95632812 -5.25878906 13.12890625 C-5 11 -5 11 -3 8 C-2.835 6.80375 -2.67 5.6075 -2.5 4.375 C-2.335 3.26125 -2.17 2.1475 -2 1 C-1.34 0.67 -0.68 0.34 0 0 Z " fill="#98BF64" transform="translate(138,169)"/>
<path d="M0 0 C0.763125 0.515625 1.52625 1.03125 2.3125 1.5625 C6.35554602 4.26755957 10.48584659 6.83404063 14.609375 9.4140625 C17 11 17 11 19 13 C14.78070884 12.53118987 12.8496361 12.08710577 10 9 C8.02379014 7.95377125 6.0262871 6.94560065 4 6 C4 5.34 4 4.68 4 4 C3.401875 4.33 2.80375 4.66 2.1875 5 C0 6 0 6 -3 6 C-2 4 -1 2 0 0 Z " fill="#F1FBE1" transform="translate(108,292)"/>
<path d="M0 0 C-0.52506828 5.21745066 -1.7798559 9.22651111 -4.0625 13.9375 C-4.61035156 15.08089844 -5.15820312 16.22429687 -5.72265625 17.40234375 C-6.35494141 18.68818359 -6.35494141 18.68818359 -7 20 C-7.66 20 -8.32 20 -9 20 C-8.32648181 17.13754769 -7.47328234 14.39885467 -6.5 11.625 C-5.55134378 8.84777454 -4.90669695 6.41944768 -4.4375 3.5 C-4.293125 2.675 -4.14875 1.85 -4 1 C-2 0 -2 0 0 0 Z " fill="#99C35C" transform="translate(309,232)"/>
<path d="M0 0 C1.23556641 0.01740234 1.23556641 0.01740234 2.49609375 0.03515625 C3.32238281 0.04417969 4.14867187 0.05320313 5 0.0625 C5.63808594 0.07410156 6.27617187 0.08570313 6.93359375 0.09765625 C6.93359375 0.42765625 6.93359375 0.75765625 6.93359375 1.09765625 C6.19496094 1.24460938 5.45632812 1.3915625 4.6953125 1.54296875 C-2.20561556 3.06871396 -7.81345467 5.27307205 -13.88671875 8.890625 C-16.06640625 10.09765625 -16.06640625 10.09765625 -18.06640625 10.09765625 C-18.06640625 8.09765625 -18.06640625 8.09765625 -16.421875 6.078125 C-13.73369762 3.81791616 -11.77843899 3.19536208 -8.37890625 2.41015625 C-5.49013674 1.72526917 -2.7376386 0.12937801 0 0 Z " fill="#9FC26E" transform="translate(174.06640625,138.90234375)"/>
<path d="M0 0 C3.99900579 1.41525613 7.13669183 3.32057 10.5625 5.8125 C11.49191406 6.47894531 12.42132813 7.14539063 13.37890625 7.83203125 C16.01124144 10.00929806 17.97009115 12.26320525 20 15 C17.03 14.505 17.03 14.505 14 14 C13.93554688 13.40445312 13.87109375 12.80890625 13.8046875 12.1953125 C12.66964868 9.09875029 10.97180704 8.45105839 8.125 6.875 C6.79855469 6.12863281 6.79855469 6.12863281 5.4453125 5.3671875 C4.63835937 4.91601562 3.83140625 4.46484375 3 4 C2.01 3.34 1.02 2.68 0 2 C0 1.34 0 0.68 0 0 Z " fill="#1A8647" transform="translate(289,248)"/>
<path d="M0 0 C0.268125 0.556875 0.53625 1.11375 0.8125 1.6875 C1.97856944 4.03573293 1.97856944 4.03573293 3.4375 6.3125 C5.25582415 9.44001754 6.60513114 12.66444404 8 16 C9.19406547 18.59884837 9.95778067 19.95778067 12 22 C11.34 22.66 10.68 23.32 10 24 C-0.74819712 7.98076923 -0.74819712 7.98076923 0 0 Z " fill="#EFFADC" transform="translate(136,203)"/>
<path d="M0 0 C1.23556641 0.01740234 1.23556641 0.01740234 2.49609375 0.03515625 C3.32238281 0.04417969 4.14867187 0.05320313 5 0.0625 C5.63808594 0.07410156 6.27617187 0.08570313 6.93359375 0.09765625 C6.93359375 0.42765625 6.93359375 0.75765625 6.93359375 1.09765625 C4.95359375 1.09765625 2.97359375 1.09765625 0.93359375 1.09765625 C0.93359375 1.75765625 0.93359375 2.41765625 0.93359375 3.09765625 C0.27359375 3.09765625 -0.38640625 3.09765625 -1.06640625 3.09765625 C-0.73640625 8.70765625 -0.40640625 14.31765625 -0.06640625 20.09765625 C-0.39640625 20.09765625 -0.72640625 20.09765625 -1.06640625 20.09765625 C-1.21078125 18.96328125 -1.35515625 17.82890625 -1.50390625 16.66015625 C-1.67812103 13.28988424 -1.67812103 13.28988424 -3.06640625 12.09765625 C-3.16491796 10.26649742 -3.19613254 8.43145692 -3.19140625 6.59765625 C-3.19398438 5.59734375 -3.1965625 4.59703125 -3.19921875 3.56640625 C-3.01502055 0.14248679 -3.01502055 0.14248679 0 0 Z " fill="#7FC75D" transform="translate(233.06640625,235.90234375)"/>
<path d="M0 0 C0.66 0.33 1.32 0.66 2 1 C1.360625 1.598125 0.72125 2.19625 0.0625 2.8125 C-2.20310389 4.90810337 -2.20310389 4.90810337 -3 8 C-6.44444444 11 -6.44444444 11 -9 11 C-9 11.66 -9 12.32 -9 13 C-10.65 13.33 -12.3 13.66 -14 14 C-9.72706118 8.76564995 -5.18419194 4.32893185 0 0 Z " fill="#99C163" transform="translate(111,91)"/>
<path d="M0 0 C0.99 0.66 1.98 1.32 3 2 C2.319375 2.474375 1.63875 2.94875 0.9375 3.4375 C-2.98695783 6.86096322 -5.8835444 10.84964918 -9 15 C-10.32917292 16.66998649 -11.66014102 18.33857487 -13 20 C-13 18.35 -13 16.7 -13 15 C-12.34 15 -11.68 15 -11 15 C-10.731875 14.41734375 -10.46375 13.8346875 -10.1875 13.234375 C-8.98519009 10.97213399 -7.66174087 9.19423682 -6 7.25 C-5.2265625 6.32960937 -5.2265625 6.32960937 -4.4375 5.390625 C-3 4 -3 4 -1 4 C-0.67 2.68 -0.34 1.36 0 0 Z " fill="#9BC365" transform="translate(153,148)"/>
<path d="M0 0 C0.33 0 0.66 0 1 0 C1.04254356 1.99954746 1.04080783 4.00041636 1 6 C0.67 6.33 0.34 6.66 0 7 C-0.061875 8.093125 -0.12375 9.18625 -0.1875 10.3125 C-1 14 -1 14 -4.0625 16.4375 C-5.031875 16.953125 -6.00125 17.46875 -7 18 C-7.66 17.67 -8.32 17.34 -9 17 C-8.60167969 16.443125 -8.20335937 15.88625 -7.79296875 15.3125 C-4.33732444 10.33502693 -1.8847473 5.75895008 0 0 Z " fill="#9AC166" transform="translate(240,208)"/>
<path d="M0 0 C3.31786324 6.63572649 3.05143242 11.36751381 1.5625 18.375 C1.41490234 19.11105469 1.26730469 19.84710938 1.11523438 20.60546875 C0.7528781 22.40556123 0.37773891 24.20307253 0 26 C-0.33 26 -0.66 26 -1 26 C-0.67 17.42 -0.34 8.84 0 0 Z " fill="#A3C66C" transform="translate(242,182)"/>
<path d="M0 0 C1.32 0.33 2.64 0.66 4 1 C4.33 2.65 4.66 4.3 5 6 C5.66 6 6.32 6 7 6 C7.28875 6.804375 7.5775 7.60875 7.875 8.4375 C8.73262568 11.1326468 8.73262568 11.1326468 11 12 C11.625 14.5625 11.625 14.5625 12 17 C6.85104502 12.47516078 3.43278366 6.89607799 0 1 C0 0.67 0 0.34 0 0 Z " fill="#9CC16B" transform="translate(78,256)"/>
<path d="M0 0 C-7.21418202 2.99018409 -14.28638576 5.59752468 -22 7 C-22 6.34 -22 5.68 -22 5 C-19.08919272 3.96189556 -16.17062342 2.94762359 -13.25 1.9375 C-12.425 1.64294922 -11.6 1.34839844 -10.75 1.04492188 C-9.95078125 0.77099609 -9.1515625 0.49707031 -8.328125 0.21484375 C-7.5949707 -0.04176025 -6.86181641 -0.29836426 -6.10644531 -0.56274414 C-3.72635182 -1.05680388 -2.28425328 -0.76066537 0 0 Z " fill="#9FC067" transform="translate(161,70)"/>
<path d="M0 0 C1.98 0 3.96 0 6 0 C6 2.64 6 5.28 6 8 C5.01 7.34 4.02 6.68 3 6 C2.67 6.66 2.34 7.32 2 8 C1.34 8 0.68 8 0 8 C0 5.36 0 2.72 0 0 Z " fill="#659281" transform="translate(345,315)"/>
<path d="M0 0 C5.63901399 1.28159409 6.95353238 3.2510946 10 8 C12.55929619 10.46542239 15.25331923 12.7466551 18 15 C13.74508832 15 11.92686684 12.52840258 9 9.75 C8.46632813 9.25886719 7.93265625 8.76773437 7.3828125 8.26171875 C4.62209767 5.68642506 2.1373111 3.11691202 0 0 Z " fill="#9BBE67" transform="translate(94,278)"/>
<path d="M0 0 C0.33 0 0.66 0 1 0 C1 2.31 1 4.62 1 7 C1.598125 7.226875 2.19625 7.45375 2.8125 7.6875 C5.60188284 9.3611297 6.6168842 11.08817726 8 14 C7.67 14.66 7.34 15.32 7 16 C6.52949219 15.51789063 6.05898438 15.03578125 5.57421875 14.5390625 C4.95160156 13.90742188 4.32898438 13.27578125 3.6875 12.625 C3.07261719 11.99851562 2.45773437 11.37203125 1.82421875 10.7265625 C-0.08812528 8.81913393 -0.08812528 8.81913393 -3 7 C-1.125 2.25 -1.125 2.25 0 0 Z " fill="#E3FBEB" transform="translate(303,248)"/>
<path d="M0 0 C1.98 1.65 3.96 3.3 6 5 C4.35 6.32 2.7 7.64 1 9 C-0.37562854 7.71034824 -1.70766393 6.37310707 -3 5 C-3 4.34 -3 3.68 -3 3 C-2.01 3 -1.02 3 0 3 C0 2.01 0 1.02 0 0 Z " fill="#97C45B" transform="translate(148,229)"/>
<path d="M0 0 C1.4540625 0.0309375 1.4540625 0.0309375 2.9375 0.0625 C-0.61475592 2.43067061 -4.3121591 4.27939394 -8.125 6.1875 C-9.22424805 6.74630859 -9.22424805 6.74630859 -10.34570312 7.31640625 C-15.8228022 10.0625 -15.8228022 10.0625 -18.0625 10.0625 C-17.0625 7.0625 -17.0625 7.0625 -14.15625 5.4921875 C-12.9703125 4.97914062 -11.784375 4.46609375 -10.5625 3.9375 C-1.62730988 0.03321041 -1.62730988 0.03321041 0 0 Z " fill="#EFFBDB" transform="translate(141.0625,72.9375)"/>
<path d="M0 0 C2.72599552 3.63466069 4.04599353 5.66360696 5 10 C4.125 13.375 4.125 13.375 3 16 C2.34 16 1.68 16 1 16 C0.67 10.72 0.34 5.44 0 0 Z " fill="#E6FDF5" transform="translate(330,310)"/>
<path d="M0 0 C1.32 0 2.64 0 4 0 C4 0.66 4 1.32 4 2 C4.66 2 5.32 2 6 2 C6 2.66 6 3.32 6 4 C7.11375 4.28875 8.2275 4.5775 9.375 4.875 C13 6 13 6 15 8 C14.34 8.66 13.68 9.32 13 10 C11.20360704 8.90353942 9.41302846 7.79754852 7.625 6.6875 C6.62726563 6.07261719 5.62953125 5.45773437 4.6015625 4.82421875 C2 3 2 3 0 0 Z " fill="#9EC46B" transform="translate(112,294)"/>
<path d="M0 0 C2.55931357 0.38140958 3.76529824 0.75955981 5.59765625 2.63671875 C11.22916667 10.52083333 11.22916667 10.52083333 13 15 C12.67 15.99 12.34 16.98 12 18 C11.55269531 17.20335937 11.10539063 16.40671875 10.64453125 15.5859375 C7.44983837 9.98671032 4.36212402 4.75868075 0 0 Z " fill="#9DC167" transform="translate(226,154)"/>
<path d="M0 0 C0.66 0 1.32 0 2 0 C2.33 0.99 2.66 1.98 3 3 C3.99 2.01 4.98 1.02 6 0 C9 3.75 9 3.75 9 6 C6.1875 6.6875 6.1875 6.6875 3 7 C1.125 5.8125 1.125 5.8125 0 4 C0 2.68 0 1.36 0 0 Z " fill="#94C559" transform="translate(288,121)"/>
<path d="M0 0 C-1.68970089 3.66398299 -3.87300211 6.90832572 -6.125 10.25 C-6.84945312 11.32765625 -7.57390625 12.4053125 -8.3203125 13.515625 C-8.87460938 14.33546875 -9.42890625 15.1553125 -10 16 C-10.33 15.01 -10.66 14.02 -11 13 C-9.73932911 10.56870614 -8.44891771 8.31016251 -7 6 C-6.46375 5.05125 -5.9275 4.1025 -5.375 3.125 C-3.75208747 0.61686246 -2.9901913 0 0 0 Z " fill="#EEFBE3" transform="translate(90,111)"/>
<path d="M0 0 C0 3.69418201 -1.28179295 5.77836178 -3 9 C-3.66 9 -4.32 9 -5 9 C-5 9.66 -5 10.32 -5 11 C-6.32 11.33 -7.64 11.66 -9 12 C-9 12.66 -9 13.32 -9 14 C-9.66 13.67 -10.32 13.34 -11 13 C-9.73147606 11.39400651 -8.460089 9.79027425 -7.1875 8.1875 C-6.47980469 7.29417969 -5.77210937 6.40085937 -5.04296875 5.48046875 C-3.43588623 3.52923089 -1.82959577 1.73725024 0 0 Z " fill="#9CC26A" transform="translate(96,105)"/>
<path d="M0 0 C7.43378943 -0.33452052 13.19877155 -0.13902852 20 3 C15.69577494 4.31052767 12.0629466 3.45785552 7.75 2.5625 C7.00492187 2.41490234 6.25984375 2.26730469 5.4921875 2.11523438 C3.65992335 1.7511306 1.82973947 1.37658591 0 1 C0 0.67 0 0.34 0 0 Z " fill="#2F8D6B" transform="translate(289,322)"/>
<path d="M0 0 C7.92 3.96 7.92 3.96 16 8 C11.33181087 9.16704728 8.39894105 8.85693003 4 7 C1.5 4.5 1.5 4.5 0 2 C0 1.34 0 0.68 0 0 Z " fill="#DDF9F1" transform="translate(264,311)"/>
<path d="M0 0 C3.69876091 1.37287342 6.9514476 3.06355453 10.3125 5.125 C11.19550781 5.66382812 12.07851562 6.20265625 12.98828125 6.7578125 C13.65214844 7.16773437 14.31601562 7.57765625 15 8 C13 9 13 9 9.5 8.25 C6 7 6 7 4 4 C1.94996045 2.80767387 1.94996045 2.80767387 0 2 C0 1.34 0 0.68 0 0 Z " fill="#9BC065" transform="translate(243,78)"/>
<path d="M0 0 C0.66 0.33 1.32 0.66 2 1 C0.35 5.95 -1.3 10.9 -3 16 C-3.33 16 -3.66 16 -4 16 C-4.33 12.7 -4.66 9.4 -5 6 C-4.34 6 -3.68 6 -3 6 C-2.01 4.02 -1.02 2.04 0 0 Z " fill="#EEFBE3" transform="translate(69,144)"/>
<path d="M0 0 C4.44870215 -0.39253254 7.14243493 0.84694043 11 3 C11 3.99 11 4.98 11 6 C12.32 6.33 13.64 6.66 15 7 C15 7.66 15 8.32 15 9 C11.32305352 7.62859834 8.04681411 5.96304199 4.6875 3.9375 C3.80449219 3.41027344 2.92148438 2.88304688 2.01171875 2.33984375 C1.34785156 1.89769531 0.68398437 1.45554687 0 1 C0 0.67 0 0.34 0 0 Z " fill="#EBF9D8" transform="translate(248,80)"/>
<path d="M0 0 C2.31 0.33 4.62 0.66 7 1 C7 1.66 7 2.32 7 3 C7.763125 3.28875 8.52625 3.5775 9.3125 3.875 C12 5 12 5 15 7 C15 7.66 15 8.32 15 9 C15.66 9.33 16.32 9.66 17 10 C13.45826225 10 12.86187185 9.35548192 10.1875 7.1875 C6.9463423 4.65328612 3.7696071 2.6963232 0 1 C0 0.67 0 0.34 0 0 Z " fill="#9FC26E" transform="translate(210,143)"/>
<path d="M0 0 C1.2077558 3.62326739 0.54311128 4.64146369 -1 8 C-1.66 8 -2.32 8 -3 8 C-3.12375 8.721875 -3.2475 9.44375 -3.375 10.1875 C-3.9904931 12.95721894 -4.88444374 15.3970354 -6 18 C-6.66 18 -7.32 18 -8 18 C-6.10463724 11.48180123 -3.4821006 5.82185199 0 0 Z " fill="#9BC068" transform="translate(79,127)"/>
<path d="M0 0 C4.66666667 4 9.33333333 8 14 12 C13.01 12.33 12.02 12.66 11 13 C9.53184611 11.78258021 8.07583153 10.55051239 6.625 9.3125 C5.81289062 8.62800781 5.00078125 7.94351562 4.1640625 7.23828125 C1.90465677 4.90138687 0.97844147 3.0697257 0 0 Z " fill="#EEFCD9" transform="translate(94,279)"/>
<path d="M0 0 C1.75215106 0.93347358 3.50163563 1.8719532 5.25 2.8125 C6.71179688 3.59560547 6.71179688 3.59560547 8.203125 4.39453125 C10.63355412 5.78965188 12.80787699 7.26195961 15 9 C12.36 8.67 9.72 8.34 7 8 C7 7.34 7 6.68 7 6 C4.525 5.01 4.525 5.01 2 4 C2 3.34 2 2.68 2 2 C1.34 2 0.68 2 0 2 C0 1.34 0 0.68 0 0 Z " fill="#9BBF67" transform="translate(154,235)"/>
<path d="M0 0 C3.43734063 -0.08703823 6.87439837 -0.14040272 10.3125 -0.1875 C11.28896484 -0.21263672 12.26542969 -0.23777344 13.27148438 -0.26367188 C14.20927734 -0.27333984 15.14707031 -0.28300781 16.11328125 -0.29296875 C16.97735596 -0.3086792 17.84143066 -0.32438965 18.73168945 -0.34057617 C21 0 21 0 24 3 C16.08 2.34 8.16 1.68 0 1 C0 0.67 0 0.34 0 0 Z " fill="#99BD6B" transform="translate(181,138)"/>
<path d="M0 0 C3 1 3 1 4.38671875 3.109375 C4.81597656 3.98078125 5.24523437 4.8521875 5.6875 5.75 C6.12449219 6.61109375 6.56148438 7.4721875 7.01171875 8.359375 C8.04127438 11.11028252 8.19360389 13.09070905 8 16 C5.35719359 13.35719359 4.28056917 10.27123173 2.875 6.875 C2.59785156 6.21628906 2.32070313 5.55757812 2.03515625 4.87890625 C1.35240609 3.25443173 0.67562567 1.62745052 0 0 Z " fill="#ECFBDB" transform="translate(299,129)"/>
<path d="M0 0 C0.639375 0.28875 1.27875 0.5775 1.9375 0.875 C5.30230985 2.1110526 8.58358925 2.73859221 12.109375 3.33984375 C12.73328125 3.55769531 13.3571875 3.77554687 14 4 C14.33 4.99 14.66 5.98 15 7 C9.30860098 5.90301833 4.25432063 4.45946923 -1 2 C-0.67 1.34 -0.34 0.68 0 0 Z " fill="#9CC068" transform="translate(138,308)"/>
<path d="M0 0 C2.90408342 3.87211123 3.85079464 6.40317854 5 11 C4.34 10.67 3.68 10.34 3 10 C3 9.01 3 8.02 3 7 C2.34 7 1.68 7 1 7 C0.67 7.99 0.34 8.98 0 10 C-0.66 10 -1.32 10 -2 10 C-1.34 6.7 -0.68 3.4 0 0 Z " fill="#96C163" transform="translate(301,134)"/>
<path d="M0 0 C3.83663072 1.34929464 6.65172569 3.07751025 9.8125 5.625 C10.99779297 6.57246094 10.99779297 6.57246094 12.20703125 7.5390625 C12.79871094 8.02117187 13.39039063 8.50328125 14 9 C13.01 9.495 13.01 9.495 12 10 C9.8359375 9.00390625 9.8359375 9.00390625 7.375 7.5625 C6.55773437 7.08941406 5.74046875 6.61632812 4.8984375 6.12890625 C4.27195312 5.75636719 3.64546875 5.38382812 3 5 C3 4.34 3 3.68 3 3 C2.01 2.67 1.02 2.34 0 2 C0 1.34 0 0.68 0 0 Z " fill="#9DC067" transform="translate(258,87)"/>
<path d="M0 0 C0.33 0 0.66 0 1 0 C1.67364661 2.08108685 2.33866798 4.1649671 3 6.25 C3.37125 7.41015625 3.7425 8.5703125 4.125 9.765625 C5 13 5 13 5 17 C0.42832218 11.38930449 -0.23901086 7.05082028 0 0 Z " fill="#9FC268" transform="translate(135,203)"/>
<path d="M0 0 C-2.95074112 1.56779517 -5.87119234 2.70074575 -9.0625 3.6875 C-9.91972656 3.95949219 -10.77695313 4.23148437 -11.66015625 4.51171875 C-14 5 -14 5 -17 4 C-16.34 4 -15.68 4 -15 4 C-15 3.34 -15 2.68 -15 2 C-10.13948404 -0.59227518 -5.34728867 -0.18689553 0 0 Z " fill="#F1FCDD" transform="translate(161,68)"/>
<path d="M0 0 C3.39608504 1.45546502 5.40860299 3.40860299 8 6 C9.051875 6.495 9.051875 6.495 10.125 7 C12.49191761 8.26235606 13.0222242 9.55556051 14 12 C10.84717276 10.57910701 8.46222036 8.84968149 5.875 6.5625 C5.19179687 5.96566406 4.50859375 5.36882812 3.8046875 4.75390625 C2 3 2 3 0 0 Z " fill="#EDFCDA" transform="translate(147,227)"/>
<path d="M0 0 C2.17186421 2.17186421 2.6793248 3.49976531 3.625 6.375 C3.88539063 7.14585937 4.14578125 7.91671875 4.4140625 8.7109375 C5 11 5 11 5 15 C4.34 15 3.68 15 3 15 C2.491217 13.44033782 1.99336531 11.87710759 1.5 10.3125 C1.2215625 9.44238281 0.943125 8.57226562 0.65625 7.67578125 C0.00149195 5.00608323 -0.11831495 2.73603316 0 0 Z " fill="#9AC168" transform="translate(306,145)"/>
<path d="M0 0 C-0.99 1.485 -0.99 1.485 -2 3 C-5.0390625 3.51171875 -5.0390625 3.51171875 -8.625 3.6875 C-9.81351563 3.75324219 -11.00203125 3.81898438 -12.2265625 3.88671875 C-13.59941406 3.94279297 -13.59941406 3.94279297 -15 4 C-12.19836511 2.13224341 -10.11958197 1.27321694 -6.9375 0.3125 C-6.05964844 0.04050781 -5.18179688 -0.23148437 -4.27734375 -0.51171875 C-2 -1 -2 -1 0 0 Z " fill="#EBF7D6" transform="translate(231,314)"/>
<path d="M0 0 C0.66 0.33 1.32 0.66 2 1 C1.67 1.61875 1.34 2.2375 1 2.875 C-0.14193235 4.91018344 -0.14193235 4.91018344 0 7 C-1.65 6.67 -3.3 6.34 -5 6 C-5.33 5.01 -5.66 4.02 -6 3 C-4.03533587 1.93224776 -2.03144641 0.93446535 0 0 Z " fill="#F1FBE3" transform="translate(248,305)"/>
<path d="M0 0 C1.78016355 2.67024533 2.97163019 5.05030861 4.1875 8 C4.55230469 8.86625 4.91710937 9.7325 5.29296875 10.625 C6 13 6 13 5 16 C1.50397814 10.49376557 -0.7013076 6.59229145 0 0 Z " fill="#6FC664" transform="translate(236,269)"/>
<path d="M0 0 C2.64 0 5.28 0 8 0 C5.375 4.875 5.375 4.875 2 6 C1.34 4.02 0.68 2.04 0 0 Z " fill="#F4FAEB" transform="translate(224,224)"/>
<path d="M0 0 C0.66 0 1.32 0 2 0 C0.16508812 4.74018901 -1.91941459 9.36413251 -4 14 C-4.33 14 -4.66 14 -5 14 C-4.59080462 8.06666693 -3.81109992 4.61951506 0 0 Z " fill="#EAF8D7" transform="translate(76,129)"/>
<path d="M0 0 C0.99 0.33 1.98 0.66 3 1 C1.35 4.63 -0.3 8.26 -2 12 C-2.66 12 -3.32 12 -4 12 C-3.33989524 9.15449988 -2.48275034 6.47674001 -1.4375 3.75 C-1.16808594 3.04359375 -0.89867187 2.3371875 -0.62109375 1.609375 C-0.41613281 1.07828125 -0.21117187 0.5471875 0 0 Z " fill="#9FC26C" transform="translate(304,240)"/>
<path d="M0 0 C3.11954738 0.33724836 4.6209965 0.6209965 6.875 2.875 C7.24625 3.57625 7.6175 4.2775 8 5 C7.67 5.99 7.34 6.98 7 8 C5.83035398 6.8572081 4.66435444 5.71068285 3.5 4.5625 C2.8503125 3.92441406 2.200625 3.28632812 1.53125 2.62890625 C0 1 0 1 0 0 Z " fill="#EFFDE3" transform="translate(272,96)"/>
<path d="M0 0 C1.41805831 0.28482368 2.83440379 0.57818144 4.25 0.875 C5.03890625 1.03742188 5.8278125 1.19984375 6.640625 1.3671875 C8.96831144 1.99150075 10.89031952 2.84838542 13 4 C8.58937864 5.0257259 6.07369424 5.03684712 2 3 C2 2.34 2 1.68 2 1 C1.34 0.67 0.68 0.34 0 0 Z " fill="#DAFAF2" transform="translate(280,320)"/>
<path d="M0 0 C1.58467728 0.28427417 3.1677057 0.57774818 4.75 0.875 C6.07257813 1.11863281 6.07257813 1.11863281 7.421875 1.3671875 C9.86947744 1.96796264 11.80599857 2.77997117 14 4 C5.21276596 4.29787234 5.21276596 4.29787234 1 2 C0.67 1.34 0.34 0.68 0 0 Z " fill="#EFFDD9" transform="translate(147,314)"/>
<path d="M0 0 C0.33 0 0.66 0 1 0 C1.33872513 1.41538717 1.67074624 2.83237963 2 4.25 C2.185625 5.03890625 2.37125 5.8278125 2.5625 6.640625 C3 9 3 9 3 13 C2.01 12.67 1.02 12.34 0 12 C0 8.04 0 4.08 0 0 Z " fill="#7DC55C" transform="translate(233,256)"/>
<path d="M0 0 C1.98 0 3.96 0 6 0 C6.66 1.32 7.32 2.64 8 4 C7.34 4.66 6.68 5.32 6 6 C6 5.01 6 4.02 6 3 C4.02 3 2.04 3 0 3 C0 2.01 0 1.02 0 0 Z " fill="#A5CFC0" transform="translate(345,312)"/>
<path d="M0 0 C2.31 0.66 4.62 1.32 7 2 C7 2.99 7 3.98 7 5 C4.03 4.01 1.06 3.02 -2 2 C-1.34 1.34 -0.68 0.68 0 0 Z " fill="#238662" transform="translate(273,314)"/>
<path d="M0 0 C7.38461538 -0.49230769 7.38461538 -0.49230769 10.5 2 C10.995 2.66 11.49 3.32 12 4 C10.5608866 3.71640113 9.12374482 3.42278601 7.6875 3.125 C6.88699219 2.96257812 6.08648437 2.80015625 5.26171875 2.6328125 C3 2 3 2 0 0 Z " fill="#7BC65F" transform="translate(272,241)"/>
<path d="M0 0 C1.134375 0.020625 2.26875 0.04125 3.4375 0.0625 C2.7775 1.7125 2.1175 3.3625 1.4375 5.0625 C0.1175 4.7325 -1.2025 4.4025 -2.5625 4.0625 C-2.5625 3.4025 -2.5625 2.7425 -2.5625 2.0625 C-3.2225 1.7325 -3.8825 1.4025 -4.5625 1.0625 C-3.5625 0.0625 -3.5625 0.0625 0 0 Z " fill="#96C358" transform="translate(207.5625,137.9375)"/>
<path d="M0 0 C2.79872437 2.52788007 4.45773019 4.20411134 5 8 C4.01 8.33 3.02 8.66 2 9 C0.50178941 5.62902617 0 3.79557881 0 0 Z " fill="#258261" transform="translate(314,270)"/>
<path d="M0 0 C2.31 1.98 4.62 3.96 7 6 C3 7 3 7 1 6 C0.375 2.9375 0.375 2.9375 0 0 Z " fill="#228763" transform="translate(302,256)"/>
<path d="M0 0 C5.75 1.75 5.75 1.75 8 4 C7.625 6.125 7.625 6.125 7 8 C5.83035398 6.8572081 4.66435444 5.71068285 3.5 4.5625 C2.8503125 3.92441406 2.200625 3.28632812 1.53125 2.62890625 C0 1 0 1 0 0 Z " fill="#EFFCE1" transform="translate(280,104)"/>
<path d="M0 0 C2.31 0.33 4.62 0.66 7 1 C7 2.65 7 4.3 7 6 C5.83054208 5.19152271 4.66449539 4.37810888 3.5 3.5625 C2.8503125 3.11003906 2.200625 2.65757813 1.53125 2.19140625 C1.0259375 1.79824219 0.520625 1.40507813 0 1 C0 0.67 0 0.34 0 0 Z " fill="#EEF9DC" transform="translate(263,89)"/>
<path d="M0 0 C2.33218272 0.84806644 3.44954313 1.8950996 5.0625 3.75 C4.7325 4.41 4.4025 5.07 4.0625 5.75 C3.4025 5.09 2.7425 4.43 2.0625 3.75 C1.0725 4.245 1.0725 4.245 0.0625 4.75 C-0.2675 4.09 -0.5975 3.43 -0.9375 2.75 C-1.9275 2.09 -2.9175 1.43 -3.9375 0.75 C-1.9375 -0.25 -1.9375 -0.25 0 0 Z " fill="#E5F7EE" transform="translate(257.9375,306.25)"/>
<path d="M0 0 C0.66 0.33 1.32 0.66 2 1 C2 3.31 2 5.62 2 8 C0.35 6.35 -1.3 4.7 -3 3 C-2.01 2.01 -1.02 1.02 0 0 Z " fill="#E6FAF5" transform="translate(314,263)"/>
<path d="M0 0 C2 3 2 3 1.5390625 5.48046875 C1.23742187 6.37378906 0.93578125 7.26710937 0.625 8.1875 C0.32851562 9.08855469 0.03203125 9.98960937 -0.2734375 10.91796875 C-0.63308594 11.94857422 -0.63308594 11.94857422 -1 13 C-2.07310858 9.72814447 -1.89263102 7.57052408 -1.0625 4.25 C-0.86785156 3.45078125 -0.67320312 2.6515625 -0.47265625 1.828125 C-0.31667969 1.22484375 -0.16070312 0.6215625 0 0 Z " fill="#EFFAE7" transform="translate(139,170)"/>
<path d="M0 0 C0.33 0 0.66 0 1 0 C1.125 5.75 1.125 5.75 0 8 C-0.66 8 -1.32 8 -2 8 C-2.125 5.125 -2.125 5.125 -2 2 C-1.34 1.34 -0.68 0.68 0 0 Z " fill="#93C05B" transform="translate(314,200)"/>
<path d="M0 0 C1.04005702 3.38018531 1.08004482 6.4780279 1 10 C0.34 10 -0.32 10 -1 10 C-1.33 10.99 -1.66 11.98 -2 13 C-1.85851011 11.3954444 -1.71164314 9.79136233 -1.5625 8.1875 C-1.48128906 7.29417969 -1.40007812 6.40085938 -1.31640625 5.48046875 C-1 3 -1 3 0 0 Z " fill="#96BE61" transform="translate(67,153)"/>
<path d="M0 0 C5.4611399 0.35233161 5.4611399 0.35233161 8 1 C9.5 3.0625 9.5 3.0625 10 5 C6.08788267 3.84414715 3.1254959 2.64465038 0 0 Z " fill="#E9F9D3" transform="translate(238,75)"/>
<path d="M0 0 C4 4.75 4 4.75 4 7 C2.68 7.99 1.36 8.98 0 10 C0 6.7 0 3.4 0 0 Z " fill="#80C95B" transform="translate(242,285)"/>
<path d="M0 0 C0 1.65 0 3.3 0 5 C-1.32 5.33 -2.64 5.66 -4 6 C-3.625 3.5625 -3.625 3.5625 -3 1 C-1 0 -1 0 0 0 Z " fill="#8CC93F" transform="translate(90,259)"/>
<path d="M0 0 C4.95 0.99 4.95 0.99 10 2 C10 2.33 10 2.66 10 3 C6.7 3 3.4 3 0 3 C0 2.01 0 1.02 0 0 Z " fill="#9DC06A" transform="translate(214,68)"/>
<path d="M0 0 C0.66 0.33 1.32 0.66 2 1 C0.68 2.65 -0.64 4.3 -2 6 C-3.32 5.67 -4.64 5.34 -6 5 C-4.02 3.35 -2.04 1.7 0 0 Z " fill="#E7F9D6" transform="translate(156,149)"/>
<path d="M0 0 C0.33 0 0.66 0 1 0 C1.3125 2.25 1.3125 2.25 1 5 C-1.5 7.3125 -1.5 7.3125 -4 9 C-4.33 8.01 -4.66 7.02 -5 6 C-4.34 5.34 -3.68 4.68 -3 4 C-2.01 4 -1.02 4 0 4 C0 2.68 0 1.36 0 0 Z " fill="#F8FCF1" transform="translate(70,139)"/>
<path d="M0 0 C0.144375 0.598125 0.28875 1.19625 0.4375 1.8125 C0.8872439 3.56150404 1.42892341 5.28677023 2 7 C0.02 7 -1.96 7 -4 7 C-2.68 4.69 -1.36 2.38 0 0 Z " fill="#9BC266" transform="translate(84,119)"/>
</svg>
